M48
;Layer_Color=9474304
;FILE_FORMAT=2:4
INCH,LZ
;TYPE=PLATED
T1F00S00C0.0157
T2F00S00C0.0197
T3F00S00C0.0280
T4F00S00C0.0315
T5F00S00C0.0320
T6F00S00C0.0400
T7F00S00C0.0402
T8F00S00C0.0433
T10F00S00C0.0600
T11F00S00C0.0630
T12F00S00C0.1299
T14F00S00C0.1575
T16F00S00C0.3543
%
T01
X007Y015
X008
X009
X01
X011
X012
X013
X016
X017
X018
X019
X02
X021
X022
X023
X024
X025
X026
X027
X028
X029
X03
X031
X032
X0315Y016
X033Y019
X034
X035
X036
X037Y021
X0365Y022
X037Y023
Y025
X0365Y028
X0355
Y03
X0365
X037Y029
X036Y031
X033
X032
X0325Y03
X0315
X0305
X0295
X0285
X029Y031
X028
X028202Y025487
X027521Y025481
X026852Y025537
X026002Y025387
X022921Y025531
X022302Y025537
X021402Y025587
X020502Y025637
X019502Y025587
X0165Y026
X017Y027
X016
Y025
Y023
X018
Y021
X02
X021
X0205Y022
Y02
X021Y019
X02
X0205Y018
X0215
X0225
X0235
X022Y017
X021
X02
X0205Y016
X0215
X0225
X0195
X0185
X0175
X0165
X016Y017
X018
Y019
X016
Y021
X023
X022921Y020531
Y020031
X0245Y02
X026171Y020131
X026121Y021231
X025658Y022275
X023452Y022287
X022Y023
X0285Y022
X029Y021
X028
X0285Y02
X028Y019
X031
X0305Y016
X0295
X0285
X0275
X03Y025
X0205Y03
X0195
X0175
X0145
X014Y029
X0145Y028
X0135
X0125
X0115
X013Y027
X014
X0145Y026
X014Y025
X0145Y024
X014Y023
X0145Y022
X014Y021
X013
X0135Y02
X0145
X014Y019
X013
X012
X0125Y02
X0135Y018
X0145
X0155
X0105
X0095
X0085
X009Y017
X01
X0105Y016
X0115
X0095
X0085
X0075
X0085Y022
X009Y023
X011
X0105Y026
X0075
X007Y023
X0085Y034
X009Y035
X008
X0085Y036
X008Y039
Y041
X012
X014Y039
X0145Y044
X0135Y032
X012Y033
X0115Y034
X0105
X0185Y036
Y038
X0195
X0205
X021Y041
X02
Y043
X021
X022
X023
X0245Y044
X0255
X0265
X027Y043
X028
X029
X0285Y042
X0305
X031Y043
Y041
X03
X0305Y04
X031Y039
X03
X0305Y038
X031Y037
X03
X0305Y036
X031Y035
X03
X0305Y034
X027Y035
X026
X0265Y036
X027Y033
X0275Y032
X027Y041
X026
X025
X0265Y042
X0215Y044
X0205
X0195
X032Y043
X0325Y042
X0315
X032Y041
X0325Y04
X0315
X032Y039
X0315Y038
X032Y037
X0325Y036
X0315
X032Y035
X033
X0325Y034
X0315
X032Y033
X033
X0325Y032
X0355Y034
X0365
X0375
X037Y035
X036
X0365Y036
X0375
X037Y037
X036
X0365Y038
X0375
Y04
Y042
X0355
X036Y043
X0355Y044
X036Y041
X0355Y04
Y038
Y036
X037Y033
X0335Y046
X033Y049
X0335Y05
X0325
X0315
X032Y051
X0315Y052
Y048
X0305
X0295
X0285
Y05
X0295
X0305
X031Y051
X03
X029
X028
X0275Y05
X0265
X0255
X026Y051
X0245Y052
X0235
X024Y053
X023
X022
X0225Y054
X0235
X0245
X0215
X0205
X0195
X0185
X018Y053
X0165Y052
X017Y051
X016
X0165Y05
X016Y049
X0195Y048
X02Y047
X021
X022
X023
X024
X025
X0255Y048
X0265
X027Y047
X0235Y048
X0225
X023Y051
X022
X021
X0305Y052
X0285Y054
X015Y051
X014
X013
X0135Y05
X0145
X0155
X015Y049
X014
X013
X012
X011
X0115Y05
X0125
X0135Y048
X0145
X0105
X009Y047
T02
X03335Y02055
X0354
X034Y0234
X03705Y0308
X0268Y0306
X02425Y0276
X0119Y03115
X01475Y0338
Y0361
X015549Y0365
X01555Y0378
X0124Y0372
X0115Y03795
X010529Y038371
X01065Y03895
Y0403
X011025Y036875
X01025Y03545
X0118Y04295
X012498Y043327
X012296Y043996
X0119Y046
X01505Y04475
X0175Y0409
X017579Y040321
X0185Y04015
X01675Y03835
X016163Y038013
X01595Y0362
X0161Y0357
X01655Y03605
X015663Y033027
X023444Y031506
X0245Y0336
X02555Y0326
X0281Y05165
X0249Y05495
X01895Y04955
X017936Y048822
T03
X02Y0235
X0217Y0302
X0278Y0287
X02925Y0231
X0103Y0224
X01325Y03135
X013298Y036093
X0134Y039
X0145
X01445Y0402
X01335Y04015
X00975Y0361
X0208Y0374
X02755Y03575
X02285Y044
X02485Y0497
X02695Y05085
T04
X01961Y05174
X0206Y05173
X0206Y053
X01961Y053
T05
X0093Y04155
X0103
T06
X02436Y01876
X02435Y02075
X0131Y0224
X0131Y0234
X03325Y03675
X03325Y03775
T07
X0151Y02825
Y02925
Y03025
Y03125
X00705Y0344
Y0354
Y0364
Y0374
X01295Y0459
X01395
X01495
X01595
X01785Y03935
Y03835
Y03735
Y03635
T08
X030766Y028549
X01125Y02635
X00975
X0083
X00845Y02075
X00945
X01045
X01145
X01095Y01975
X00995
X00895
X00795
X01105Y03485
X0122
X0069Y0439
X0069Y0449
Y0459
X0196Y04235
X0206
X0216
X0226
X0236
X0246
X0256
X02915Y04105
Y03985
Y0386
Y03735
Y03615
X0256Y03635
X0246
X0236
X0226
X0216
X0206
X0196
X0195Y032
X0168Y03305
X0369Y0387
X02965Y0471
X0069Y0469
T10
X0318Y01705
X0298
X025227Y017196
X023227
X01905Y01735
X01705
T11
X0066Y016049
X0128
T12
X00745Y01725
X01195Y01725
T14
X0196Y03935
X0256
T16
X0226Y03935
M30
