G04*
G04 #@! TF.GenerationSoftware,Altium Limited,Altium Designer,20.0.13 (296)*
G04*
G04 Layer_Color=32768*
%FSTAX24Y24*%
%MOIN*%
G70*
G01*
G75*
%ADD18C,0.0039*%
%ADD148R,0.0236X0.0098*%
%ADD149R,0.0098X0.0236*%
G36*
X031022Y053732D02*
X031025D01*
X031033Y053731D01*
X031041Y05373D01*
X03105Y053728D01*
X03106Y053725D01*
X031068Y053722D01*
X031069D01*
X03107Y053722D01*
X031071Y053721D01*
X031072Y05372D01*
X031076Y053718D01*
X031082Y053715D01*
X031088Y053711D01*
X031094Y053705D01*
X031099Y053699D01*
X031105Y053693D01*
Y053692D01*
X031105Y053692D01*
X031106Y053691D01*
X031107Y053689D01*
X031109Y053685D01*
X031111Y05368D01*
X031114Y053674D01*
X031116Y053666D01*
X031118Y053658D01*
X031119Y053649D01*
X031083Y053646D01*
Y053647D01*
Y053648D01*
X031083Y053649D01*
X031082Y053651D01*
X031081Y053655D01*
X03108Y053661D01*
X031077Y053668D01*
X031074Y053674D01*
X031069Y05368D01*
X031064Y053686D01*
X031063Y053686D01*
X031061Y053688D01*
X031057Y05369D01*
X031052Y053693D01*
X031045Y053695D01*
X031037Y053697D01*
X031027Y053699D01*
X031016Y053699D01*
X03101D01*
X031008Y053699D01*
X031004Y053699D01*
X030997Y053698D01*
X030989Y053696D01*
X030981Y053694D01*
X030973Y053691D01*
X03097Y053689D01*
X030967Y053687D01*
X030966Y053687D01*
X030965Y053685D01*
X030962Y053682D01*
X03096Y053679D01*
X030957Y053675D01*
X030955Y05367D01*
X030953Y053664D01*
X030952Y053658D01*
Y053657D01*
Y053655D01*
X030953Y053653D01*
X030953Y053649D01*
X030955Y053645D01*
X030957Y053641D01*
X030959Y053637D01*
X030963Y053633D01*
X030963Y053633D01*
X030965Y053632D01*
X030967Y05363D01*
X030968Y05363D01*
X030971Y053628D01*
X030973Y053627D01*
X030977Y053626D01*
X030981Y053624D01*
X030985Y053622D01*
X030991Y05362D01*
X030996Y053619D01*
X031003Y053617D01*
X03101Y053615D01*
X031018Y053613D01*
X031018D01*
X03102Y053613D01*
X031022Y053612D01*
X031025Y053612D01*
X031029Y053611D01*
X031033Y05361D01*
X031038Y053608D01*
X031042Y053607D01*
X031053Y053604D01*
X031063Y053602D01*
X031068Y0536D01*
X031072Y053598D01*
X031076Y053597D01*
X031079Y053596D01*
X03108D01*
X031081Y053595D01*
X031082Y053594D01*
X031083Y053594D01*
X031088Y053591D01*
X031093Y053588D01*
X031099Y053584D01*
X031105Y053579D01*
X031111Y053573D01*
X031115Y053567D01*
X031116Y053566D01*
X031117Y053564D01*
X031119Y053561D01*
X031121Y053556D01*
X031123Y05355D01*
X031125Y053543D01*
X031127Y053536D01*
X031127Y053528D01*
Y053527D01*
Y053527D01*
Y053526D01*
Y053524D01*
X031126Y05352D01*
X031125Y053514D01*
X031124Y053508D01*
X031122Y053501D01*
X031119Y053494D01*
X031114Y053486D01*
Y053486D01*
X031114Y053485D01*
X031112Y053483D01*
X031109Y053479D01*
X031105Y053475D01*
X0311Y05347D01*
X031093Y053465D01*
X031086Y05346D01*
X031078Y053456D01*
X031077D01*
X031076Y053456D01*
X031075Y053455D01*
X031074Y053454D01*
X031071Y053454D01*
X031068Y053452D01*
X031062Y053451D01*
X031054Y053449D01*
X031045Y053447D01*
X031035Y053446D01*
X031024Y053445D01*
X031018D01*
X031015Y053446D01*
X031011D01*
X031007Y053446D01*
X031002Y053446D01*
X030992Y053448D01*
X030982Y05345D01*
X030971Y053452D01*
X030961Y053456D01*
X030961D01*
X03096Y053456D01*
X030959Y053457D01*
X030957Y053458D01*
X030953Y05346D01*
X030947Y053464D01*
X030941Y053469D01*
X030934Y053474D01*
X030927Y053481D01*
X030921Y053489D01*
Y053489D01*
X030921Y05349D01*
X03092Y053491D01*
X030919Y053493D01*
X030918Y053495D01*
X030917Y053497D01*
X030914Y053503D01*
X030911Y053511D01*
X030909Y053519D01*
X030907Y053529D01*
X030906Y053539D01*
X030941Y053542D01*
Y053542D01*
Y053541D01*
X030941Y05354D01*
Y053539D01*
X030942Y053535D01*
X030943Y05353D01*
X030945Y053525D01*
X030947Y053519D01*
X030949Y053513D01*
X030952Y053508D01*
X030953Y053507D01*
X030954Y053506D01*
X030956Y053503D01*
X030959Y0535D01*
X030963Y053497D01*
X030967Y053493D01*
X030973Y053489D01*
X03098Y053486D01*
X03098D01*
X030981Y053486D01*
X030982Y053485D01*
X030983Y053485D01*
X030987Y053484D01*
X030992Y053482D01*
X030999Y05348D01*
X031006Y053479D01*
X031014Y053478D01*
X031023Y053478D01*
X031026D01*
X03103Y053478D01*
X031035Y053479D01*
X031041Y05348D01*
X031047Y05348D01*
X031054Y053482D01*
X03106Y053484D01*
X03106Y053484D01*
X031062Y053485D01*
X031065Y053487D01*
X031069Y053488D01*
X031072Y053491D01*
X031076Y053494D01*
X031081Y053497D01*
X031084Y053501D01*
X031084Y053502D01*
X031085Y053503D01*
X031086Y053505D01*
X031088Y053509D01*
X031089Y053512D01*
X031091Y053516D01*
X031091Y05352D01*
X031092Y053525D01*
Y053525D01*
Y053527D01*
X031091Y05353D01*
X031091Y053533D01*
X03109Y053536D01*
X031089Y05354D01*
X031087Y053544D01*
X031084Y053548D01*
X031083Y053548D01*
X031082Y053549D01*
X031081Y053551D01*
X031078Y053553D01*
X031074Y053556D01*
X03107Y053559D01*
X031065Y053561D01*
X031059Y053564D01*
X031058Y053564D01*
X031056Y053565D01*
X031053Y053566D01*
X031051Y053566D01*
X031048Y053567D01*
X031046Y053568D01*
X031042Y053569D01*
X031038Y05357D01*
X031033Y053572D01*
X031028Y053573D01*
X031023Y053574D01*
X031016Y053576D01*
X03101Y053578D01*
X031009D01*
X031008Y053578D01*
X031006Y053578D01*
X031004Y053579D01*
X031Y05358D01*
X030997Y053581D01*
X030989Y053583D01*
X03098Y053586D01*
X030971Y053589D01*
X030963Y053592D01*
X030959Y053593D01*
X030956Y053595D01*
X030955D01*
X030955Y053595D01*
X030953Y053597D01*
X030949Y053599D01*
X030945Y053602D01*
X03094Y053606D01*
X030935Y05361D01*
X030931Y053615D01*
X030927Y053621D01*
X030926Y053622D01*
X030925Y053624D01*
X030923Y053627D01*
X030922Y053631D01*
X03092Y053636D01*
X030918Y053642D01*
X030917Y053649D01*
X030917Y053655D01*
Y053656D01*
Y053656D01*
Y053657D01*
Y053659D01*
X030918Y053663D01*
X030918Y053668D01*
X03092Y053674D01*
X030922Y053681D01*
X030925Y053688D01*
X030929Y053695D01*
Y053695D01*
X030929Y053695D01*
X030931Y053698D01*
X030934Y053701D01*
X030937Y053705D01*
X030942Y053709D01*
X030948Y053714D01*
X030955Y053719D01*
X030963Y053723D01*
X030964D01*
X030965Y053723D01*
X030966Y053723D01*
X030967Y053724D01*
X030969Y053725D01*
X030972Y053726D01*
X030978Y053727D01*
X030986Y053729D01*
X030995Y053731D01*
X031004Y053732D01*
X031014Y053732D01*
X03102D01*
X031022Y053732D01*
D02*
G37*
G36*
X030764D02*
X030767D01*
X030774Y053731D01*
X030783Y05373D01*
X030791Y053728D01*
X030801Y053725D01*
X03081Y053722D01*
X03081D01*
X030811Y053722D01*
X030812Y053721D01*
X030814Y05372D01*
X030818Y053718D01*
X030823Y053715D01*
X030829Y053711D01*
X030835Y053705D01*
X030841Y053699D01*
X030846Y053693D01*
Y053692D01*
X030846Y053692D01*
X030847Y053691D01*
X030848Y053689D01*
X03085Y053685D01*
X030852Y05368D01*
X030855Y053674D01*
X030857Y053666D01*
X030859Y053658D01*
X03086Y053649D01*
X030825Y053646D01*
Y053647D01*
Y053648D01*
X030824Y053649D01*
X030824Y053651D01*
X030823Y053655D01*
X030821Y053661D01*
X030819Y053668D01*
X030815Y053674D01*
X030811Y05368D01*
X030805Y053686D01*
X030804Y053686D01*
X030802Y053688D01*
X030798Y05369D01*
X030793Y053693D01*
X030786Y053695D01*
X030778Y053697D01*
X030768Y053699D01*
X030757Y053699D01*
X030751D01*
X030749Y053699D01*
X030746Y053699D01*
X030738Y053698D01*
X03073Y053696D01*
X030722Y053694D01*
X030715Y053691D01*
X030712Y053689D01*
X030708Y053687D01*
X030708Y053687D01*
X030706Y053685D01*
X030704Y053682D01*
X030701Y053679D01*
X030698Y053675D01*
X030696Y05367D01*
X030694Y053664D01*
X030694Y053658D01*
Y053657D01*
Y053655D01*
X030694Y053653D01*
X030695Y053649D01*
X030696Y053645D01*
X030698Y053641D01*
X0307Y053637D01*
X030704Y053633D01*
X030704Y053633D01*
X030706Y053632D01*
X030708Y05363D01*
X03071Y05363D01*
X030712Y053628D01*
X030715Y053627D01*
X030718Y053626D01*
X030722Y053624D01*
X030727Y053622D01*
X030732Y05362D01*
X030738Y053619D01*
X030744Y053617D01*
X030751Y053615D01*
X030759Y053613D01*
X03076D01*
X030761Y053613D01*
X030764Y053612D01*
X030767Y053612D01*
X03077Y053611D01*
X030775Y05361D01*
X030779Y053608D01*
X030784Y053607D01*
X030794Y053604D01*
X030804Y053602D01*
X030809Y0536D01*
X030813Y053598D01*
X030817Y053597D01*
X030821Y053596D01*
X030821D01*
X030822Y053595D01*
X030823Y053594D01*
X030825Y053594D01*
X030829Y053591D01*
X030834Y053588D01*
X03084Y053584D01*
X030846Y053579D01*
X030852Y053573D01*
X030857Y053567D01*
X030857Y053566D01*
X030859Y053564D01*
X03086Y053561D01*
X030863Y053556D01*
X030865Y05355D01*
X030867Y053543D01*
X030868Y053536D01*
X030868Y053528D01*
Y053527D01*
Y053527D01*
Y053526D01*
Y053524D01*
X030868Y05352D01*
X030867Y053514D01*
X030865Y053508D01*
X030863Y053501D01*
X03086Y053494D01*
X030856Y053486D01*
Y053486D01*
X030855Y053485D01*
X030853Y053483D01*
X03085Y053479D01*
X030846Y053475D01*
X030841Y05347D01*
X030835Y053465D01*
X030827Y05346D01*
X030819Y053456D01*
X030819D01*
X030818Y053456D01*
X030817Y053455D01*
X030815Y053454D01*
X030813Y053454D01*
X03081Y053452D01*
X030803Y053451D01*
X030796Y053449D01*
X030787Y053447D01*
X030777Y053446D01*
X030766Y053445D01*
X030759D01*
X030756Y053446D01*
X030752D01*
X030748Y053446D01*
X030744Y053446D01*
X030734Y053448D01*
X030723Y05345D01*
X030713Y053452D01*
X030703Y053456D01*
X030702D01*
X030702Y053456D01*
X0307Y053457D01*
X030699Y053458D01*
X030694Y05346D01*
X030688Y053464D01*
X030682Y053469D01*
X030675Y053474D01*
X030669Y053481D01*
X030663Y053489D01*
Y053489D01*
X030662Y05349D01*
X030661Y053491D01*
X03066Y053493D01*
X030659Y053495D01*
X030658Y053497D01*
X030655Y053503D01*
X030653Y053511D01*
X03065Y053519D01*
X030649Y053529D01*
X030648Y053539D01*
X030682Y053542D01*
Y053542D01*
Y053541D01*
X030683Y05354D01*
Y053539D01*
X030684Y053535D01*
X030685Y05353D01*
X030686Y053525D01*
X030688Y053519D01*
X030691Y053513D01*
X030694Y053508D01*
X030694Y053507D01*
X030695Y053506D01*
X030697Y053503D01*
X0307Y0535D01*
X030704Y053497D01*
X030709Y053493D01*
X030715Y053489D01*
X030721Y053486D01*
X030722D01*
X030722Y053486D01*
X030723Y053485D01*
X030724Y053485D01*
X030728Y053484D01*
X030734Y053482D01*
X03074Y05348D01*
X030747Y053479D01*
X030755Y053478D01*
X030764Y053478D01*
X030768D01*
X030772Y053478D01*
X030777Y053479D01*
X030782Y05348D01*
X030789Y05348D01*
X030795Y053482D01*
X030801Y053484D01*
X030802Y053484D01*
X030804Y053485D01*
X030807Y053487D01*
X03081Y053488D01*
X030814Y053491D01*
X030818Y053494D01*
X030822Y053497D01*
X030825Y053501D01*
X030825Y053502D01*
X030826Y053503D01*
X030827Y053505D01*
X030829Y053509D01*
X030831Y053512D01*
X030832Y053516D01*
X030833Y05352D01*
X030833Y053525D01*
Y053525D01*
Y053527D01*
X030833Y05353D01*
X030832Y053533D01*
X030831Y053536D01*
X03083Y05354D01*
X030828Y053544D01*
X030825Y053548D01*
X030825Y053548D01*
X030823Y053549D01*
X030822Y053551D01*
X030819Y053553D01*
X030816Y053556D01*
X030811Y053559D01*
X030806Y053561D01*
X0308Y053564D01*
X0308Y053564D01*
X030798Y053565D01*
X030795Y053566D01*
X030793Y053566D01*
X03079Y053567D01*
X030787Y053568D01*
X030783Y053569D01*
X030779Y05357D01*
X030775Y053572D01*
X03077Y053573D01*
X030764Y053574D01*
X030758Y053576D01*
X030751Y053578D01*
X03075D01*
X030749Y053578D01*
X030747Y053578D01*
X030745Y053579D01*
X030742Y05358D01*
X030738Y053581D01*
X03073Y053583D01*
X030721Y053586D01*
X030712Y053589D01*
X030704Y053592D01*
X0307Y053593D01*
X030697Y053595D01*
X030697D01*
X030696Y053595D01*
X030694Y053597D01*
X03069Y053599D01*
X030686Y053602D01*
X030682Y053606D01*
X030677Y05361D01*
X030672Y053615D01*
X030668Y053621D01*
X030667Y053622D01*
X030666Y053624D01*
X030665Y053627D01*
X030663Y053631D01*
X030661Y053636D01*
X03066Y053642D01*
X030659Y053649D01*
X030658Y053655D01*
Y053656D01*
Y053656D01*
Y053657D01*
Y053659D01*
X030659Y053663D01*
X03066Y053668D01*
X030661Y053674D01*
X030663Y053681D01*
X030666Y053688D01*
X03067Y053695D01*
Y053695D01*
X03067Y053695D01*
X030672Y053698D01*
X030675Y053701D01*
X030679Y053705D01*
X030684Y053709D01*
X03069Y053714D01*
X030697Y053719D01*
X030705Y053723D01*
X030705D01*
X030706Y053723D01*
X030707Y053723D01*
X030709Y053724D01*
X030711Y053725D01*
X030714Y053726D01*
X03072Y053727D01*
X030727Y053729D01*
X030736Y053731D01*
X030745Y053732D01*
X030756Y053732D01*
X030761D01*
X030764Y053732D01*
D02*
G37*
G36*
X031475Y053728D02*
X03148Y053727D01*
X031486Y053726D01*
X031494Y053724D01*
X031501Y053722D01*
X031508Y053719D01*
X031508D01*
X031509Y053718D01*
X031511Y053717D01*
X031515Y053715D01*
X031519Y053712D01*
X031524Y053708D01*
X031528Y053703D01*
X031533Y053698D01*
X031537Y053692D01*
X031538Y053691D01*
X031539Y053689D01*
X03154Y053686D01*
X031542Y053681D01*
X031544Y053676D01*
X031546Y05367D01*
X031547Y053663D01*
X031548Y053657D01*
Y053656D01*
Y053653D01*
X031547Y05365D01*
X031546Y053646D01*
X031545Y05364D01*
X031543Y053635D01*
X031541Y053629D01*
X031538Y053624D01*
X031537Y053623D01*
X031536Y053621D01*
X031534Y053618D01*
X03153Y053615D01*
X031526Y053612D01*
X031522Y053608D01*
X031516Y053604D01*
X031509Y0536D01*
X03151D01*
X03151Y0536D01*
X031512Y0536D01*
X031513Y053599D01*
X031518Y053598D01*
X031523Y053595D01*
X03153Y053592D01*
X031536Y053588D01*
X031542Y053583D01*
X031548Y053577D01*
X031548Y053576D01*
X03155Y053574D01*
X031552Y053569D01*
X031554Y053564D01*
X031557Y053558D01*
X031559Y05355D01*
X031561Y053541D01*
X031561Y053532D01*
Y053531D01*
Y05353D01*
Y053528D01*
X031561Y053526D01*
X03156Y053523D01*
X03156Y053519D01*
X031559Y053515D01*
X031558Y053511D01*
X031555Y053501D01*
X031552Y053496D01*
X03155Y053491D01*
X031547Y053486D01*
X031543Y05348D01*
X031539Y053475D01*
X031534Y05347D01*
X031534Y05347D01*
X031533Y053469D01*
X031532Y053468D01*
X03153Y053466D01*
X031527Y053464D01*
X031524Y053462D01*
X03152Y05346D01*
X031516Y053458D01*
X031512Y053456D01*
X031506Y053453D01*
X031501Y053451D01*
X031495Y053449D01*
X031489Y053448D01*
X031482Y053446D01*
X031475Y053446D01*
X031467Y053445D01*
X031464D01*
X031461Y053446D01*
X031458Y053446D01*
X031455Y053446D01*
X031451Y053447D01*
X031446Y053448D01*
X031437Y05345D01*
X031427Y053454D01*
X031421Y053457D01*
X031417Y05346D01*
X031412Y053463D01*
X031407Y053467D01*
X031407Y053467D01*
X031406Y053468D01*
X031405Y053469D01*
X031403Y053471D01*
X031401Y053473D01*
X031399Y053476D01*
X031397Y053478D01*
X031394Y053482D01*
X031392Y053486D01*
X03139Y05349D01*
X031385Y0535D01*
X031382Y053511D01*
X03138Y053517D01*
X03138Y053523D01*
X031414Y053528D01*
Y053527D01*
X031414Y053527D01*
X031415Y053525D01*
X031415Y053523D01*
X031415Y053521D01*
X031416Y053518D01*
X031418Y053512D01*
X031421Y053505D01*
X031425Y053498D01*
X031429Y053491D01*
X031433Y053486D01*
X031434Y053485D01*
X031436Y053484D01*
X031439Y053482D01*
X031443Y05348D01*
X031448Y053477D01*
X031454Y053475D01*
X031461Y053474D01*
X031468Y053473D01*
X03147D01*
X031472Y053474D01*
X031476Y053474D01*
X031482Y053475D01*
X031488Y053477D01*
X031495Y05348D01*
X031502Y053484D01*
X031508Y05349D01*
X031509Y053491D01*
X031511Y053493D01*
X031514Y053497D01*
X031517Y053501D01*
X03152Y053507D01*
X031522Y053514D01*
X031524Y053522D01*
X031525Y053531D01*
Y053531D01*
Y053532D01*
Y053533D01*
X031525Y053535D01*
X031524Y053539D01*
X031523Y053545D01*
X031522Y053551D01*
X031519Y053557D01*
X031515Y053564D01*
X03151Y05357D01*
X031509Y053571D01*
X031507Y053572D01*
X031504Y053575D01*
X031499Y053578D01*
X031494Y05358D01*
X031487Y053583D01*
X031479Y053584D01*
X031471Y053585D01*
X031467D01*
X031464Y053585D01*
X031461Y053584D01*
X031457Y053584D01*
X031452Y053583D01*
X031447Y053582D01*
X031451Y053612D01*
X031453D01*
X031454Y053611D01*
X031459D01*
X031464Y053612D01*
X031469Y053613D01*
X031475Y053614D01*
X031482Y053616D01*
X031488Y053619D01*
X031495Y053622D01*
X031496D01*
X031496Y053623D01*
X031498Y053624D01*
X031501Y053627D01*
X031504Y053631D01*
X031507Y053636D01*
X03151Y053642D01*
X031512Y053649D01*
X031513Y053653D01*
Y053657D01*
Y053658D01*
Y053658D01*
Y053661D01*
X031512Y053664D01*
X031511Y053668D01*
X03151Y053673D01*
X031508Y053678D01*
X031504Y053683D01*
X0315Y053688D01*
X0315Y053689D01*
X031498Y05369D01*
X031495Y053692D01*
X031491Y053695D01*
X031486Y053697D01*
X031481Y053699D01*
X031474Y0537D01*
X031467Y053701D01*
X031464D01*
X03146Y0537D01*
X031455Y053699D01*
X03145Y053697D01*
X031445Y053695D01*
X031439Y053692D01*
X031434Y053688D01*
X031434Y053688D01*
X031432Y053686D01*
X03143Y053683D01*
X031427Y053679D01*
X031424Y053674D01*
X031421Y053667D01*
X031419Y05366D01*
X031417Y053651D01*
X031383Y053657D01*
Y053657D01*
X031384Y053659D01*
X031384Y05366D01*
X031384Y053663D01*
X031385Y053665D01*
X031386Y053669D01*
X031389Y053676D01*
X031393Y053685D01*
X031398Y053694D01*
X031404Y053702D01*
X031411Y05371D01*
X031412Y05371D01*
X031413Y053711D01*
X031414Y053711D01*
X031415Y053713D01*
X031417Y053714D01*
X03142Y053716D01*
X031423Y053717D01*
X031427Y053719D01*
X031435Y053723D01*
X031444Y053726D01*
X031455Y053728D01*
X03146Y053729D01*
X03147D01*
X031475Y053728D01*
D02*
G37*
G36*
X031292Y05345D02*
X031258D01*
Y053667D01*
X031257Y053667D01*
X031255Y053665D01*
X031253Y053663D01*
X031249Y05366D01*
X031245Y053656D01*
X031239Y053652D01*
X031232Y053648D01*
X031225Y053643D01*
X031225D01*
X031224Y053643D01*
X031222Y053641D01*
X031218Y053639D01*
X031213Y053637D01*
X031208Y053634D01*
X031202Y053631D01*
X031196Y053628D01*
X03119Y053626D01*
Y053659D01*
X03119D01*
X031191Y05366D01*
X031192Y05366D01*
X031194Y053661D01*
X031197Y053663D01*
X0312Y053664D01*
X031206Y053668D01*
X031214Y053673D01*
X031222Y053678D01*
X031231Y053685D01*
X031239Y053691D01*
X03124Y053692D01*
X03124Y053692D01*
X031241Y053693D01*
X031243Y053695D01*
X031247Y053699D01*
X031251Y053703D01*
X031256Y053709D01*
X031261Y053715D01*
X031266Y053722D01*
X03127Y053729D01*
X031292D01*
Y05345D01*
D02*
G37*
G36*
X030512Y053727D02*
X030515D01*
X030522Y053726D01*
X03053Y053725D01*
X030539Y053724D01*
X030547Y053722D01*
X030555Y053719D01*
X030555D01*
X030556Y053719D01*
X030558Y053717D01*
X030562Y053715D01*
X030566Y053713D01*
X03057Y053709D01*
X030576Y053705D01*
X03058Y053699D01*
X030585Y053693D01*
X030585Y053692D01*
X030586Y05369D01*
X030588Y053687D01*
X03059Y053682D01*
X030592Y053676D01*
X030594Y05367D01*
X030596Y053663D01*
X030596Y053657D01*
Y053656D01*
Y053654D01*
X030596Y05365D01*
X030595Y053646D01*
X030594Y05364D01*
X030592Y053635D01*
X030589Y053629D01*
X030586Y053623D01*
X030586Y053622D01*
X030584Y053621D01*
X030582Y053618D01*
X030579Y053614D01*
X030575Y05361D01*
X03057Y053606D01*
X030564Y053602D01*
X030557Y053598D01*
X030558D01*
X030558Y053598D01*
X03056Y053597D01*
X030561Y053596D01*
X030566Y053595D01*
X030572Y053592D01*
X030578Y053588D01*
X030584Y053584D01*
X03059Y053579D01*
X030596Y053572D01*
X030596Y053572D01*
X030598Y053569D01*
X030601Y053565D01*
X030603Y053561D01*
X030605Y053554D01*
X030608Y053547D01*
X030609Y053539D01*
X03061Y053531D01*
Y05353D01*
Y05353D01*
Y053527D01*
X030609Y053523D01*
X030609Y053519D01*
X030608Y053513D01*
X030606Y053507D01*
X030604Y053501D01*
X030601Y053494D01*
X030601Y053493D01*
X0306Y053491D01*
X030598Y053488D01*
X030596Y053484D01*
X030592Y05348D01*
X030589Y053476D01*
X030585Y053472D01*
X030581Y053468D01*
X03058Y053468D01*
X030579Y053466D01*
X030576Y053465D01*
X030572Y053463D01*
X030568Y053461D01*
X030563Y053458D01*
X030557Y053456D01*
X03055Y053454D01*
X03055D01*
X030547Y053454D01*
X030543Y053453D01*
X030538Y053452D01*
X030532Y053452D01*
X030524Y053451D01*
X030515Y05345D01*
X030506Y05345D01*
X0304D01*
Y053727D01*
X030509D01*
X030512Y053727D01*
D02*
G37*
G36*
X031691Y053728D02*
X031694Y053728D01*
X031698Y053727D01*
X031702Y053727D01*
X031706Y053726D01*
X031716Y053723D01*
X031725Y05372D01*
X03173Y053717D01*
X031735Y053715D01*
X031739Y053711D01*
X031744Y053707D01*
X031744Y053707D01*
X031745Y053707D01*
X031746Y053705D01*
X031747Y053704D01*
X031749Y053701D01*
X031751Y053699D01*
X031755Y053693D01*
X031759Y053685D01*
X031763Y053677D01*
X031765Y053667D01*
X031766Y053661D01*
X031766Y053656D01*
Y053655D01*
Y053655D01*
Y053653D01*
X031766Y053649D01*
X031765Y053644D01*
X031764Y053639D01*
X031762Y053633D01*
X031759Y053628D01*
X031756Y053622D01*
X031755Y053621D01*
X031754Y05362D01*
X031751Y053617D01*
X031748Y053614D01*
X031744Y05361D01*
X031739Y053607D01*
X031733Y053603D01*
X031725Y0536D01*
X031726D01*
X031727Y0536D01*
X031728Y053599D01*
X031729Y053598D01*
X031734Y053596D01*
X03174Y053594D01*
X031746Y05359D01*
X031752Y053585D01*
X031758Y05358D01*
X031764Y053573D01*
Y053573D01*
X031764Y053572D01*
X031766Y05357D01*
X031768Y053566D01*
X031771Y053561D01*
X031773Y053554D01*
X031775Y053547D01*
X031777Y053538D01*
X031777Y053529D01*
Y053529D01*
Y053527D01*
Y053525D01*
X031777Y053523D01*
X031777Y05352D01*
X031776Y053517D01*
X031775Y053513D01*
X031774Y053508D01*
X031771Y053499D01*
X031769Y053494D01*
X031767Y053489D01*
X031764Y053484D01*
X031761Y053479D01*
X031757Y053474D01*
X031752Y053469D01*
X031752Y053469D01*
X031751Y053468D01*
X03175Y053467D01*
X031748Y053466D01*
X031745Y053464D01*
X031742Y053462D01*
X031739Y05346D01*
X031735Y053457D01*
X03173Y053455D01*
X031725Y053453D01*
X031719Y053451D01*
X031714Y053449D01*
X031707Y053448D01*
X0317Y053446D01*
X031694Y053446D01*
X031686Y053445D01*
X031682D01*
X031679Y053446D01*
X031676Y053446D01*
X031672Y053446D01*
X031667Y053447D01*
X031662Y053448D01*
X031652Y053451D01*
X031646Y053453D01*
X031641Y053455D01*
X031635Y053458D01*
X031629Y053461D01*
X031624Y053465D01*
X031619Y053469D01*
X031619Y05347D01*
X031618Y05347D01*
X031617Y053472D01*
X031615Y053474D01*
X031614Y053476D01*
X031611Y053479D01*
X031609Y053482D01*
X031607Y053486D01*
X031605Y05349D01*
X031603Y053495D01*
X031599Y053505D01*
X031597Y053511D01*
X031596Y053517D01*
X031595Y053523D01*
X031595Y05353D01*
Y05353D01*
Y053531D01*
Y053533D01*
X031595Y053534D01*
Y053537D01*
X031595Y053539D01*
X031596Y053546D01*
X031598Y053553D01*
X0316Y05356D01*
X031604Y053568D01*
X031608Y053575D01*
Y053576D01*
X031609Y053576D01*
X031611Y053578D01*
X031614Y053581D01*
X031618Y053585D01*
X031624Y053589D01*
X031631Y053594D01*
X031638Y053597D01*
X031648Y0536D01*
X031647D01*
X031647Y0536D01*
X031646Y053601D01*
X031644Y053602D01*
X03164Y053603D01*
X031635Y053606D01*
X03163Y053609D01*
X031625Y053613D01*
X03162Y053617D01*
X031616Y053622D01*
X031615Y053623D01*
X031614Y053624D01*
X031613Y053628D01*
X031611Y053632D01*
X031609Y053637D01*
X031607Y053643D01*
X031606Y05365D01*
X031606Y053657D01*
Y053657D01*
Y053658D01*
Y05366D01*
X031606Y053662D01*
X031607Y053665D01*
X031607Y053668D01*
X031609Y053675D01*
X031611Y053683D01*
X031615Y053691D01*
X031617Y053695D01*
X03162Y0537D01*
X031624Y053704D01*
X031627Y053708D01*
X031628Y053708D01*
X031629Y053709D01*
X03163Y05371D01*
X031631Y053711D01*
X031633Y053713D01*
X031636Y053714D01*
X031639Y053716D01*
X031643Y053718D01*
X031647Y05372D01*
X031651Y053722D01*
X031656Y053724D01*
X031661Y053725D01*
X031672Y053728D01*
X031679Y053728D01*
X031685Y053729D01*
X031689D01*
X031691Y053728D01*
D02*
G37*
G36*
X029499Y053637D02*
X029388D01*
X029373Y053562D01*
X029374Y053562D01*
X029374Y053562D01*
X029376Y053563D01*
X029378Y053565D01*
X02938Y053566D01*
X029383Y053567D01*
X029389Y053571D01*
X029397Y053574D01*
X029406Y053577D01*
X029416Y053579D01*
X029421Y053579D01*
X029429D01*
X029432Y053579D01*
X029435Y053579D01*
X029439Y053578D01*
X029443Y053577D01*
X029447Y053576D01*
X029457Y053573D01*
X029462Y053571D01*
X029467Y053569D01*
X029472Y053566D01*
X029477Y053562D01*
X029482Y053558D01*
X029487Y053554D01*
X029488Y053554D01*
X029488Y053553D01*
X02949Y053552D01*
X029491Y05355D01*
X029493Y053547D01*
X029495Y053544D01*
X029498Y05354D01*
X0295Y053536D01*
X029502Y053532D01*
X029504Y053527D01*
X029506Y053522D01*
X029508Y053516D01*
X02951Y05351D01*
X029511Y053503D01*
X029512Y053496D01*
X029512Y053489D01*
Y053489D01*
Y053488D01*
Y053485D01*
X029512Y053483D01*
X029512Y053479D01*
X029511Y053476D01*
X02951Y053471D01*
X02951Y053467D01*
X029507Y053457D01*
X029503Y053446D01*
X029501Y05344D01*
X029498Y053435D01*
X029494Y053429D01*
X02949Y053424D01*
X02949Y053424D01*
X029489Y053423D01*
X029488Y053421D01*
X029485Y053419D01*
X029483Y053417D01*
X029479Y053413D01*
X029475Y053411D01*
X029471Y053407D01*
X029466Y053404D01*
X029461Y053401D01*
X029455Y053398D01*
X029448Y053396D01*
X029441Y053394D01*
X029434Y053392D01*
X029426Y053391D01*
X029417Y05339D01*
X029414D01*
X029411Y053391D01*
X029408Y053391D01*
X029404Y053392D01*
X0294Y053392D01*
X029395Y053393D01*
X029385Y053396D01*
X029375Y053399D01*
X02937Y053402D01*
X029365Y053404D01*
X02936Y053408D01*
X029355Y053411D01*
X029355Y053412D01*
X029354Y053412D01*
X029353Y053414D01*
X029352Y053415D01*
X02935Y053417D01*
X029348Y05342D01*
X029345Y053423D01*
X029343Y053427D01*
X029341Y05343D01*
X029338Y053435D01*
X029334Y053444D01*
X02933Y053455D01*
X029329Y053461D01*
X029328Y053468D01*
X029364Y053471D01*
Y05347D01*
Y053469D01*
X029364Y053468D01*
X029365Y053466D01*
X029366Y053462D01*
X029368Y053456D01*
X02937Y05345D01*
X029373Y053443D01*
X029377Y053437D01*
X029382Y053431D01*
X029383Y053431D01*
X029384Y053429D01*
X029388Y053427D01*
X029392Y053425D01*
X029397Y053423D01*
X029403Y053421D01*
X02941Y053419D01*
X029417Y053419D01*
X02942D01*
X029421Y053419D01*
X029426Y053419D01*
X029432Y053421D01*
X029439Y053423D01*
X029445Y053426D01*
X029453Y053431D01*
X029456Y053434D01*
X029459Y053437D01*
X029459Y053437D01*
X02946Y053438D01*
X029461Y053439D01*
X029462Y05344D01*
X029465Y053445D01*
X029468Y05345D01*
X029471Y053457D01*
X029473Y053465D01*
X029475Y053475D01*
X029476Y053481D01*
Y053486D01*
Y053487D01*
Y053488D01*
Y053489D01*
X029476Y053491D01*
Y053494D01*
X029475Y053496D01*
X029474Y053503D01*
X029472Y05351D01*
X029469Y053518D01*
X029465Y053525D01*
X02946Y053532D01*
Y053532D01*
X029459Y053533D01*
X029457Y053535D01*
X029453Y053538D01*
X029449Y053541D01*
X029442Y053544D01*
X029435Y053546D01*
X029427Y053548D01*
X029422Y053549D01*
X029414D01*
X029411Y053549D01*
X029407Y053548D01*
X029402Y053547D01*
X029397Y053546D01*
X029392Y053544D01*
X029387Y053542D01*
X029386Y053541D01*
X029385Y05354D01*
X029382Y053538D01*
X029379Y053536D01*
X029376Y053534D01*
X029373Y05353D01*
X029369Y053526D01*
X029366Y053522D01*
X029334Y053526D01*
X029361Y053669D01*
X029499D01*
Y053637D01*
D02*
G37*
G36*
X029167Y053677D02*
X02917D01*
X029174Y053677D01*
X029179Y053676D01*
X029184Y053675D01*
X029194Y053673D01*
X029206Y05367D01*
X029218Y053665D01*
X029224Y053662D01*
X02923Y053659D01*
X02923Y053659D01*
X029231Y053658D01*
X029232Y053657D01*
X029235Y053656D01*
X029237Y053654D01*
X02924Y053652D01*
X029247Y053646D01*
X029255Y053639D01*
X029263Y05363D01*
X02927Y053619D01*
X029277Y053608D01*
Y053607D01*
X029277Y053606D01*
X029278Y053605D01*
X029279Y053602D01*
X029281Y053599D01*
X029282Y053595D01*
X029283Y053591D01*
X029285Y053586D01*
X029286Y053581D01*
X029288Y053575D01*
X029289Y053569D01*
X029291Y053563D01*
X029292Y053549D01*
X029293Y053534D01*
Y053534D01*
Y053532D01*
Y053531D01*
Y053528D01*
X029293Y053525D01*
Y053522D01*
X029292Y053518D01*
X029292Y053514D01*
X029291Y053504D01*
X029289Y053494D01*
X029286Y053483D01*
X029283Y053472D01*
Y053472D01*
X029282Y053471D01*
X029281Y053469D01*
X029281Y053468D01*
X029279Y053465D01*
X029278Y053463D01*
X029275Y053456D01*
X029271Y053449D01*
X029265Y053441D01*
X029259Y053433D01*
X029251Y053425D01*
X029252D01*
X029253Y053424D01*
X029254Y053423D01*
X029256Y053422D01*
X029258Y05342D01*
X029261Y053419D01*
X029267Y053415D01*
X029274Y053411D01*
X029282Y053406D01*
X02929Y053402D01*
X029298Y053399D01*
X029287Y053374D01*
X029287D01*
X029286Y053374D01*
X029285Y053375D01*
X029282Y053376D01*
X029279Y053377D01*
X029276Y053378D01*
X029273Y05338D01*
X029269Y053382D01*
X02926Y053387D01*
X02925Y053392D01*
X029239Y0534D01*
X029228Y053408D01*
X029227D01*
X029226Y053407D01*
X029224Y053406D01*
X029222Y053405D01*
X029219Y053404D01*
X029216Y053402D01*
X029212Y053401D01*
X029208Y053399D01*
X029203Y053398D01*
X029198Y053396D01*
X029186Y053393D01*
X029173Y053391D01*
X029166Y053391D01*
X029159Y05339D01*
X029156D01*
X029153Y053391D01*
X02915D01*
X029146Y053391D01*
X029141Y053392D01*
X029137Y053393D01*
X029126Y053395D01*
X029115Y053398D01*
X029103Y053402D01*
X029097Y053405D01*
X029091Y053409D01*
X029091Y053409D01*
X02909Y053409D01*
X029088Y053411D01*
X029086Y053412D01*
X029083Y053414D01*
X02908Y053416D01*
X029074Y053422D01*
X029066Y053429D01*
X029058Y053438D01*
X029051Y053448D01*
X029044Y053459D01*
Y05346D01*
X029043Y053461D01*
X029042Y053463D01*
X029042Y053465D01*
X02904Y053468D01*
X029039Y053472D01*
X029037Y053476D01*
X029036Y053481D01*
X029034Y053486D01*
X029033Y053492D01*
X029032Y053498D01*
X02903Y053505D01*
X029028Y053519D01*
X029028Y053534D01*
Y053534D01*
Y053536D01*
Y053538D01*
X029028Y05354D01*
Y053544D01*
X029028Y053548D01*
X029029Y053553D01*
X02903Y053558D01*
X029032Y05357D01*
X029034Y053583D01*
X029038Y053596D01*
X029044Y053609D01*
X029044Y053609D01*
X029045Y05361D01*
X029046Y053612D01*
X029047Y053614D01*
X029049Y053617D01*
X029051Y05362D01*
X029056Y053628D01*
X029063Y053636D01*
X029071Y053644D01*
X02908Y053653D01*
X029091Y05366D01*
X029092Y05366D01*
X029093Y053661D01*
X029095Y053662D01*
X029097Y053663D01*
X0291Y053664D01*
X029103Y053666D01*
X029107Y053667D01*
X029111Y053669D01*
X029117Y05367D01*
X029122Y053672D01*
X029133Y053675D01*
X029146Y053677D01*
X029153Y053678D01*
X029164D01*
X029167Y053677D01*
D02*
G37*
G36*
X035305Y03912D02*
X035319Y039122D01*
X035334Y039122D01*
X035334D01*
X035336D01*
X035338D01*
X03534Y039122D01*
X035344D01*
X035348Y039122D01*
X035353Y039121D01*
X035358Y03912D01*
X03537Y039118D01*
X035383Y039116D01*
X035396Y039112D01*
X035409Y039106D01*
X035409Y039106D01*
X03541Y039105D01*
X035412Y039104D01*
X035414Y039103D01*
X035417Y039101D01*
X03542Y039099D01*
X035428Y039094D01*
X035436Y039087D01*
X035444Y039079D01*
X035453Y03907D01*
X03546Y039059D01*
X03546Y039058D01*
X035461Y039057D01*
X035462Y039055D01*
X035463Y039053D01*
X035464Y03905D01*
X035466Y039047D01*
X035467Y039043D01*
X035469Y039039D01*
X03547Y039033D01*
X035472Y039028D01*
X035475Y039017D01*
X035477Y039004D01*
X035478Y038997D01*
Y038986D01*
X035477Y038983D01*
Y03898D01*
X035477Y038976D01*
X035476Y038971D01*
X035475Y038966D01*
X035473Y038956D01*
X03547Y038944D01*
X035465Y038932D01*
X035462Y038926D01*
X035459Y03892D01*
X035459Y03892D01*
X035458Y038919D01*
X035457Y038918D01*
X035456Y038915D01*
X035454Y038913D01*
X035452Y03891D01*
X035446Y038903D01*
X035439Y038895D01*
X03543Y038887D01*
X035419Y03888D01*
X035408Y038873D01*
X035407D01*
X035406Y038873D01*
X035405Y038872D01*
X035402Y038871D01*
X035399Y038869D01*
X035395Y038868D01*
X035391Y038867D01*
X035386Y038865D01*
X035381Y038864D01*
X035375Y038862D01*
X035369Y038861D01*
X035363Y038859D01*
X035349Y038858D01*
X035334Y038857D01*
X035334D01*
X035332D01*
X035331D01*
X035328D01*
X035325Y038857D01*
X035322D01*
X035318Y038858D01*
X035314Y038858D01*
X035304Y038859D01*
X035294Y038861D01*
X035283Y038864D01*
X035272Y038867D01*
X035272D01*
X035271Y038868D01*
X035269Y038869D01*
X035268Y038869D01*
X035265Y038871D01*
X035263Y038872D01*
X035256Y038875D01*
X035249Y038879D01*
X035241Y038885D01*
X035233Y038891D01*
X035225Y038899D01*
Y038898D01*
X035224Y038897D01*
X035223Y038896D01*
X035222Y038894D01*
X03522Y038892D01*
X035219Y038889D01*
X035215Y038883D01*
X035211Y038876D01*
X035209Y038873D01*
X03521Y038872D01*
X035212Y03887D01*
X035214Y038867D01*
X035217Y038863D01*
X03522Y038859D01*
X035222Y038854D01*
X035225Y038849D01*
X035227Y038843D01*
X035229Y038837D01*
X035231Y038831D01*
X035232Y038824D01*
X035233Y038817D01*
X035234Y038809D01*
Y038805D01*
X035233Y038802D01*
X035233Y038799D01*
X035232Y038795D01*
X035231Y038791D01*
X03523Y038786D01*
X035229Y038781D01*
X035227Y038775D01*
X035225Y03877D01*
X035222Y038764D01*
X035219Y038759D01*
X035215Y038753D01*
X035211Y038748D01*
X035206Y038743D01*
X035206Y038743D01*
X035205Y038742D01*
X035203Y038741D01*
X035201Y038739D01*
X035198Y038737D01*
X035195Y038735D01*
X035191Y038733D01*
X035186Y03873D01*
X035181Y038728D01*
X035175Y038725D01*
X035169Y038723D01*
X035162Y038721D01*
X035154Y03872D01*
X035146Y038719D01*
X035138Y038718D01*
X035129Y038717D01*
X035128D01*
X035127D01*
X035124D01*
X03512Y038718D01*
Y038868D01*
X035119D01*
X035118D01*
X035117Y038868D01*
X035114D01*
X035111Y038867D01*
X035108Y038867D01*
X035101Y038865D01*
X035093Y038863D01*
X035084Y03886D01*
X035076Y038855D01*
X035069Y03885D01*
Y038849D01*
X035068Y038849D01*
X035066Y038847D01*
X035063Y038843D01*
X03506Y038838D01*
X035057Y038832D01*
X035054Y038825D01*
X035052Y038816D01*
X035052Y038812D01*
X035052Y038807D01*
Y038804D01*
X035052Y0388D01*
X035053Y038796D01*
X035054Y038791D01*
X035056Y038786D01*
X035058Y03878D01*
X035061Y038775D01*
X035062Y038775D01*
X035063Y038773D01*
X035066Y03877D01*
X035069Y038768D01*
X035073Y038764D01*
X035079Y038761D01*
X035085Y038757D01*
X035093Y038754D01*
X035089Y038719D01*
X035088D01*
X035087Y038719D01*
X035086Y038719D01*
X035083Y03872D01*
X035081Y038721D01*
X035078Y038723D01*
X035071Y038726D01*
X035063Y03873D01*
X035055Y038735D01*
X035048Y038742D01*
X03504Y03875D01*
Y03875D01*
X03504Y038751D01*
X035039Y038752D01*
X035038Y038754D01*
X035036Y038756D01*
X035035Y038759D01*
X035034Y038762D01*
X035032Y038766D01*
X03503Y03877D01*
X035029Y038774D01*
X035026Y038784D01*
X035024Y038795D01*
X035024Y038807D01*
Y038812D01*
X035024Y038814D01*
X035024Y038818D01*
X035025Y038822D01*
X035026Y038827D01*
X035027Y038833D01*
X03503Y038844D01*
X035032Y03885D01*
X035035Y038855D01*
X035038Y038861D01*
X035042Y038867D01*
X035046Y038872D01*
X03505Y038877D01*
X035051Y038878D01*
X035052Y038879D01*
X035053Y03888D01*
X035056Y038881D01*
X035058Y038883D01*
X035062Y038885D01*
X035066Y038888D01*
X03507Y03889D01*
X035075Y038893D01*
X035081Y038895D01*
X035087Y038897D01*
X035094Y038899D01*
X035101Y038901D01*
X035109Y038902D01*
X035118Y038903D01*
X035127Y038903D01*
X035127D01*
X035129D01*
X035131D01*
X035135Y038903D01*
X035139Y038902D01*
X035144Y038902D01*
X03515Y038901D01*
X035155Y0389D01*
X035168Y038897D01*
X035175Y038895D01*
X035182Y038892D01*
X035187Y03889D01*
X035187Y03889D01*
X035192Y0389D01*
X0352Y038911D01*
X035208Y038922D01*
Y038923D01*
X035207Y038924D01*
X035206Y038926D01*
X035205Y038928D01*
X035204Y038931D01*
X035202Y038934D01*
X035201Y038938D01*
X035199Y038942D01*
X035198Y038947D01*
X035196Y038952D01*
X035193Y038964D01*
X035191Y038977D01*
X035191Y038984D01*
X03519Y038991D01*
Y038994D01*
X035191Y038997D01*
Y039D01*
X035191Y039004D01*
X035192Y039009D01*
X035193Y039013D01*
X035195Y039024D01*
X035198Y039035D01*
X035202Y039047D01*
X035205Y039053D01*
X035209Y039059D01*
X035209Y039059D01*
X035209Y03906D01*
X035211Y039062D01*
X035212Y039064D01*
X035214Y039067D01*
X035216Y03907D01*
X035222Y039076D01*
X035229Y039084D01*
X035231Y039086D01*
X035187D01*
Y038955D01*
X035154D01*
Y039086D01*
X035028D01*
Y039122D01*
X035305D01*
Y03912D01*
D02*
G37*
G36*
X035404Y038795D02*
X035405Y038794D01*
X035405Y038793D01*
X035407Y038791D01*
X035408Y038788D01*
X035409Y038786D01*
X035413Y038779D01*
X035418Y038771D01*
X035423Y038763D01*
X03543Y038754D01*
X035437Y038746D01*
X035437Y038746D01*
X035437Y038745D01*
X035439Y038744D01*
X03544Y038742D01*
X035444Y038739D01*
X035449Y038734D01*
X035454Y038729D01*
X035461Y038724D01*
X035467Y038719D01*
X035474Y038715D01*
Y038693D01*
X035229D01*
Y03867D01*
X035279D01*
X035299Y038636D01*
X035229D01*
Y038602D01*
X035203D01*
Y038636D01*
X035084D01*
X035084D01*
X035082D01*
X03508D01*
X035077Y038636D01*
X03507Y038635D01*
X035068Y038635D01*
X035066Y038634D01*
X035065Y038634D01*
X035063Y038633D01*
X035061Y038631D01*
X035059Y038628D01*
X035059Y038628D01*
X035058Y038626D01*
X035057Y038622D01*
X035057Y038617D01*
Y038613D01*
X035057Y038611D01*
Y038608D01*
X035058Y038605D01*
X035058Y038602D01*
X035028Y038597D01*
Y038598D01*
X035028Y0386D01*
X035027Y038602D01*
X035027Y038606D01*
X035026Y03861D01*
X035026Y038614D01*
X035025Y038623D01*
Y038626D01*
X035026Y03863D01*
X035026Y038634D01*
X035026Y038638D01*
X035028Y038643D01*
X035029Y038648D01*
X035031Y038652D01*
X035031Y038652D01*
X035032Y038654D01*
X035033Y038655D01*
X035035Y038658D01*
X035037Y03866D01*
X03504Y038662D01*
X035043Y038665D01*
X035046Y038666D01*
X035047D01*
X035048Y038667D01*
X035051Y038667D01*
X035055Y038668D01*
X03506Y038669D01*
X035064Y038669D01*
X035067D01*
X035072Y03867D01*
X035076Y03867D01*
X035081D01*
X035087D01*
X035203D01*
Y038693D01*
X035195D01*
Y038727D01*
X035412D01*
X035412Y038728D01*
X03541Y03873D01*
X035408Y038732D01*
X035405Y038736D01*
X035401Y038741D01*
X035397Y038746D01*
X035393Y038753D01*
X035389Y03876D01*
Y03876D01*
X035388Y038761D01*
X035387Y038763D01*
X035385Y038767D01*
X035382Y038772D01*
X035379Y038778D01*
X035377Y038784D01*
X035374Y03879D01*
X035371Y038796D01*
X035404D01*
Y038795D01*
D02*
G37*
G36*
X035305Y038342D02*
X035305Y038336D01*
X035305Y038329D01*
X035304Y038322D01*
X035303Y038315D01*
X035303Y038309D01*
Y038308D01*
X035302Y038305D01*
X035301Y038302D01*
X0353Y038297D01*
X035298Y038292D01*
X035295Y038286D01*
X035293Y03828D01*
X035289Y038275D01*
X035289Y038274D01*
X035288Y038272D01*
X035285Y03827D01*
X035283Y038267D01*
X035279Y038263D01*
X035274Y038259D01*
X035269Y038255D01*
X035263Y038252D01*
X035262Y038252D01*
X03526Y038251D01*
X035257Y038249D01*
X035252Y038248D01*
X035246Y038247D01*
X03524Y038245D01*
X035232Y038244D01*
X035225Y038244D01*
X035224D01*
X035223D01*
X035222D01*
X035219Y038244D01*
X035216Y038245D01*
X035212Y038245D01*
X035208Y038246D01*
X035204Y038247D01*
X035195Y038249D01*
X03519Y038251D01*
X035185Y038253D01*
X03518Y038256D01*
X035175Y038259D01*
X03517Y038263D01*
X035165Y038267D01*
X035165Y038267D01*
X035164Y038268D01*
X035163Y038269D01*
X035161Y038271D01*
X035159Y038274D01*
X035157Y038277D01*
X035155Y038281D01*
X035153Y038285D01*
X035151Y03829D01*
X035148Y038296D01*
X035146Y038303D01*
X035145Y03831D01*
X035143Y038318D01*
X035142Y038327D01*
X035141Y038337D01*
X035141Y038348D01*
Y038419D01*
X035028D01*
Y038456D01*
X035305D01*
Y038342D01*
D02*
G37*
G36*
X010981Y023334D02*
X010984Y023334D01*
X010987Y023334D01*
X010992Y023333D01*
X010996Y023332D01*
X011006Y02333D01*
X011016Y023326D01*
X011021Y023323D01*
X011026Y02332D01*
X01103Y023317D01*
X011035Y023313D01*
X011036Y023313D01*
X011036Y023312D01*
X011038Y023311D01*
X011039Y023309D01*
X011041Y023307D01*
X011043Y023304D01*
X011045Y023301D01*
X011048Y023298D01*
X01105Y023294D01*
X011052Y02329D01*
X011057Y02328D01*
X01106Y023269D01*
X011062Y023263D01*
X011062Y023257D01*
X011028Y023252D01*
Y023253D01*
X011028Y023253D01*
X011028Y023255D01*
X011027Y023257D01*
X011027Y023259D01*
X011026Y023262D01*
X011024Y023268D01*
X011021Y023275D01*
X011018Y023282D01*
X011014Y023289D01*
X011009Y023294D01*
X011008Y023295D01*
X011006Y023296D01*
X011003Y023298D01*
X010999Y0233D01*
X010994Y023303D01*
X010988Y023305D01*
X010981Y023306D01*
X010974Y023307D01*
X010972D01*
X01097Y023306D01*
X010966Y023306D01*
X01096Y023305D01*
X010954Y023303D01*
X010947Y0233D01*
X01094Y023296D01*
X010934Y02329D01*
X010933Y023289D01*
X010931Y023287D01*
X010929Y023283D01*
X010925Y023279D01*
X010922Y023273D01*
X01092Y023266D01*
X010918Y023258D01*
X010917Y023249D01*
Y023249D01*
Y023248D01*
Y023247D01*
X010917Y023245D01*
X010918Y02324D01*
X010919Y023235D01*
X010921Y023229D01*
X010923Y023222D01*
X010927Y023216D01*
X010933Y02321D01*
X010933Y023209D01*
X010935Y023208D01*
X010939Y023205D01*
X010943Y023202D01*
X010949Y0232D01*
X010955Y023197D01*
X010963Y023196D01*
X010971Y023195D01*
X010975D01*
X010978Y023195D01*
X010981Y023196D01*
X010985Y023196D01*
X01099Y023197D01*
X010996Y023198D01*
X010992Y023168D01*
X01099D01*
X010988Y023169D01*
X010983D01*
X010978Y023168D01*
X010973Y023167D01*
X010967Y023166D01*
X01096Y023164D01*
X010954Y023161D01*
X010947Y023157D01*
X010947D01*
X010946Y023157D01*
X010944Y023155D01*
X010941Y023153D01*
X010938Y023149D01*
X010935Y023144D01*
X010932Y023138D01*
X01093Y023131D01*
X010929Y023127D01*
Y023123D01*
Y023122D01*
Y023122D01*
Y023119D01*
X01093Y023116D01*
X010931Y023112D01*
X010933Y023107D01*
X010935Y023102D01*
X010938Y023097D01*
X010942Y023092D01*
X010943Y023091D01*
X010945Y02309D01*
X010947Y023088D01*
X010951Y023085D01*
X010956Y023083D01*
X010961Y023081D01*
X010968Y02308D01*
X010975Y023079D01*
X010978D01*
X010982Y02308D01*
X010987Y023081D01*
X010992Y023082D01*
X010997Y023085D01*
X011003Y023088D01*
X011008Y023092D01*
X011008Y023092D01*
X01101Y023094D01*
X011012Y023097D01*
X011015Y023101D01*
X011018Y023106D01*
X011021Y023113D01*
X011023Y02312D01*
X011025Y023129D01*
X011059Y023123D01*
Y023123D01*
X011058Y023121D01*
X011058Y02312D01*
X011058Y023117D01*
X011057Y023115D01*
X011056Y023111D01*
X011053Y023104D01*
X011049Y023095D01*
X011044Y023086D01*
X011038Y023078D01*
X011031Y02307D01*
X01103Y02307D01*
X01103Y023069D01*
X011028Y023068D01*
X011027Y023067D01*
X011025Y023066D01*
X011022Y023064D01*
X011019Y023062D01*
X011016Y02306D01*
X011008Y023057D01*
X010998Y023054D01*
X010987Y023052D01*
X010982Y023051D01*
X010972D01*
X010967Y023052D01*
X010962Y023052D01*
X010956Y023054D01*
X010949Y023056D01*
X010941Y023058D01*
X010934Y023061D01*
X010934D01*
X010933Y023062D01*
X010931Y023063D01*
X010927Y023065D01*
X010923Y023068D01*
X010919Y023072D01*
X010914Y023076D01*
X010909Y023082D01*
X010905Y023088D01*
X010904Y023089D01*
X010903Y023091D01*
X010902Y023094D01*
X0109Y023099D01*
X010898Y023104D01*
X010896Y02311D01*
X010895Y023117D01*
X010894Y023123D01*
Y023124D01*
Y023127D01*
X010895Y02313D01*
X010896Y023134D01*
X010897Y023139D01*
X010899Y023145D01*
X010901Y023151D01*
X010904Y023156D01*
X010905Y023157D01*
X010906Y023159D01*
X010908Y023161D01*
X010912Y023165D01*
X010916Y023168D01*
X010921Y023172D01*
X010926Y023176D01*
X010933Y02318D01*
X010933D01*
X010932Y02318D01*
X010931Y02318D01*
X010929Y023181D01*
X010925Y023182D01*
X010919Y023185D01*
X010913Y023188D01*
X010906Y023192D01*
X0109Y023197D01*
X010894Y023203D01*
X010894Y023204D01*
X010892Y023206D01*
X01089Y02321D01*
X010888Y023216D01*
X010885Y023222D01*
X010883Y02323D01*
X010881Y023238D01*
X010881Y023248D01*
Y023249D01*
Y02325D01*
Y023252D01*
X010881Y023254D01*
X010882Y023257D01*
X010882Y023261D01*
X010883Y023265D01*
X010884Y023269D01*
X010887Y023279D01*
X01089Y023284D01*
X010892Y023289D01*
X010895Y023294D01*
X010899Y023299D01*
X010903Y023305D01*
X010908Y023309D01*
X010908Y02331D01*
X010909Y023311D01*
X010911Y023312D01*
X010913Y023313D01*
X010915Y023315D01*
X010918Y023317D01*
X010922Y02332D01*
X010926Y023322D01*
X010931Y023324D01*
X010936Y023327D01*
X010941Y023329D01*
X010947Y023331D01*
X010953Y023332D01*
X01096Y023334D01*
X010967Y023334D01*
X010975Y023335D01*
X010978D01*
X010981Y023334D01*
D02*
G37*
G36*
X011427D02*
X011431D01*
X011435Y023334D01*
X01144Y023334D01*
X01145Y023332D01*
X01146Y02333D01*
X011471Y023328D01*
X011481Y023324D01*
X011481D01*
X011482Y023324D01*
X011483Y023323D01*
X011485Y023322D01*
X01149Y023319D01*
X011495Y023316D01*
X011502Y023311D01*
X011508Y023305D01*
X011515Y023299D01*
X011521Y023291D01*
Y023291D01*
X011522Y02329D01*
X011522Y023289D01*
X011523Y023287D01*
X011524Y023285D01*
X011525Y023283D01*
X011528Y023277D01*
X011531Y023269D01*
X011533Y023261D01*
X011535Y023251D01*
X011536Y023241D01*
X011501Y023238D01*
Y023238D01*
Y023238D01*
X011501Y02324D01*
Y023241D01*
X0115Y023245D01*
X011499Y02325D01*
X011497Y023255D01*
X011496Y023261D01*
X011493Y023267D01*
X01149Y023272D01*
X01149Y023273D01*
X011488Y023274D01*
X011486Y023277D01*
X011483Y02328D01*
X011479Y023283D01*
X011475Y023287D01*
X011469Y023291D01*
X011462Y023294D01*
X011462D01*
X011461Y023294D01*
X01146Y023295D01*
X011459Y023295D01*
X011455Y023296D01*
X01145Y023298D01*
X011443Y023299D01*
X011436Y023301D01*
X011428Y023301D01*
X011419Y023302D01*
X011416D01*
X011412Y023301D01*
X011407Y023301D01*
X011401Y0233D01*
X011395Y023299D01*
X011388Y023298D01*
X011382Y023296D01*
X011382Y023295D01*
X01138Y023295D01*
X011377Y023293D01*
X011373Y023291D01*
X01137Y023289D01*
X011366Y023286D01*
X011362Y023283D01*
X011358Y023279D01*
X011358Y023278D01*
X011357Y023277D01*
X011356Y023275D01*
X011354Y023271D01*
X011353Y023268D01*
X011352Y023264D01*
X011351Y02326D01*
X01135Y023255D01*
Y023255D01*
Y023253D01*
X011351Y02325D01*
X011351Y023247D01*
X011352Y023244D01*
X011354Y02324D01*
X011356Y023236D01*
X011358Y023232D01*
X011359Y023232D01*
X01136Y02323D01*
X011362Y023229D01*
X011364Y023226D01*
X011368Y023224D01*
X011372Y023221D01*
X011377Y023218D01*
X011383Y023216D01*
X011384Y023216D01*
X011386Y023215D01*
X011389Y023214D01*
X011391Y023214D01*
X011394Y023213D01*
X011397Y023212D01*
X0114Y023211D01*
X011404Y02321D01*
X011409Y023208D01*
X011414Y023207D01*
X011419Y023206D01*
X011426Y023204D01*
X011433Y023202D01*
X011433D01*
X011434Y023202D01*
X011436Y023202D01*
X011439Y023201D01*
X011442Y0232D01*
X011445Y023199D01*
X011453Y023197D01*
X011462Y023194D01*
X011472Y023191D01*
X01148Y023188D01*
X011483Y023187D01*
X011486Y023185D01*
X011487D01*
X011487Y023185D01*
X01149Y023183D01*
X011493Y023181D01*
X011497Y023178D01*
X011502Y023174D01*
X011507Y02317D01*
X011512Y023165D01*
X011516Y023159D01*
X011516Y023158D01*
X011517Y023156D01*
X011519Y023153D01*
X01152Y023149D01*
X011522Y023144D01*
X011524Y023138D01*
X011525Y023131D01*
X011525Y023125D01*
Y023124D01*
Y023124D01*
Y023123D01*
Y023121D01*
X011524Y023117D01*
X011524Y023112D01*
X011522Y023106D01*
X01152Y023099D01*
X011518Y023092D01*
X011514Y023085D01*
Y023085D01*
X011513Y023085D01*
X011511Y023082D01*
X011508Y023079D01*
X011505Y023075D01*
X0115Y02307D01*
X011494Y023066D01*
X011487Y023061D01*
X011479Y023057D01*
X011478D01*
X011478Y023057D01*
X011476Y023056D01*
X011475Y023056D01*
X011473Y023055D01*
X01147Y023054D01*
X011464Y023052D01*
X011456Y023051D01*
X011447Y023049D01*
X011438Y023048D01*
X011428Y023048D01*
X011423D01*
X01142Y023048D01*
X011417D01*
X011409Y023049D01*
X011401Y02305D01*
X011392Y023052D01*
X011382Y023054D01*
X011374Y023058D01*
X011373D01*
X011372Y023058D01*
X011371Y023059D01*
X01137Y02306D01*
X011366Y023062D01*
X01136Y023065D01*
X011354Y023069D01*
X011348Y023074D01*
X011343Y02308D01*
X011338Y023087D01*
Y023088D01*
X011337Y023088D01*
X011336Y023089D01*
X011336Y023091D01*
X011334Y023095D01*
X011331Y0231D01*
X011328Y023106D01*
X011326Y023114D01*
X011324Y023122D01*
X011324Y023131D01*
X011359Y023133D01*
Y023133D01*
Y023132D01*
X011359Y023131D01*
X01136Y023129D01*
X011361Y023125D01*
X011362Y023119D01*
X011365Y023112D01*
X011368Y023106D01*
X011373Y0231D01*
X011378Y023094D01*
X011379Y023094D01*
X011381Y023092D01*
X011385Y02309D01*
X011391Y023087D01*
X011397Y023085D01*
X011405Y023082D01*
X011415Y023081D01*
X011427Y02308D01*
X011432D01*
X011435Y023081D01*
X011438Y023081D01*
X011445Y023082D01*
X011453Y023084D01*
X011461Y023086D01*
X011469Y023089D01*
X011472Y023091D01*
X011475Y023093D01*
X011476Y023093D01*
X011478Y023095D01*
X01148Y023098D01*
X011482Y023101D01*
X011485Y023105D01*
X011488Y02311D01*
X011489Y023116D01*
X01149Y023122D01*
Y023123D01*
Y023125D01*
X01149Y023127D01*
X011489Y023131D01*
X011488Y023135D01*
X011486Y023139D01*
X011483Y023143D01*
X01148Y023147D01*
X011479Y023147D01*
X011477Y023148D01*
X011476Y023149D01*
X011474Y02315D01*
X011472Y023151D01*
X011469Y023153D01*
X011465Y023154D01*
X011461Y023156D01*
X011457Y023157D01*
X011451Y023159D01*
X011446Y023161D01*
X011439Y023163D01*
X011432Y023165D01*
X011424Y023167D01*
X011424D01*
X011422Y023167D01*
X01142Y023168D01*
X011417Y023168D01*
X011413Y023169D01*
X011409Y02317D01*
X011405Y023172D01*
X0114Y023173D01*
X011389Y023176D01*
X011379Y023178D01*
X011374Y02318D01*
X01137Y023182D01*
X011366Y023183D01*
X011363Y023184D01*
X011362D01*
X011362Y023185D01*
X01136Y023186D01*
X011359Y023186D01*
X011354Y023189D01*
X011349Y023192D01*
X011343Y023196D01*
X011337Y023201D01*
X011332Y023207D01*
X011327Y023213D01*
X011326Y023214D01*
X011325Y023216D01*
X011323Y023219D01*
X011321Y023224D01*
X011319Y02323D01*
X011317Y023236D01*
X011316Y023244D01*
X011315Y023252D01*
Y023253D01*
Y023253D01*
Y023254D01*
Y023256D01*
X011316Y02326D01*
X011317Y023266D01*
X011318Y023272D01*
X01132Y023279D01*
X011324Y023286D01*
X011328Y023294D01*
Y023294D01*
X011328Y023295D01*
X01133Y023297D01*
X011333Y023301D01*
X011337Y023305D01*
X011342Y023309D01*
X011349Y023315D01*
X011356Y023319D01*
X011364Y023324D01*
X011365D01*
X011366Y023324D01*
X011367Y023325D01*
X011368Y023326D01*
X011371Y023326D01*
X011374Y023328D01*
X01138Y023329D01*
X011388Y023331D01*
X011397Y023333D01*
X011407Y023334D01*
X011418Y023335D01*
X011424D01*
X011427Y023334D01*
D02*
G37*
G36*
X011184Y023113D02*
X011185Y023113D01*
X011187Y023115D01*
X011189Y023117D01*
X011193Y02312D01*
X011198Y023124D01*
X011203Y023128D01*
X01121Y023132D01*
X011217Y023137D01*
X011217D01*
X011218Y023137D01*
X01122Y023139D01*
X011224Y023141D01*
X011229Y023143D01*
X011235Y023146D01*
X011241Y023149D01*
X011247Y023151D01*
X011253Y023154D01*
Y023121D01*
X011252D01*
X011251Y02312D01*
X01125Y02312D01*
X011248Y023119D01*
X011245Y023117D01*
X011243Y023116D01*
X011236Y023112D01*
X011228Y023107D01*
X01122Y023102D01*
X011211Y023095D01*
X011203Y023089D01*
X011202Y023088D01*
X011202Y023088D01*
X011201Y023087D01*
X011199Y023085D01*
X011196Y023081D01*
X011191Y023076D01*
X011186Y023071D01*
X011181Y023064D01*
X011176Y023058D01*
X011172Y023051D01*
X01115D01*
Y02333D01*
X011184D01*
Y023113D01*
D02*
G37*
G36*
X010763Y023334D02*
X010767Y023334D01*
X010771Y023334D01*
X010775Y023333D01*
X01078Y023332D01*
X010791Y023329D01*
X010796Y023327D01*
X010801Y023325D01*
X010807Y023322D01*
X010813Y023319D01*
X010818Y023315D01*
X010823Y023311D01*
X010823Y02331D01*
X010824Y023309D01*
X010825Y023308D01*
X010827Y023306D01*
X010828Y023304D01*
X010831Y023301D01*
X010833Y023298D01*
X010835Y023294D01*
X010838Y02329D01*
X01084Y023285D01*
X010844Y023275D01*
X010845Y023269D01*
X010846Y023263D01*
X010847Y023257D01*
X010848Y02325D01*
Y02325D01*
Y023249D01*
Y023247D01*
X010847Y023246D01*
Y023243D01*
X010847Y02324D01*
X010846Y023234D01*
X010844Y023227D01*
X010842Y02322D01*
X010838Y023212D01*
X010834Y023205D01*
Y023204D01*
X010833Y023204D01*
X010832Y023202D01*
X010828Y023199D01*
X010824Y023195D01*
X010818Y023191D01*
X010811Y023186D01*
X010804Y023183D01*
X010795Y02318D01*
X010795D01*
X010795Y02318D01*
X010797Y023179D01*
X010798Y023178D01*
X010802Y023177D01*
X010807Y023174D01*
X010812Y023171D01*
X010817Y023167D01*
X010822Y023163D01*
X010826Y023158D01*
X010827Y023157D01*
X010828Y023155D01*
X010829Y023152D01*
X010831Y023148D01*
X010833Y023143D01*
X010835Y023137D01*
X010836Y02313D01*
X010836Y023123D01*
Y023123D01*
Y023122D01*
Y02312D01*
X010836Y023118D01*
X010836Y023115D01*
X010835Y023112D01*
X010834Y023105D01*
X010831Y023097D01*
X010827Y023089D01*
X010825Y023085D01*
X010822Y02308D01*
X010818Y023076D01*
X010815Y023072D01*
X010814Y023072D01*
X010813Y023071D01*
X010812Y02307D01*
X010811Y023069D01*
X010809Y023067D01*
X010806Y023066D01*
X010803Y023064D01*
X010799Y023062D01*
X010795Y02306D01*
X010791Y023058D01*
X010786Y023056D01*
X010781Y023054D01*
X01077Y023052D01*
X010763Y023052D01*
X010757Y023051D01*
X010753D01*
X010751Y023052D01*
X010748Y023052D01*
X010744Y023052D01*
X01074Y023053D01*
X010736Y023054D01*
X010726Y023056D01*
X010717Y02306D01*
X010712Y023062D01*
X010707Y023065D01*
X010703Y023069D01*
X010698Y023072D01*
X010698Y023073D01*
X010698Y023073D01*
X010696Y023074D01*
X010695Y023076D01*
X010693Y023078D01*
X010691Y023081D01*
X010687Y023087D01*
X010683Y023095D01*
X01068Y023103D01*
X010677Y023113D01*
X010676Y023119D01*
X010676Y023124D01*
Y023125D01*
Y023125D01*
Y023127D01*
X010676Y023131D01*
X010677Y023135D01*
X010678Y023141D01*
X01068Y023147D01*
X010683Y023152D01*
X010686Y023158D01*
X010687Y023159D01*
X010688Y02316D01*
X010691Y023163D01*
X010694Y023166D01*
X010698Y02317D01*
X010704Y023173D01*
X01071Y023177D01*
X010717Y02318D01*
X010716D01*
X010716Y02318D01*
X010714Y023181D01*
X010713Y023182D01*
X010708Y023184D01*
X010702Y023186D01*
X010696Y02319D01*
X01069Y023195D01*
X010684Y0232D01*
X010678Y023207D01*
Y023207D01*
X010678Y023208D01*
X010676Y02321D01*
X010674Y023214D01*
X010672Y023219D01*
X010669Y023226D01*
X010667Y023233D01*
X010665Y023242D01*
X010665Y023251D01*
Y023251D01*
Y023253D01*
Y023255D01*
X010665Y023257D01*
X010665Y02326D01*
X010666Y023263D01*
X010667Y023267D01*
X010668Y023272D01*
X010671Y023281D01*
X010673Y023286D01*
X010676Y023291D01*
X010678Y023296D01*
X010682Y023301D01*
X010686Y023306D01*
X01069Y023311D01*
X01069Y023311D01*
X010691Y023312D01*
X010692Y023313D01*
X010694Y023314D01*
X010697Y023316D01*
X0107Y023318D01*
X010704Y02332D01*
X010708Y023323D01*
X010712Y023325D01*
X010717Y023327D01*
X010723Y023329D01*
X010728Y023331D01*
X010735Y023332D01*
X010742Y023334D01*
X010748Y023334D01*
X010756Y023335D01*
X01076D01*
X010763Y023334D01*
D02*
G37*
G36*
X011686D02*
X01169D01*
X011694Y023334D01*
X011698Y023334D01*
X011708Y023332D01*
X011719Y02333D01*
X011729Y023328D01*
X011739Y023324D01*
X01174D01*
X011741Y023324D01*
X011742Y023323D01*
X011743Y023322D01*
X011748Y023319D01*
X011754Y023316D01*
X01176Y023311D01*
X011767Y023305D01*
X011773Y023299D01*
X011779Y023291D01*
Y023291D01*
X01178Y02329D01*
X011781Y023289D01*
X011782Y023287D01*
X011783Y023285D01*
X011784Y023283D01*
X011787Y023277D01*
X011789Y023269D01*
X011792Y023261D01*
X011794Y023251D01*
X011794Y023241D01*
X01176Y023238D01*
Y023238D01*
Y023238D01*
X011759Y02324D01*
Y023241D01*
X011759Y023245D01*
X011757Y02325D01*
X011756Y023255D01*
X011754Y023261D01*
X011751Y023267D01*
X011749Y023272D01*
X011748Y023273D01*
X011747Y023274D01*
X011745Y023277D01*
X011742Y02328D01*
X011738Y023283D01*
X011733Y023287D01*
X011727Y023291D01*
X011721Y023294D01*
X011721D01*
X01172Y023294D01*
X011719Y023295D01*
X011718Y023295D01*
X011714Y023296D01*
X011708Y023298D01*
X011702Y023299D01*
X011695Y023301D01*
X011687Y023301D01*
X011678Y023302D01*
X011674D01*
X01167Y023301D01*
X011666Y023301D01*
X01166Y0233D01*
X011654Y023299D01*
X011647Y023298D01*
X011641Y023296D01*
X01164Y023295D01*
X011638Y023295D01*
X011636Y023293D01*
X011632Y023291D01*
X011628Y023289D01*
X011624Y023286D01*
X01162Y023283D01*
X011617Y023279D01*
X011617Y023278D01*
X011616Y023277D01*
X011615Y023275D01*
X011613Y023271D01*
X011611Y023268D01*
X01161Y023264D01*
X011609Y02326D01*
X011609Y023255D01*
Y023255D01*
Y023253D01*
X011609Y02325D01*
X01161Y023247D01*
X011611Y023244D01*
X011612Y02324D01*
X011614Y023236D01*
X011617Y023232D01*
X011617Y023232D01*
X011619Y02323D01*
X01162Y023229D01*
X011623Y023226D01*
X011626Y023224D01*
X011631Y023221D01*
X011636Y023218D01*
X011642Y023216D01*
X011642Y023216D01*
X011644Y023215D01*
X011648Y023214D01*
X01165Y023214D01*
X011652Y023213D01*
X011655Y023212D01*
X011659Y023211D01*
X011663Y02321D01*
X011668Y023208D01*
X011672Y023207D01*
X011678Y023206D01*
X011684Y023204D01*
X011691Y023202D01*
X011692D01*
X011693Y023202D01*
X011695Y023202D01*
X011697Y023201D01*
X0117Y0232D01*
X011704Y023199D01*
X011712Y023197D01*
X011721Y023194D01*
X01173Y023191D01*
X011738Y023188D01*
X011742Y023187D01*
X011745Y023185D01*
X011745D01*
X011746Y023185D01*
X011748Y023183D01*
X011752Y023181D01*
X011756Y023178D01*
X011761Y023174D01*
X011765Y02317D01*
X01177Y023165D01*
X011773Y023162D01*
X011782Y023184D01*
X011783D01*
X011783Y023184D01*
X011785Y023183D01*
X011787Y023182D01*
X01179Y023181D01*
X011794Y023179D01*
X011797Y023178D01*
X011801Y023176D01*
X01181Y023171D01*
X01182Y023165D01*
X011831Y023158D01*
X011842Y02315D01*
X011842D01*
X011843Y023151D01*
X011845Y023152D01*
X011847Y023153D01*
X01185Y023154D01*
X011854Y023156D01*
X011856Y023156D01*
X011856Y023157D01*
X011856Y023157D01*
X011858Y023159D01*
X01186Y023162D01*
X011863Y023166D01*
X011867Y02317D01*
X011872Y023174D01*
X011878Y023178D01*
X011885Y023182D01*
X011885D01*
X011884Y023182D01*
X011883Y023183D01*
X011881Y023184D01*
X011876Y023185D01*
X01187Y023188D01*
X011864Y023192D01*
X011858Y023196D01*
X011852Y023201D01*
X011846Y023208D01*
X011846Y023208D01*
X011844Y023211D01*
X011842Y023214D01*
X011839Y023219D01*
X011837Y023226D01*
X011834Y023232D01*
X011833Y02324D01*
X011832Y023249D01*
Y02325D01*
Y02325D01*
Y023253D01*
X011833Y023257D01*
X011834Y023261D01*
X011834Y023267D01*
X011836Y023273D01*
X011838Y023279D01*
X011841Y023286D01*
X011841Y023287D01*
X011842Y023289D01*
X011844Y023291D01*
X011846Y023295D01*
X01185Y023299D01*
X011853Y023304D01*
X011857Y023308D01*
X011861Y023312D01*
X011862Y023312D01*
X011863Y023313D01*
X011866Y023315D01*
X01187Y023317D01*
X011874Y023319D01*
X011879Y023321D01*
X011885Y023324D01*
X011892Y023326D01*
X011893D01*
X011895Y023326D01*
X011899Y023327D01*
X011904Y023328D01*
X011911Y023328D01*
X011918Y023329D01*
X011927Y02333D01*
X011936Y02333D01*
X012042D01*
Y023052D01*
X01204D01*
X012041Y023039D01*
X012042Y023024D01*
Y023024D01*
Y023022D01*
Y02302D01*
X012042Y023017D01*
Y023014D01*
X012041Y023009D01*
X012041Y023005D01*
X01204Y022999D01*
X012038Y022988D01*
X012035Y022975D01*
X012031Y022962D01*
X012026Y022949D01*
X012025Y022949D01*
X012025Y022948D01*
X012024Y022946D01*
X012022Y022944D01*
X012021Y022941D01*
X012019Y022938D01*
X012013Y02293D01*
X012007Y022922D01*
X011998Y022914D01*
X011989Y022905D01*
X011978Y022898D01*
X011978Y022898D01*
X011977Y022897D01*
X011975Y022896D01*
X011973Y022895D01*
X01197Y022894D01*
X011967Y022892D01*
X011963Y022891D01*
X011958Y022889D01*
X011953Y022888D01*
X011948Y022886D01*
X011936Y022883D01*
X011923Y022881D01*
X011917Y02288D01*
X011906D01*
X011903Y022881D01*
X011899D01*
X011896Y022881D01*
X011891Y022882D01*
X011886Y022883D01*
X011876Y022885D01*
X011864Y022888D01*
X011852Y022893D01*
X011846Y022896D01*
X01184Y022899D01*
X01184Y022899D01*
X011839Y0229D01*
X011837Y022901D01*
X011835Y022902D01*
X011832Y022904D01*
X011829Y022906D01*
X011822Y022912D01*
X011815Y022919D01*
X011807Y022928D01*
X0118Y022938D01*
X011793Y02295D01*
Y02295D01*
X011792Y022952D01*
X011791Y022953D01*
X011791Y022956D01*
X011789Y022959D01*
X011788Y022963D01*
X011786Y022967D01*
X011785Y022972D01*
X011783Y022977D01*
X011782Y022983D01*
X01178Y022989D01*
X011779Y022995D01*
X011777Y023009D01*
X011777Y023024D01*
Y023024D01*
Y023025D01*
Y023027D01*
Y023029D01*
X011777Y023033D01*
Y023036D01*
X011777Y02304D01*
X011778Y023044D01*
X011779Y023054D01*
X011781Y023064D01*
X011783Y023075D01*
X011787Y023086D01*
Y023086D01*
X011787Y023087D01*
X011788Y023088D01*
X011789Y02309D01*
X01179Y023092D01*
X011791Y023095D01*
X011795Y023102D01*
X011799Y023109D01*
X011805Y023117D01*
X011811Y023125D01*
X011818Y023133D01*
X011818D01*
X011817Y023134D01*
X011816Y023135D01*
X011814Y023136D01*
X011812Y023138D01*
X011809Y023139D01*
X011803Y023143D01*
X011796Y023147D01*
X011788Y023152D01*
X011779Y023155D01*
X011775Y023157D01*
X011776Y023156D01*
X011777Y023153D01*
X011779Y023149D01*
X011781Y023144D01*
X011782Y023138D01*
X011783Y023131D01*
X011784Y023125D01*
Y023124D01*
Y023124D01*
Y023123D01*
Y023121D01*
X011783Y023117D01*
X011782Y023112D01*
X011781Y023106D01*
X011779Y023099D01*
X011776Y023092D01*
X011772Y023085D01*
Y023085D01*
X011772Y023085D01*
X01177Y023082D01*
X011767Y023079D01*
X011763Y023075D01*
X011759Y02307D01*
X011753Y023066D01*
X011745Y023061D01*
X011737Y023057D01*
X011737D01*
X011736Y023057D01*
X011735Y023056D01*
X011733Y023056D01*
X011731Y023055D01*
X011729Y023054D01*
X011723Y023052D01*
X011715Y023051D01*
X011706Y023049D01*
X011697Y023048D01*
X011686Y023048D01*
X011681D01*
X011678Y023048D01*
X011676D01*
X011668Y023049D01*
X011663Y02305D01*
X01166Y023048D01*
X011656Y023043D01*
X01165Y023039D01*
X01164Y023029D01*
X01163Y02302D01*
X011625Y023015D01*
X011621Y02301D01*
X011617Y023006D01*
X011614Y023001D01*
Y023001D01*
X011613Y023001D01*
X011612Y022999D01*
X011611Y022998D01*
X011609Y022993D01*
X011605Y022988D01*
X011603Y022982D01*
X0116Y022975D01*
X011598Y022967D01*
X011597Y02296D01*
Y02296D01*
Y022959D01*
X011598Y022957D01*
X011598Y022953D01*
X011599Y022948D01*
X011601Y022943D01*
X011604Y022937D01*
X011607Y022932D01*
X011612Y022926D01*
X011613Y022925D01*
X011615Y022924D01*
X011618Y022922D01*
X011622Y022919D01*
X011628Y022916D01*
X011634Y022914D01*
X011642Y022912D01*
X01165Y022912D01*
X011653D01*
X011654Y022912D01*
X011659Y022913D01*
X011665Y022914D01*
X011671Y022916D01*
X011678Y022918D01*
X011684Y022922D01*
X01169Y022927D01*
X011691Y022928D01*
X011692Y02293D01*
X011695Y022933D01*
X011697Y022938D01*
X0117Y022943D01*
X011702Y02295D01*
X011704Y022958D01*
X011705Y022968D01*
X01174Y022964D01*
Y022964D01*
X011739Y022963D01*
Y02296D01*
X011739Y022958D01*
X011738Y022954D01*
X011737Y022951D01*
X011736Y022946D01*
X011735Y022942D01*
X011732Y022932D01*
X011727Y022923D01*
X011724Y022918D01*
X011721Y022913D01*
X011717Y022909D01*
X011713Y022905D01*
X011712Y022904D01*
X011712Y022904D01*
X01171Y022903D01*
X011708Y022902D01*
X011706Y0229D01*
X011703Y022898D01*
X0117Y022896D01*
X011696Y022894D01*
X011692Y022892D01*
X011687Y02289D01*
X011682Y022889D01*
X011676Y022887D01*
X01167Y022886D01*
X011664Y022885D01*
X011657Y022884D01*
X01165Y022884D01*
X011646D01*
X011643Y022884D01*
X01164Y022885D01*
X011636Y022885D01*
X011631Y022886D01*
X011627Y022887D01*
X011616Y02289D01*
X011606Y022894D01*
X011601Y022896D01*
X011595Y022899D01*
X011591Y022902D01*
X011586Y022906D01*
X011586Y022907D01*
X011585Y022907D01*
X011584Y022909D01*
X011583Y02291D01*
X011581Y022912D01*
X011579Y022915D01*
X011577Y022918D01*
X011574Y022922D01*
X01157Y022929D01*
X011566Y022939D01*
X011565Y022944D01*
X011564Y022949D01*
X011563Y022955D01*
X011563Y022961D01*
Y022962D01*
Y022964D01*
X011563Y022967D01*
X011563Y022971D01*
X011564Y022976D01*
X011566Y022982D01*
X011567Y022988D01*
X01157Y022994D01*
X01157Y022995D01*
X011571Y022997D01*
X011573Y023D01*
X011575Y023004D01*
X011578Y023009D01*
X011582Y023015D01*
X011587Y023021D01*
X011593Y023028D01*
X011593Y023029D01*
X011595Y023031D01*
X011597Y023033D01*
X011599Y023035D01*
X011602Y023037D01*
X011605Y023041D01*
X011608Y023044D01*
X011612Y023048D01*
X011616Y023052D01*
X011621Y023056D01*
X011626Y02306D01*
X011626Y023061D01*
X011624Y023062D01*
X011619Y023065D01*
X011613Y023069D01*
X011607Y023074D01*
X011601Y02308D01*
X011596Y023087D01*
Y023088D01*
X011596Y023088D01*
X011595Y023089D01*
X011594Y023091D01*
X011592Y023095D01*
X01159Y0231D01*
X011587Y023106D01*
X011585Y023114D01*
X011583Y023122D01*
X011582Y02313D01*
X011562D01*
Y023163D01*
X0117D01*
X011698Y023163D01*
X011691Y023165D01*
X011683Y023167D01*
X011682D01*
X011681Y023167D01*
X011678Y023168D01*
X011676Y023168D01*
X011672Y023169D01*
X011668Y02317D01*
X011663Y023172D01*
X011658Y023173D01*
X011648Y023176D01*
X011638Y023178D01*
X011633Y02318D01*
X011629Y023182D01*
X011625Y023183D01*
X011621Y023184D01*
X011621D01*
X01162Y023185D01*
X011619Y023186D01*
X011617Y023186D01*
X011613Y023189D01*
X011608Y023192D01*
X011602Y023196D01*
X011596Y023201D01*
X01159Y023207D01*
X011585Y023213D01*
X011585Y023214D01*
X011583Y023216D01*
X011582Y023219D01*
X011579Y023224D01*
X011577Y02323D01*
X011575Y023236D01*
X011574Y023244D01*
X011574Y023252D01*
Y023253D01*
Y023253D01*
Y023254D01*
Y023256D01*
X011575Y02326D01*
X011575Y023266D01*
X011577Y023272D01*
X011579Y023279D01*
X011582Y023286D01*
X011587Y023294D01*
Y023294D01*
X011587Y023295D01*
X011589Y023297D01*
X011592Y023301D01*
X011596Y023305D01*
X011601Y023309D01*
X011607Y023315D01*
X011615Y023319D01*
X011623Y023324D01*
X011623D01*
X011624Y023324D01*
X011625Y023325D01*
X011627Y023326D01*
X01163Y023326D01*
X011632Y023328D01*
X011639Y023329D01*
X011646Y023331D01*
X011656Y023333D01*
X011666Y023334D01*
X011676Y023335D01*
X011683D01*
X011686Y023334D01*
D02*
G37*
G36*
X006931D02*
X006934Y023334D01*
X006938Y023334D01*
X006942Y023333D01*
X006946Y023332D01*
X006956Y02333D01*
X006966Y023326D01*
X006971Y023323D01*
X006976Y02332D01*
X00698Y023317D01*
X006985Y023313D01*
X006986Y023313D01*
X006986Y023312D01*
X006988Y023311D01*
X006989Y023309D01*
X006991Y023307D01*
X006993Y023304D01*
X006995Y023301D01*
X006998Y023298D01*
X007Y023294D01*
X007002Y02329D01*
X007007Y02328D01*
X00701Y023269D01*
X007012Y023263D01*
X007012Y023257D01*
X006978Y023252D01*
Y023253D01*
X006978Y023253D01*
X006978Y023255D01*
X006977Y023257D01*
X006977Y023259D01*
X006976Y023262D01*
X006974Y023268D01*
X006971Y023275D01*
X006968Y023282D01*
X006964Y023289D01*
X006959Y023294D01*
X006958Y023295D01*
X006956Y023296D01*
X006953Y023298D01*
X006949Y0233D01*
X006944Y023303D01*
X006938Y023305D01*
X006931Y023306D01*
X006924Y023307D01*
X006922D01*
X00692Y023306D01*
X006916Y023306D01*
X00691Y023305D01*
X006904Y023303D01*
X006897Y0233D01*
X00689Y023296D01*
X006884Y02329D01*
X006883Y023289D01*
X006881Y023287D01*
X006879Y023283D01*
X006875Y023279D01*
X006872Y023273D01*
X00687Y023266D01*
X006868Y023258D01*
X006867Y023249D01*
Y023249D01*
Y023248D01*
Y023247D01*
X006867Y023245D01*
X006868Y02324D01*
X006869Y023235D01*
X006871Y023229D01*
X006873Y023222D01*
X006877Y023216D01*
X006883Y02321D01*
X006883Y023209D01*
X006885Y023208D01*
X006889Y023205D01*
X006893Y023202D01*
X006899Y0232D01*
X006905Y023197D01*
X006913Y023196D01*
X006921Y023195D01*
X006925D01*
X006928Y023195D01*
X006931Y023196D01*
X006935Y023196D01*
X00694Y023197D01*
X006946Y023198D01*
X006942Y023168D01*
X006939D01*
X006938Y023169D01*
X006933D01*
X006928Y023168D01*
X006923Y023167D01*
X006917Y023166D01*
X00691Y023164D01*
X006904Y023161D01*
X006897Y023157D01*
X006897D01*
X006896Y023157D01*
X006894Y023155D01*
X006891Y023153D01*
X006888Y023149D01*
X006885Y023144D01*
X006882Y023138D01*
X00688Y023131D01*
X006879Y023127D01*
Y023123D01*
Y023122D01*
Y023122D01*
Y023119D01*
X00688Y023116D01*
X006881Y023112D01*
X006883Y023107D01*
X006885Y023102D01*
X006888Y023097D01*
X006892Y023092D01*
X006893Y023091D01*
X006895Y02309D01*
X006897Y023088D01*
X006901Y023085D01*
X006906Y023083D01*
X006911Y023081D01*
X006918Y02308D01*
X006925Y023079D01*
X006928D01*
X006932Y02308D01*
X006937Y023081D01*
X006942Y023082D01*
X006947Y023085D01*
X006953Y023088D01*
X006958Y023092D01*
X006958Y023092D01*
X00696Y023094D01*
X006962Y023097D01*
X006965Y023101D01*
X006968Y023106D01*
X006971Y023113D01*
X006973Y02312D01*
X006975Y023129D01*
X007009Y023123D01*
Y023123D01*
X007008Y023121D01*
X007008Y02312D01*
X007008Y023117D01*
X007007Y023115D01*
X007006Y023111D01*
X007003Y023104D01*
X006999Y023095D01*
X006994Y023086D01*
X006988Y023078D01*
X006981Y02307D01*
X00698Y02307D01*
X00698Y023069D01*
X006978Y023068D01*
X006977Y023067D01*
X006975Y023066D01*
X006972Y023064D01*
X006969Y023062D01*
X006966Y02306D01*
X006958Y023057D01*
X006948Y023054D01*
X006938Y023052D01*
X006932Y023051D01*
X006922D01*
X006917Y023052D01*
X006912Y023052D01*
X006906Y023054D01*
X006899Y023056D01*
X006891Y023058D01*
X006884Y023061D01*
X006884D01*
X006883Y023062D01*
X006881Y023063D01*
X006877Y023065D01*
X006873Y023068D01*
X006869Y023072D01*
X006864Y023076D01*
X006859Y023082D01*
X006855Y023088D01*
X006854Y023089D01*
X006853Y023091D01*
X006852Y023094D01*
X00685Y023099D01*
X006848Y023104D01*
X006846Y02311D01*
X006845Y023117D01*
X006844Y023123D01*
Y023124D01*
Y023127D01*
X006845Y02313D01*
X006846Y023134D01*
X006847Y023139D01*
X006849Y023145D01*
X006851Y023151D01*
X006854Y023156D01*
X006855Y023157D01*
X006856Y023159D01*
X006859Y023161D01*
X006862Y023165D01*
X006866Y023168D01*
X006871Y023172D01*
X006876Y023176D01*
X006883Y02318D01*
X006883D01*
X006882Y02318D01*
X006881Y02318D01*
X006879Y023181D01*
X006875Y023182D01*
X006869Y023185D01*
X006863Y023188D01*
X006856Y023192D01*
X00685Y023197D01*
X006844Y023203D01*
X006844Y023204D01*
X006842Y023206D01*
X00684Y02321D01*
X006838Y023216D01*
X006835Y023222D01*
X006833Y02323D01*
X006831Y023238D01*
X006831Y023248D01*
Y023249D01*
Y02325D01*
Y023252D01*
X006831Y023254D01*
X006832Y023257D01*
X006832Y023261D01*
X006833Y023265D01*
X006834Y023269D01*
X006837Y023279D01*
X00684Y023284D01*
X006842Y023289D01*
X006845Y023294D01*
X006849Y023299D01*
X006853Y023305D01*
X006858Y023309D01*
X006858Y02331D01*
X006859Y023311D01*
X00686Y023312D01*
X006863Y023313D01*
X006865Y023315D01*
X006868Y023317D01*
X006872Y02332D01*
X006876Y023322D01*
X006881Y023324D01*
X006886Y023327D01*
X006891Y023329D01*
X006897Y023331D01*
X006903Y023332D01*
X00691Y023334D01*
X006917Y023334D01*
X006925Y023335D01*
X006928D01*
X006931Y023334D01*
D02*
G37*
G36*
X007377D02*
X007381D01*
X007385Y023334D01*
X00739Y023334D01*
X0074Y023332D01*
X00741Y02333D01*
X007421Y023328D01*
X007431Y023324D01*
X007431D01*
X007432Y023324D01*
X007433Y023323D01*
X007435Y023322D01*
X00744Y023319D01*
X007445Y023316D01*
X007452Y023311D01*
X007458Y023305D01*
X007465Y023299D01*
X007471Y023291D01*
Y023291D01*
X007472Y02329D01*
X007472Y023289D01*
X007473Y023287D01*
X007474Y023285D01*
X007475Y023283D01*
X007478Y023277D01*
X007481Y023269D01*
X007483Y023261D01*
X007485Y023251D01*
X007486Y023241D01*
X007451Y023238D01*
Y023238D01*
Y023238D01*
X007451Y02324D01*
Y023241D01*
X00745Y023245D01*
X007449Y02325D01*
X007447Y023255D01*
X007446Y023261D01*
X007443Y023267D01*
X00744Y023272D01*
X00744Y023273D01*
X007438Y023274D01*
X007436Y023277D01*
X007433Y02328D01*
X007429Y023283D01*
X007425Y023287D01*
X007419Y023291D01*
X007412Y023294D01*
X007412D01*
X007411Y023294D01*
X00741Y023295D01*
X007409Y023295D01*
X007405Y023296D01*
X0074Y023298D01*
X007393Y023299D01*
X007386Y023301D01*
X007378Y023301D01*
X007369Y023302D01*
X007366D01*
X007362Y023301D01*
X007357Y023301D01*
X007351Y0233D01*
X007345Y023299D01*
X007339Y023298D01*
X007332Y023296D01*
X007332Y023295D01*
X00733Y023295D01*
X007327Y023293D01*
X007323Y023291D01*
X00732Y023289D01*
X007316Y023286D01*
X007312Y023283D01*
X007308Y023279D01*
X007308Y023278D01*
X007307Y023277D01*
X007306Y023275D01*
X007304Y023271D01*
X007303Y023268D01*
X007302Y023264D01*
X007301Y02326D01*
X0073Y023255D01*
Y023255D01*
Y023253D01*
X007301Y02325D01*
X007301Y023247D01*
X007302Y023244D01*
X007304Y02324D01*
X007306Y023236D01*
X007308Y023232D01*
X007309Y023232D01*
X00731Y02323D01*
X007312Y023229D01*
X007314Y023226D01*
X007318Y023224D01*
X007322Y023221D01*
X007327Y023218D01*
X007333Y023216D01*
X007334Y023216D01*
X007336Y023215D01*
X007339Y023214D01*
X007341Y023214D01*
X007344Y023213D01*
X007347Y023212D01*
X00735Y023211D01*
X007354Y02321D01*
X007359Y023208D01*
X007364Y023207D01*
X007369Y023206D01*
X007376Y023204D01*
X007383Y023202D01*
X007383D01*
X007384Y023202D01*
X007386Y023202D01*
X007389Y023201D01*
X007392Y0232D01*
X007395Y023199D01*
X007403Y023197D01*
X007412Y023194D01*
X007422Y023191D01*
X00743Y023188D01*
X007433Y023187D01*
X007436Y023185D01*
X007437D01*
X007437Y023185D01*
X00744Y023183D01*
X007443Y023181D01*
X007447Y023178D01*
X007452Y023174D01*
X007457Y02317D01*
X007462Y023165D01*
X007466Y023159D01*
X007466Y023158D01*
X007467Y023156D01*
X007469Y023153D01*
X00747Y023149D01*
X007472Y023144D01*
X007474Y023138D01*
X007475Y023131D01*
X007475Y023125D01*
Y023124D01*
Y023124D01*
Y023123D01*
Y023121D01*
X007474Y023117D01*
X007474Y023112D01*
X007472Y023106D01*
X00747Y023099D01*
X007468Y023092D01*
X007464Y023085D01*
Y023085D01*
X007463Y023085D01*
X007461Y023082D01*
X007458Y023079D01*
X007455Y023075D01*
X00745Y02307D01*
X007444Y023066D01*
X007437Y023061D01*
X007429Y023057D01*
X007428D01*
X007428Y023057D01*
X007426Y023056D01*
X007425Y023056D01*
X007423Y023055D01*
X00742Y023054D01*
X007414Y023052D01*
X007406Y023051D01*
X007397Y023049D01*
X007388Y023048D01*
X007378Y023048D01*
X007373D01*
X00737Y023048D01*
X007367D01*
X007359Y023049D01*
X007351Y02305D01*
X007342Y023052D01*
X007332Y023054D01*
X007324Y023058D01*
X007323D01*
X007322Y023058D01*
X007321Y023059D01*
X00732Y02306D01*
X007316Y023062D01*
X00731Y023065D01*
X007304Y023069D01*
X007298Y023074D01*
X007293Y02308D01*
X007288Y023087D01*
Y023088D01*
X007287Y023088D01*
X007286Y023089D01*
X007286Y023091D01*
X007284Y023095D01*
X007281Y0231D01*
X007278Y023106D01*
X007276Y023114D01*
X007274Y023122D01*
X007274Y023131D01*
X007309Y023133D01*
Y023133D01*
Y023132D01*
X007309Y023131D01*
X00731Y023129D01*
X007311Y023125D01*
X007312Y023119D01*
X007315Y023112D01*
X007318Y023106D01*
X007323Y0231D01*
X007328Y023094D01*
X007329Y023094D01*
X007331Y023092D01*
X007335Y02309D01*
X00734Y023087D01*
X007347Y023085D01*
X007355Y023082D01*
X007365Y023081D01*
X007377Y02308D01*
X007382D01*
X007385Y023081D01*
X007388Y023081D01*
X007395Y023082D01*
X007403Y023084D01*
X007411Y023086D01*
X007419Y023089D01*
X007422Y023091D01*
X007425Y023093D01*
X007426Y023093D01*
X007428Y023095D01*
X00743Y023098D01*
X007432Y023101D01*
X007435Y023105D01*
X007438Y02311D01*
X007439Y023116D01*
X00744Y023122D01*
Y023123D01*
Y023125D01*
X00744Y023127D01*
X007439Y023131D01*
X007438Y023135D01*
X007436Y023139D01*
X007433Y023143D01*
X00743Y023147D01*
X007429Y023147D01*
X007427Y023148D01*
X007426Y023149D01*
X007424Y02315D01*
X007422Y023151D01*
X007419Y023153D01*
X007415Y023154D01*
X007411Y023156D01*
X007407Y023157D01*
X007401Y023159D01*
X007396Y023161D01*
X007389Y023163D01*
X007382Y023165D01*
X007374Y023167D01*
X007374D01*
X007372Y023167D01*
X00737Y023168D01*
X007367Y023168D01*
X007363Y023169D01*
X007359Y02317D01*
X007355Y023172D01*
X00735Y023173D01*
X007339Y023176D01*
X007329Y023178D01*
X007324Y02318D01*
X00732Y023182D01*
X007316Y023183D01*
X007313Y023184D01*
X007312D01*
X007312Y023185D01*
X00731Y023186D01*
X007309Y023186D01*
X007304Y023189D01*
X007299Y023192D01*
X007293Y023196D01*
X007287Y023201D01*
X007282Y023207D01*
X007277Y023213D01*
X007276Y023214D01*
X007275Y023216D01*
X007273Y023219D01*
X007271Y023224D01*
X007269Y02323D01*
X007267Y023236D01*
X007266Y023244D01*
X007265Y023252D01*
Y023253D01*
Y023253D01*
Y023254D01*
Y023256D01*
X007266Y02326D01*
X007267Y023266D01*
X007268Y023272D01*
X00727Y023279D01*
X007274Y023286D01*
X007278Y023294D01*
Y023294D01*
X007278Y023295D01*
X00728Y023297D01*
X007283Y023301D01*
X007287Y023305D01*
X007292Y023309D01*
X007299Y023315D01*
X007306Y023319D01*
X007314Y023324D01*
X007315D01*
X007316Y023324D01*
X007317Y023325D01*
X007318Y023326D01*
X007321Y023326D01*
X007324Y023328D01*
X00733Y023329D01*
X007338Y023331D01*
X007347Y023333D01*
X007357Y023334D01*
X007368Y023335D01*
X007374D01*
X007377Y023334D01*
D02*
G37*
G36*
X007636D02*
X00764D01*
X007644Y023334D01*
X007648Y023334D01*
X007658Y023332D01*
X007669Y02333D01*
X007679Y023328D01*
X007689Y023324D01*
X00769D01*
X007691Y023324D01*
X007692Y023323D01*
X007693Y023322D01*
X007698Y023319D01*
X007704Y023316D01*
X00771Y023311D01*
X007717Y023305D01*
X007723Y023299D01*
X007729Y023291D01*
Y023291D01*
X00773Y02329D01*
X007731Y023289D01*
X007732Y023287D01*
X007733Y023285D01*
X007734Y023283D01*
X007737Y023277D01*
X007739Y023269D01*
X007742Y023261D01*
X007744Y023251D01*
X007744Y023241D01*
X00771Y023238D01*
Y023238D01*
Y023238D01*
X007709Y02324D01*
Y023241D01*
X007709Y023245D01*
X007707Y02325D01*
X007706Y023255D01*
X007704Y023261D01*
X007701Y023267D01*
X007699Y023272D01*
X007698Y023273D01*
X007697Y023274D01*
X007695Y023277D01*
X007692Y02328D01*
X007688Y023283D01*
X007683Y023287D01*
X007677Y023291D01*
X007671Y023294D01*
X007671D01*
X00767Y023294D01*
X007669Y023295D01*
X007668Y023295D01*
X007664Y023296D01*
X007658Y023298D01*
X007652Y023299D01*
X007645Y023301D01*
X007637Y023301D01*
X007628Y023302D01*
X007624D01*
X00762Y023301D01*
X007616Y023301D01*
X00761Y0233D01*
X007604Y023299D01*
X007597Y023298D01*
X007591Y023296D01*
X00759Y023295D01*
X007588Y023295D01*
X007586Y023293D01*
X007582Y023291D01*
X007578Y023289D01*
X007574Y023286D01*
X00757Y023283D01*
X007567Y023279D01*
X007567Y023278D01*
X007566Y023277D01*
X007565Y023275D01*
X007563Y023271D01*
X007561Y023268D01*
X00756Y023264D01*
X007559Y02326D01*
X007559Y023255D01*
Y023255D01*
Y023253D01*
X007559Y02325D01*
X00756Y023247D01*
X007561Y023244D01*
X007562Y02324D01*
X007564Y023236D01*
X007567Y023232D01*
X007567Y023232D01*
X007569Y02323D01*
X00757Y023229D01*
X007573Y023226D01*
X007576Y023224D01*
X007581Y023221D01*
X007586Y023218D01*
X007592Y023216D01*
X007592Y023216D01*
X007594Y023215D01*
X007598Y023214D01*
X0076Y023214D01*
X007602Y023213D01*
X007605Y023212D01*
X007609Y023211D01*
X007613Y02321D01*
X007618Y023208D01*
X007622Y023207D01*
X007628Y023206D01*
X007634Y023204D01*
X007641Y023202D01*
X007642D01*
X007643Y023202D01*
X007645Y023202D01*
X007647Y023201D01*
X00765Y0232D01*
X007654Y023199D01*
X007662Y023197D01*
X007671Y023194D01*
X00768Y023191D01*
X007688Y023188D01*
X007692Y023187D01*
X007695Y023185D01*
X007695D01*
X007696Y023185D01*
X007698Y023183D01*
X007702Y023181D01*
X007706Y023178D01*
X007711Y023174D01*
X007715Y02317D01*
X00772Y023165D01*
X007723Y023162D01*
X007732Y023184D01*
X007733D01*
X007733Y023184D01*
X007735Y023183D01*
X007737Y023182D01*
X00774Y023181D01*
X007744Y023179D01*
X007747Y023178D01*
X007751Y023176D01*
X00776Y023171D01*
X00777Y023165D01*
X007781Y023158D01*
X007792Y02315D01*
X007792D01*
X007793Y023151D01*
X007795Y023152D01*
X007797Y023153D01*
X0078Y023154D01*
X007804Y023156D01*
X007806Y023156D01*
X007806Y023157D01*
X007806Y023157D01*
X007808Y023159D01*
X00781Y023162D01*
X007813Y023166D01*
X007817Y02317D01*
X007822Y023174D01*
X007828Y023178D01*
X007835Y023182D01*
X007835D01*
X007834Y023182D01*
X007833Y023183D01*
X007831Y023184D01*
X007826Y023185D01*
X007821Y023188D01*
X007814Y023192D01*
X007808Y023196D01*
X007802Y023201D01*
X007796Y023208D01*
X007796Y023208D01*
X007794Y023211D01*
X007792Y023214D01*
X007789Y023219D01*
X007787Y023226D01*
X007784Y023232D01*
X007783Y02324D01*
X007782Y023249D01*
Y02325D01*
Y02325D01*
Y023253D01*
X007783Y023257D01*
X007784Y023261D01*
X007784Y023267D01*
X007786Y023273D01*
X007788Y023279D01*
X007791Y023286D01*
X007791Y023287D01*
X007792Y023289D01*
X007794Y023291D01*
X007796Y023295D01*
X0078Y023299D01*
X007803Y023304D01*
X007807Y023308D01*
X007811Y023312D01*
X007812Y023312D01*
X007813Y023313D01*
X007816Y023315D01*
X00782Y023317D01*
X007824Y023319D01*
X007829Y023321D01*
X007835Y023324D01*
X007842Y023326D01*
X007843D01*
X007845Y023326D01*
X007849Y023327D01*
X007854Y023328D01*
X007861Y023328D01*
X007868Y023329D01*
X007877Y02333D01*
X007886Y02333D01*
X007992D01*
Y023052D01*
X00799D01*
X007991Y023039D01*
X007992Y023024D01*
Y023024D01*
Y023022D01*
Y02302D01*
X007992Y023017D01*
Y023014D01*
X007991Y023009D01*
X007991Y023005D01*
X00799Y022999D01*
X007988Y022988D01*
X007985Y022975D01*
X007981Y022962D01*
X007976Y022949D01*
X007975Y022949D01*
X007975Y022948D01*
X007974Y022946D01*
X007972Y022944D01*
X007971Y022941D01*
X007969Y022938D01*
X007963Y02293D01*
X007957Y022922D01*
X007948Y022914D01*
X007939Y022905D01*
X007928Y022898D01*
X007928Y022898D01*
X007927Y022897D01*
X007925Y022896D01*
X007923Y022895D01*
X00792Y022894D01*
X007917Y022892D01*
X007913Y022891D01*
X007908Y022889D01*
X007903Y022888D01*
X007898Y022886D01*
X007886Y022883D01*
X007873Y022881D01*
X007867Y02288D01*
X007856D01*
X007853Y022881D01*
X007849D01*
X007846Y022881D01*
X007841Y022882D01*
X007836Y022883D01*
X007826Y022885D01*
X007814Y022888D01*
X007802Y022893D01*
X007796Y022896D01*
X00779Y022899D01*
X00779Y022899D01*
X007789Y0229D01*
X007787Y022901D01*
X007785Y022902D01*
X007782Y022904D01*
X007779Y022906D01*
X007772Y022912D01*
X007765Y022919D01*
X007757Y022928D01*
X00775Y022938D01*
X007743Y02295D01*
Y02295D01*
X007742Y022952D01*
X007742Y022953D01*
X007741Y022956D01*
X007739Y022959D01*
X007738Y022963D01*
X007736Y022967D01*
X007735Y022972D01*
X007733Y022977D01*
X007732Y022983D01*
X00773Y022989D01*
X007729Y022995D01*
X007727Y023009D01*
X007727Y023024D01*
Y023024D01*
Y023025D01*
Y023027D01*
Y023029D01*
X007727Y023033D01*
Y023036D01*
X007727Y02304D01*
X007728Y023044D01*
X007729Y023054D01*
X007731Y023064D01*
X007733Y023075D01*
X007737Y023086D01*
Y023086D01*
X007737Y023087D01*
X007738Y023088D01*
X007739Y02309D01*
X00774Y023092D01*
X007742Y023095D01*
X007745Y023102D01*
X007749Y023109D01*
X007755Y023117D01*
X007761Y023125D01*
X007768Y023133D01*
X007768D01*
X007767Y023134D01*
X007766Y023135D01*
X007764Y023136D01*
X007762Y023138D01*
X007759Y023139D01*
X007753Y023143D01*
X007746Y023147D01*
X007738Y023152D01*
X007729Y023155D01*
X007725Y023157D01*
X007726Y023156D01*
X007727Y023153D01*
X007729Y023149D01*
X007731Y023144D01*
X007732Y023138D01*
X007733Y023131D01*
X007734Y023125D01*
Y023124D01*
Y023124D01*
Y023123D01*
Y023121D01*
X007733Y023117D01*
X007732Y023112D01*
X007731Y023106D01*
X007729Y023099D01*
X007726Y023092D01*
X007722Y023085D01*
Y023085D01*
X007722Y023085D01*
X00772Y023082D01*
X007717Y023079D01*
X007713Y023075D01*
X007709Y02307D01*
X007703Y023066D01*
Y023065D01*
X007576Y022885D01*
X007548D01*
Y023065D01*
X007511D01*
Y023096D01*
X007542D01*
X00754Y0231D01*
X007537Y023106D01*
X007535Y023114D01*
X007533Y023122D01*
X007532Y023131D01*
X007548Y023132D01*
Y023163D01*
X007582D01*
Y023099D01*
X007585Y023096D01*
X007687D01*
X007689Y023098D01*
X007691Y023101D01*
X007694Y023105D01*
X007696Y02311D01*
X007698Y023116D01*
X007699Y023122D01*
Y023123D01*
Y023125D01*
X007698Y023127D01*
X007697Y023131D01*
X007696Y023135D01*
X007694Y023139D01*
X007692Y023143D01*
X007688Y023147D01*
X007688Y023147D01*
X007686Y023148D01*
X007684Y023149D01*
X007683Y02315D01*
X00768Y023151D01*
X007677Y023153D01*
X007674Y023154D01*
X00767Y023156D01*
X007665Y023157D01*
X00766Y023159D01*
X007654Y023161D01*
X007648Y023163D01*
X007641Y023165D01*
X007633Y023167D01*
X007632D01*
X007631Y023167D01*
X007628Y023168D01*
X007626Y023168D01*
X007622Y023169D01*
X007618Y02317D01*
X007613Y023172D01*
X007608Y023173D01*
X007598Y023176D01*
X007588Y023178D01*
X007583Y02318D01*
X007579Y023182D01*
X007575Y023183D01*
X007571Y023184D01*
X007571D01*
X00757Y023185D01*
X007569Y023186D01*
X007567Y023186D01*
X007563Y023189D01*
X007558Y023192D01*
X007552Y023196D01*
X007546Y023201D01*
X00754Y023207D01*
X007535Y023213D01*
X007535Y023214D01*
X007533Y023216D01*
X007532Y023219D01*
X007529Y023224D01*
X007527Y02323D01*
X007525Y023236D01*
X007524Y023244D01*
X007524Y023252D01*
Y023253D01*
Y023253D01*
Y023254D01*
Y023256D01*
X007525Y02326D01*
X007525Y023266D01*
X007527Y023272D01*
X007529Y023279D01*
X007532Y023286D01*
X007537Y023294D01*
Y023294D01*
X007537Y023295D01*
X007539Y023297D01*
X007542Y023301D01*
X007546Y023305D01*
X007551Y023309D01*
X007557Y023315D01*
X007565Y023319D01*
X007573Y023324D01*
X007573D01*
X007574Y023324D01*
X007575Y023325D01*
X007577Y023326D01*
X00758Y023326D01*
X007582Y023328D01*
X007589Y023329D01*
X007596Y023331D01*
X007606Y023333D01*
X007616Y023334D01*
X007626Y023335D01*
X007633D01*
X007636Y023334D01*
D02*
G37*
G36*
X007134Y023113D02*
X007135Y023113D01*
X007137Y023115D01*
X007139Y023117D01*
X007143Y02312D01*
X007148Y023124D01*
X007153Y023128D01*
X00716Y023132D01*
X007167Y023137D01*
X007167D01*
X007168Y023137D01*
X00717Y023139D01*
X007174Y023141D01*
X007179Y023143D01*
X007185Y023146D01*
X007191Y023149D01*
X007197Y023151D01*
X007203Y023154D01*
Y023121D01*
X007202D01*
X007201Y02312D01*
X0072Y02312D01*
X007198Y023119D01*
X007195Y023117D01*
X007193Y023116D01*
X007186Y023112D01*
X007178Y023107D01*
X00717Y023102D01*
X007161Y023095D01*
X007153Y023089D01*
X007152Y023088D01*
X007152Y023088D01*
X007151Y023087D01*
X007149Y023085D01*
X007146Y023081D01*
X007141Y023076D01*
X007136Y023071D01*
X007131Y023064D01*
X007126Y023058D01*
X007122Y023051D01*
X0071D01*
Y02333D01*
X007134D01*
Y023113D01*
D02*
G37*
G36*
X006713Y023334D02*
X006717Y023334D01*
X006721Y023334D01*
X006725Y023333D01*
X00673Y023332D01*
X006741Y023329D01*
X006746Y023327D01*
X006751Y023325D01*
X006757Y023322D01*
X006763Y023319D01*
X006768Y023315D01*
X006773Y023311D01*
X006773Y02331D01*
X006774Y023309D01*
X006775Y023308D01*
X006777Y023306D01*
X006778Y023304D01*
X006781Y023301D01*
X006783Y023298D01*
X006785Y023294D01*
X006788Y02329D01*
X00679Y023285D01*
X006794Y023275D01*
X006795Y023269D01*
X006796Y023263D01*
X006797Y023257D01*
X006798Y02325D01*
Y02325D01*
Y023249D01*
Y023247D01*
X006797Y023246D01*
Y023243D01*
X006797Y02324D01*
X006796Y023234D01*
X006794Y023227D01*
X006792Y02322D01*
X006788Y023212D01*
X006784Y023205D01*
Y023204D01*
X006783Y023204D01*
X006782Y023202D01*
X006778Y023199D01*
X006774Y023195D01*
X006768Y023191D01*
X006761Y023186D01*
X006754Y023183D01*
X006745Y02318D01*
X006745D01*
X006745Y02318D01*
X006747Y023179D01*
X006748Y023178D01*
X006752Y023177D01*
X006757Y023174D01*
X006762Y023171D01*
X006767Y023167D01*
X006772Y023163D01*
X006776Y023158D01*
X006777Y023157D01*
X006778Y023155D01*
X00678Y023152D01*
X006781Y023148D01*
X006783Y023143D01*
X006785Y023137D01*
X006786Y02313D01*
X006786Y023123D01*
Y023123D01*
Y023122D01*
Y02312D01*
X006786Y023118D01*
X006786Y023115D01*
X006785Y023112D01*
X006784Y023105D01*
X006781Y023097D01*
X006777Y023089D01*
X006775Y023085D01*
X006772Y02308D01*
X006768Y023076D01*
X006765Y023072D01*
X006764Y023072D01*
X006763Y023071D01*
X006762Y02307D01*
X006761Y023069D01*
X006759Y023067D01*
X006756Y023066D01*
X006753Y023064D01*
X006749Y023062D01*
X006745Y02306D01*
X006741Y023058D01*
X006736Y023056D01*
X006731Y023054D01*
X00672Y023052D01*
X006713Y023052D01*
X006707Y023051D01*
X006703D01*
X006701Y023052D01*
X006698Y023052D01*
X006694Y023052D01*
X00669Y023053D01*
X006686Y023054D01*
X006676Y023056D01*
X006667Y02306D01*
X006662Y023062D01*
X006657Y023065D01*
X006653Y023069D01*
X006648Y023072D01*
X006648Y023073D01*
X006648Y023073D01*
X006646Y023074D01*
X006645Y023076D01*
X006643Y023078D01*
X006641Y023081D01*
X006637Y023087D01*
X006633Y023095D01*
X00663Y023103D01*
X006627Y023113D01*
X006626Y023119D01*
X006626Y023124D01*
Y023125D01*
Y023125D01*
Y023127D01*
X006626Y023131D01*
X006627Y023135D01*
X006628Y023141D01*
X00663Y023147D01*
X006633Y023152D01*
X006636Y023158D01*
X006637Y023159D01*
X006638Y02316D01*
X006641Y023163D01*
X006644Y023166D01*
X006648Y02317D01*
X006654Y023173D01*
X00666Y023177D01*
X006667Y02318D01*
X006666D01*
X006666Y02318D01*
X006664Y023181D01*
X006663Y023182D01*
X006658Y023184D01*
X006652Y023186D01*
X006646Y02319D01*
X00664Y023195D01*
X006634Y0232D01*
X006628Y023207D01*
Y023207D01*
X006628Y023208D01*
X006626Y02321D01*
X006624Y023214D01*
X006622Y023219D01*
X006619Y023226D01*
X006617Y023233D01*
X006615Y023242D01*
X006615Y023251D01*
Y023251D01*
Y023253D01*
Y023255D01*
X006615Y023257D01*
X006615Y02326D01*
X006616Y023263D01*
X006617Y023267D01*
X006618Y023272D01*
X006621Y023281D01*
X006623Y023286D01*
X006626Y023291D01*
X006628Y023296D01*
X006632Y023301D01*
X006636Y023306D01*
X00664Y023311D01*
X00664Y023311D01*
X006641Y023312D01*
X006642Y023313D01*
X006644Y023314D01*
X006647Y023316D01*
X00665Y023318D01*
X006654Y02332D01*
X006658Y023323D01*
X006662Y023325D01*
X006667Y023327D01*
X006673Y023329D01*
X006678Y023331D01*
X006685Y023332D01*
X006692Y023334D01*
X006698Y023334D01*
X006706Y023335D01*
X00671D01*
X006713Y023334D01*
D02*
G37*
G36*
X008931D02*
X008934Y023334D01*
X008938Y023334D01*
X008942Y023333D01*
X008946Y023332D01*
X008956Y02333D01*
X008966Y023326D01*
X008971Y023323D01*
X008976Y02332D01*
X00898Y023317D01*
X008985Y023313D01*
X008986Y023313D01*
X008986Y023312D01*
X008988Y023311D01*
X008989Y023309D01*
X008991Y023307D01*
X008993Y023304D01*
X008995Y023301D01*
X008998Y023298D01*
X009Y023294D01*
X009002Y02329D01*
X009007Y02328D01*
X00901Y023269D01*
X009012Y023263D01*
X009012Y023257D01*
X008978Y023252D01*
Y023253D01*
X008978Y023253D01*
X008978Y023255D01*
X008977Y023257D01*
X008977Y023259D01*
X008976Y023262D01*
X008974Y023268D01*
X008971Y023275D01*
X008968Y023282D01*
X008964Y023289D01*
X008959Y023294D01*
X008958Y023295D01*
X008956Y023296D01*
X008953Y023298D01*
X008949Y0233D01*
X008944Y023303D01*
X008938Y023305D01*
X008931Y023306D01*
X008924Y023307D01*
X008922D01*
X00892Y023306D01*
X008916Y023306D01*
X00891Y023305D01*
X008904Y023303D01*
X008897Y0233D01*
X00889Y023296D01*
X008884Y02329D01*
X008883Y023289D01*
X008881Y023287D01*
X008879Y023283D01*
X008875Y023279D01*
X008872Y023273D01*
X00887Y023266D01*
X008868Y023258D01*
X008867Y023249D01*
Y023249D01*
Y023248D01*
Y023247D01*
X008867Y023245D01*
X008868Y02324D01*
X008869Y023235D01*
X008871Y023229D01*
X008873Y023222D01*
X008877Y023216D01*
X008883Y02321D01*
X008883Y023209D01*
X008885Y023208D01*
X008889Y023205D01*
X008893Y023202D01*
X008899Y0232D01*
X008905Y023197D01*
X008913Y023196D01*
X008921Y023195D01*
X008925D01*
X008928Y023195D01*
X008931Y023196D01*
X008935Y023196D01*
X00894Y023197D01*
X008946Y023198D01*
X008942Y023168D01*
X008939D01*
X008938Y023169D01*
X008933D01*
X008928Y023168D01*
X008923Y023167D01*
X008917Y023166D01*
X00891Y023164D01*
X008904Y023161D01*
X008897Y023157D01*
X008897D01*
X008896Y023157D01*
X008894Y023155D01*
X008891Y023153D01*
X008888Y023149D01*
X008885Y023144D01*
X008882Y023138D01*
X00888Y023131D01*
X008879Y023127D01*
Y023123D01*
Y023122D01*
Y023122D01*
Y023119D01*
X00888Y023116D01*
X008881Y023112D01*
X008883Y023107D01*
X008885Y023102D01*
X008888Y023097D01*
X008892Y023092D01*
X008893Y023091D01*
X008895Y02309D01*
X008897Y023088D01*
X008901Y023085D01*
X008906Y023083D01*
X008911Y023081D01*
X008918Y02308D01*
X008925Y023079D01*
X008928D01*
X008932Y02308D01*
X008937Y023081D01*
X008942Y023082D01*
X008947Y023085D01*
X008953Y023088D01*
X008958Y023092D01*
X008958Y023092D01*
X00896Y023094D01*
X008962Y023097D01*
X008965Y023101D01*
X008968Y023106D01*
X008971Y023113D01*
X008973Y02312D01*
X008975Y023129D01*
X009009Y023123D01*
Y023123D01*
X009008Y023121D01*
X009008Y02312D01*
X009008Y023117D01*
X009007Y023115D01*
X009006Y023111D01*
X009003Y023104D01*
X008999Y023095D01*
X008994Y023086D01*
X008988Y023078D01*
X008981Y02307D01*
X00898Y02307D01*
X00898Y023069D01*
X008978Y023068D01*
X008977Y023067D01*
X008975Y023066D01*
X008972Y023064D01*
X008969Y023062D01*
X008966Y02306D01*
X008958Y023057D01*
X008948Y023054D01*
X008938Y023052D01*
X008932Y023051D01*
X008922D01*
X008917Y023052D01*
X008912Y023052D01*
X008906Y023054D01*
X008899Y023056D01*
X008891Y023058D01*
X008884Y023061D01*
X008884D01*
X008883Y023062D01*
X008881Y023063D01*
X008877Y023065D01*
X008873Y023068D01*
X008869Y023072D01*
X008864Y023076D01*
X008859Y023082D01*
X008855Y023088D01*
X008854Y023089D01*
X008853Y023091D01*
X008852Y023094D01*
X00885Y023099D01*
X008848Y023104D01*
X008846Y02311D01*
X008845Y023117D01*
X008844Y023123D01*
Y023124D01*
Y023127D01*
X008845Y02313D01*
X008846Y023134D01*
X008847Y023139D01*
X008849Y023145D01*
X008851Y023151D01*
X008854Y023156D01*
X008855Y023157D01*
X008856Y023159D01*
X008859Y023161D01*
X008862Y023165D01*
X008866Y023168D01*
X008871Y023172D01*
X008876Y023176D01*
X008883Y02318D01*
X008883D01*
X008882Y02318D01*
X008881Y02318D01*
X008879Y023181D01*
X008875Y023182D01*
X008869Y023185D01*
X008863Y023188D01*
X008856Y023192D01*
X00885Y023197D01*
X008844Y023203D01*
X008844Y023204D01*
X008842Y023206D01*
X00884Y02321D01*
X008838Y023216D01*
X008835Y023222D01*
X008833Y02323D01*
X008831Y023238D01*
X008831Y023248D01*
Y023249D01*
Y02325D01*
Y023252D01*
X008831Y023254D01*
X008832Y023257D01*
X008832Y023261D01*
X008833Y023265D01*
X008834Y023269D01*
X008837Y023279D01*
X00884Y023284D01*
X008842Y023289D01*
X008845Y023294D01*
X008849Y023299D01*
X008853Y023305D01*
X008858Y023309D01*
X008858Y02331D01*
X008859Y023311D01*
X00886Y023312D01*
X008863Y023313D01*
X008865Y023315D01*
X008868Y023317D01*
X008872Y02332D01*
X008876Y023322D01*
X008881Y023324D01*
X008886Y023327D01*
X008891Y023329D01*
X008897Y023331D01*
X008903Y023332D01*
X00891Y023334D01*
X008917Y023334D01*
X008925Y023335D01*
X008928D01*
X008931Y023334D01*
D02*
G37*
G36*
X009377D02*
X009381D01*
X009385Y023334D01*
X00939Y023334D01*
X0094Y023332D01*
X00941Y02333D01*
X009421Y023328D01*
X009431Y023324D01*
X009431D01*
X009432Y023324D01*
X009433Y023323D01*
X009435Y023322D01*
X00944Y023319D01*
X009445Y023316D01*
X009452Y023311D01*
X009458Y023305D01*
X009465Y023299D01*
X009471Y023291D01*
Y023291D01*
X009472Y02329D01*
X009472Y023289D01*
X009473Y023287D01*
X009474Y023285D01*
X009475Y023283D01*
X009478Y023277D01*
X009481Y023269D01*
X009483Y023261D01*
X009485Y023251D01*
X009486Y023241D01*
X009451Y023238D01*
Y023238D01*
Y023238D01*
X009451Y02324D01*
Y023241D01*
X00945Y023245D01*
X009449Y02325D01*
X009447Y023255D01*
X009446Y023261D01*
X009443Y023267D01*
X00944Y023272D01*
X00944Y023273D01*
X009438Y023274D01*
X009436Y023277D01*
X009433Y02328D01*
X009429Y023283D01*
X009425Y023287D01*
X009419Y023291D01*
X009412Y023294D01*
X009412D01*
X009411Y023294D01*
X00941Y023295D01*
X009409Y023295D01*
X009405Y023296D01*
X0094Y023298D01*
X009393Y023299D01*
X009386Y023301D01*
X009378Y023301D01*
X009369Y023302D01*
X009366D01*
X009362Y023301D01*
X009357Y023301D01*
X009351Y0233D01*
X009345Y023299D01*
X009338Y023298D01*
X009332Y023296D01*
X009332Y023295D01*
X00933Y023295D01*
X009327Y023293D01*
X009323Y023291D01*
X00932Y023289D01*
X009316Y023286D01*
X009312Y023283D01*
X009308Y023279D01*
X009308Y023278D01*
X009307Y023277D01*
X009306Y023275D01*
X009304Y023271D01*
X009303Y023268D01*
X009302Y023264D01*
X009301Y02326D01*
X0093Y023255D01*
Y023255D01*
Y023253D01*
X009301Y02325D01*
X009301Y023247D01*
X009302Y023244D01*
X009304Y02324D01*
X009306Y023236D01*
X009308Y023232D01*
X009309Y023232D01*
X00931Y02323D01*
X009312Y023229D01*
X009314Y023226D01*
X009318Y023224D01*
X009322Y023221D01*
X009327Y023218D01*
X009333Y023216D01*
X009334Y023216D01*
X009336Y023215D01*
X009339Y023214D01*
X009341Y023214D01*
X009344Y023213D01*
X009347Y023212D01*
X00935Y023211D01*
X009354Y02321D01*
X009359Y023208D01*
X009364Y023207D01*
X009369Y023206D01*
X009376Y023204D01*
X009383Y023202D01*
X009383D01*
X009384Y023202D01*
X009386Y023202D01*
X009389Y023201D01*
X009392Y0232D01*
X009395Y023199D01*
X009403Y023197D01*
X009412Y023194D01*
X009421Y023191D01*
X00943Y023188D01*
X009433Y023187D01*
X009436Y023185D01*
X009437D01*
X009437Y023185D01*
X00944Y023183D01*
X009443Y023181D01*
X009447Y023178D01*
X009452Y023174D01*
X009457Y02317D01*
X009462Y023165D01*
X009466Y023159D01*
X009466Y023158D01*
X009467Y023156D01*
X009469Y023153D01*
X00947Y023149D01*
X009472Y023144D01*
X009474Y023138D01*
X009475Y023131D01*
X009475Y023125D01*
Y023124D01*
Y023124D01*
Y023123D01*
Y023121D01*
X009474Y023117D01*
X009474Y023112D01*
X009472Y023106D01*
X00947Y023099D01*
X009468Y023092D01*
X009464Y023085D01*
Y023085D01*
X009463Y023085D01*
X009461Y023082D01*
X009458Y023079D01*
X009455Y023075D01*
X00945Y02307D01*
X009444Y023066D01*
X009437Y023061D01*
X009429Y023057D01*
X009428D01*
X009428Y023057D01*
X009426Y023056D01*
X009425Y023056D01*
X009423Y023055D01*
X00942Y023054D01*
X009414Y023052D01*
X009406Y023051D01*
X009397Y023049D01*
X009388Y023048D01*
X009378Y023048D01*
X009373D01*
X00937Y023048D01*
X009367D01*
X009359Y023049D01*
X009351Y02305D01*
X009342Y023052D01*
X009332Y023054D01*
X009324Y023058D01*
X009323D01*
X009322Y023058D01*
X009321Y023059D01*
X00932Y02306D01*
X009316Y023062D01*
X00931Y023065D01*
X009304Y023069D01*
X009298Y023074D01*
X009293Y02308D01*
X009288Y023087D01*
Y023088D01*
X009287Y023088D01*
X009286Y023089D01*
X009286Y023091D01*
X009284Y023095D01*
X009281Y0231D01*
X009278Y023106D01*
X009276Y023114D01*
X009274Y023122D01*
X009274Y023131D01*
X009309Y023133D01*
Y023133D01*
Y023132D01*
X009309Y023131D01*
X00931Y023129D01*
X009311Y023125D01*
X009312Y023119D01*
X009315Y023112D01*
X009318Y023106D01*
X009323Y0231D01*
X009328Y023094D01*
X009329Y023094D01*
X009331Y023092D01*
X009335Y02309D01*
X009341Y023087D01*
X009347Y023085D01*
X009355Y023082D01*
X009365Y023081D01*
X009377Y02308D01*
X009382D01*
X009385Y023081D01*
X009388Y023081D01*
X009395Y023082D01*
X009403Y023084D01*
X009411Y023086D01*
X009419Y023089D01*
X009422Y023091D01*
X009425Y023093D01*
X009426Y023093D01*
X009428Y023095D01*
X00943Y023098D01*
X009432Y023101D01*
X009435Y023105D01*
X009438Y02311D01*
X009439Y023116D01*
X00944Y023122D01*
Y023123D01*
Y023125D01*
X00944Y023127D01*
X009439Y023131D01*
X009438Y023135D01*
X009436Y023139D01*
X009433Y023143D01*
X00943Y023147D01*
X009429Y023147D01*
X009427Y023148D01*
X009426Y023149D01*
X009424Y02315D01*
X009421Y023151D01*
X009419Y023153D01*
X009415Y023154D01*
X009411Y023156D01*
X009407Y023157D01*
X009401Y023159D01*
X009396Y023161D01*
X009389Y023163D01*
X009382Y023165D01*
X009374Y023167D01*
X009374D01*
X009372Y023167D01*
X00937Y023168D01*
X009367Y023168D01*
X009363Y023169D01*
X009359Y02317D01*
X009355Y023172D01*
X00935Y023173D01*
X009339Y023176D01*
X009329Y023178D01*
X009324Y02318D01*
X00932Y023182D01*
X009316Y023183D01*
X009313Y023184D01*
X009312D01*
X009312Y023185D01*
X00931Y023186D01*
X009309Y023186D01*
X009304Y023189D01*
X009299Y023192D01*
X009293Y023196D01*
X009287Y023201D01*
X009282Y023207D01*
X009277Y023213D01*
X009276Y023214D01*
X009275Y023216D01*
X009273Y023219D01*
X009271Y023224D01*
X009269Y02323D01*
X009267Y023236D01*
X009266Y023244D01*
X009265Y023252D01*
Y023253D01*
Y023253D01*
Y023254D01*
Y023256D01*
X009266Y02326D01*
X009267Y023266D01*
X009268Y023272D01*
X00927Y023279D01*
X009274Y023286D01*
X009278Y023294D01*
Y023294D01*
X009278Y023295D01*
X00928Y023297D01*
X009283Y023301D01*
X009287Y023305D01*
X009292Y023309D01*
X009299Y023315D01*
X009306Y023319D01*
X009314Y023324D01*
X009315D01*
X009316Y023324D01*
X009317Y023325D01*
X009318Y023326D01*
X009321Y023326D01*
X009324Y023328D01*
X00933Y023329D01*
X009338Y023331D01*
X009347Y023333D01*
X009357Y023334D01*
X009368Y023335D01*
X009374D01*
X009377Y023334D01*
D02*
G37*
G36*
X009636D02*
X00964D01*
X009644Y023334D01*
X009648Y023334D01*
X009658Y023332D01*
X009669Y02333D01*
X009679Y023328D01*
X009689Y023324D01*
X00969D01*
X009691Y023324D01*
X009692Y023323D01*
X009693Y023322D01*
X009698Y023319D01*
X009704Y023316D01*
X00971Y023311D01*
X009717Y023305D01*
X009723Y023299D01*
X009729Y023291D01*
Y023291D01*
X00973Y02329D01*
X009731Y023289D01*
X009732Y023287D01*
X009733Y023285D01*
X009734Y023283D01*
X009737Y023277D01*
X00974Y023269D01*
X009742Y023261D01*
X009744Y023251D01*
X009744Y023241D01*
X00971Y023238D01*
Y023238D01*
Y023238D01*
X009709Y02324D01*
Y023241D01*
X009709Y023245D01*
X009707Y02325D01*
X009706Y023255D01*
X009704Y023261D01*
X009701Y023267D01*
X009699Y023272D01*
X009698Y023273D01*
X009697Y023274D01*
X009695Y023277D01*
X009692Y02328D01*
X009688Y023283D01*
X009683Y023287D01*
X009677Y023291D01*
X009671Y023294D01*
X009671D01*
X00967Y023294D01*
X009669Y023295D01*
X009668Y023295D01*
X009664Y023296D01*
X009658Y023298D01*
X009652Y023299D01*
X009645Y023301D01*
X009637Y023301D01*
X009628Y023302D01*
X009624D01*
X00962Y023301D01*
X009616Y023301D01*
X00961Y0233D01*
X009604Y023299D01*
X009597Y023298D01*
X009591Y023296D01*
X00959Y023295D01*
X009588Y023295D01*
X009586Y023293D01*
X009582Y023291D01*
X009578Y023289D01*
X009574Y023286D01*
X00957Y023283D01*
X009567Y023279D01*
X009567Y023278D01*
X009566Y023277D01*
X009565Y023275D01*
X009563Y023271D01*
X009561Y023268D01*
X00956Y023264D01*
X009559Y02326D01*
X009559Y023255D01*
Y023255D01*
Y023253D01*
X009559Y02325D01*
X00956Y023247D01*
X009561Y023244D01*
X009562Y02324D01*
X009564Y023236D01*
X009567Y023232D01*
X009567Y023232D01*
X009569Y02323D01*
X00957Y023229D01*
X009573Y023226D01*
X009576Y023224D01*
X009581Y023221D01*
X009586Y023218D01*
X009592Y023216D01*
X009592Y023216D01*
X009594Y023215D01*
X009598Y023214D01*
X0096Y023214D01*
X009602Y023213D01*
X009605Y023212D01*
X009609Y023211D01*
X009613Y02321D01*
X009618Y023208D01*
X009622Y023207D01*
X009628Y023206D01*
X009634Y023204D01*
X009641Y023202D01*
X009642D01*
X009643Y023202D01*
X009645Y023202D01*
X009647Y023201D01*
X00965Y0232D01*
X009654Y023199D01*
X009662Y023197D01*
X009671Y023194D01*
X00968Y023191D01*
X009688Y023188D01*
X009692Y023187D01*
X009695Y023185D01*
X009695D01*
X009696Y023185D01*
X009698Y023183D01*
X009702Y023181D01*
X009706Y023178D01*
X009711Y023174D01*
X009715Y02317D01*
X00972Y023165D01*
X009723Y023162D01*
X009732Y023184D01*
X009733D01*
X009733Y023184D01*
X009735Y023183D01*
X009737Y023182D01*
X00974Y023181D01*
X009744Y023179D01*
X009747Y023178D01*
X009751Y023176D01*
X00976Y023171D01*
X00977Y023165D01*
X009781Y023158D01*
X009792Y02315D01*
X009792D01*
X009793Y023151D01*
X009795Y023152D01*
X009797Y023153D01*
X0098Y023154D01*
X009804Y023156D01*
X009806Y023156D01*
X009806Y023157D01*
X009806Y023157D01*
X009808Y023159D01*
X00981Y023162D01*
X009813Y023166D01*
X009817Y02317D01*
X009822Y023174D01*
X009828Y023178D01*
X009835Y023182D01*
X009835D01*
X009834Y023182D01*
X009833Y023183D01*
X009831Y023184D01*
X009826Y023185D01*
X009821Y023188D01*
X009814Y023192D01*
X009808Y023196D01*
X009802Y023201D01*
X009796Y023208D01*
X009796Y023208D01*
X009794Y023211D01*
X009792Y023214D01*
X009789Y023219D01*
X009787Y023226D01*
X009784Y023232D01*
X009783Y02324D01*
X009782Y023249D01*
Y02325D01*
Y02325D01*
Y023253D01*
X009783Y023257D01*
X009784Y023261D01*
X009784Y023267D01*
X009786Y023273D01*
X009788Y023279D01*
X009791Y023286D01*
X009791Y023287D01*
X009792Y023289D01*
X009794Y023291D01*
X009796Y023295D01*
X0098Y023299D01*
X009803Y023304D01*
X009807Y023308D01*
X009811Y023312D01*
X009812Y023312D01*
X009813Y023313D01*
X009816Y023315D01*
X00982Y023317D01*
X009824Y023319D01*
X009829Y023321D01*
X009835Y023324D01*
X009842Y023326D01*
X009843D01*
X009845Y023326D01*
X009849Y023327D01*
X009854Y023328D01*
X009861Y023328D01*
X009868Y023329D01*
X009877Y02333D01*
X009886Y02333D01*
X009992D01*
Y023052D01*
X00999D01*
X009991Y023039D01*
X009992Y023024D01*
Y023024D01*
Y023022D01*
Y02302D01*
X009992Y023017D01*
Y023014D01*
X009991Y023009D01*
X009991Y023005D01*
X00999Y022999D01*
X009988Y022988D01*
X009985Y022975D01*
X009981Y022962D01*
X009976Y022949D01*
X009975Y022949D01*
X009975Y022948D01*
X009974Y022946D01*
X009972Y022944D01*
X009971Y022941D01*
X009969Y022938D01*
X009963Y02293D01*
X009957Y022922D01*
X009948Y022914D01*
X009939Y022905D01*
X009928Y022898D01*
X009928Y022898D01*
X009927Y022897D01*
X009925Y022896D01*
X009923Y022895D01*
X00992Y022894D01*
X009917Y022892D01*
X009913Y022891D01*
X009908Y022889D01*
X009903Y022888D01*
X009898Y022886D01*
X009886Y022883D01*
X009873Y022881D01*
X009867Y02288D01*
X009856D01*
X009853Y022881D01*
X009849D01*
X009846Y022881D01*
X009841Y022882D01*
X009836Y022883D01*
X009826Y022885D01*
X009814Y022888D01*
X009802Y022893D01*
X009796Y022896D01*
X00979Y022899D01*
X00979Y022899D01*
X009789Y0229D01*
X009787Y022901D01*
X009785Y022902D01*
X009782Y022904D01*
X009779Y022906D01*
X009772Y022912D01*
X009765Y022919D01*
X009757Y022928D01*
X00975Y022938D01*
X009743Y02295D01*
Y02295D01*
X009742Y022952D01*
X009742Y022953D01*
X009741Y022956D01*
X009739Y022959D01*
X009738Y022963D01*
X009736Y022967D01*
X009735Y022972D01*
X009733Y022977D01*
X009732Y022983D01*
X00973Y022989D01*
X009729Y022995D01*
X009727Y023009D01*
X009727Y023024D01*
Y023024D01*
Y023025D01*
Y023027D01*
Y023029D01*
X009727Y023033D01*
Y023036D01*
X009727Y02304D01*
X009728Y023044D01*
X009729Y023054D01*
X009731Y023064D01*
X009733Y023075D01*
X009737Y023086D01*
Y023086D01*
X009737Y023087D01*
X009738Y023088D01*
X009739Y02309D01*
X00974Y023092D01*
X009742Y023095D01*
X009745Y023102D01*
X009749Y023109D01*
X009755Y023117D01*
X009761Y023125D01*
X009768Y023133D01*
X009768D01*
X009767Y023134D01*
X009766Y023135D01*
X009764Y023136D01*
X009762Y023138D01*
X009759Y023139D01*
X009753Y023143D01*
X009746Y023147D01*
X009738Y023152D01*
X009729Y023155D01*
X009725Y023157D01*
X009726Y023156D01*
X009727Y023153D01*
X009729Y023149D01*
X009731Y023144D01*
X009732Y023138D01*
X009733Y023131D01*
X009734Y023125D01*
Y023124D01*
Y023124D01*
Y023123D01*
Y023121D01*
X009733Y023117D01*
X009732Y023112D01*
X009731Y023106D01*
X009729Y023099D01*
X009726Y023092D01*
X009722Y023085D01*
Y023085D01*
X009722Y023085D01*
X00972Y023082D01*
X009717Y023079D01*
X009713Y023075D01*
X009709Y02307D01*
X009703Y023066D01*
X009695Y023061D01*
X009687Y023057D01*
X009687D01*
X009686Y023057D01*
X009685Y023056D01*
X009683Y023056D01*
X009681Y023055D01*
X009679Y023054D01*
X009673Y023052D01*
X009665Y023051D01*
X009656Y023049D01*
X009647Y023048D01*
X009636Y023048D01*
X009631D01*
X009628Y023048D01*
X009626D01*
X009618Y023049D01*
X00961Y02305D01*
X009601Y023052D01*
X009591Y023054D01*
X009582Y023058D01*
X009582D01*
X009581Y023058D01*
X00958Y023059D01*
X009578Y02306D01*
X009574Y023062D01*
X009569Y023065D01*
X009563Y023069D01*
X009557Y023074D01*
X009551Y02308D01*
X009546Y023087D01*
Y023088D01*
X009546Y023088D01*
X009545Y023082D01*
Y023081D01*
Y02308D01*
Y023079D01*
X009546Y023078D01*
X009546Y023073D01*
X009547Y023068D01*
X009549Y023062D01*
X009552Y023055D01*
X009556Y023049D01*
X009561Y023043D01*
X009562Y023042D01*
X009564Y02304D01*
X009567Y023038D01*
X009571Y023035D01*
X009577Y023032D01*
X009584Y02303D01*
X009592Y023028D01*
X0096Y023027D01*
X009604D01*
X009606Y023028D01*
X00961Y023028D01*
X009614Y023029D01*
X009619Y02303D01*
X009624Y023031D01*
X00962Y023001D01*
X009618D01*
X009616Y023001D01*
X009611D01*
X009607Y023001D01*
X009602Y023D01*
X009596Y022999D01*
X009589Y022997D01*
X009582Y022994D01*
X009575Y02299D01*
X009575D01*
X009575Y02299D01*
X009573Y022988D01*
X00957Y022985D01*
X009567Y022982D01*
X009563Y022977D01*
X009561Y022971D01*
X009559Y022964D01*
X009558Y02296D01*
Y022955D01*
Y022955D01*
Y022954D01*
Y022952D01*
X009559Y022949D01*
X009559Y022944D01*
X009561Y02294D01*
X009563Y022934D01*
X009566Y022929D01*
X009571Y022924D01*
X009571Y022924D01*
X009573Y022922D01*
X009576Y02292D01*
X009579Y022918D01*
X009584Y022916D01*
X00959Y022914D01*
X009596Y022912D01*
X009604Y022912D01*
X009607D01*
X00961Y022913D01*
X009615Y022914D01*
X00962Y022915D01*
X009626Y022917D01*
X009631Y02292D01*
X009636Y022924D01*
X009637Y022925D01*
X009638Y022927D01*
X009641Y02293D01*
X009644Y022934D01*
X009646Y022939D01*
X009649Y022945D01*
X009652Y022953D01*
X009653Y022962D01*
X009687Y022956D01*
Y022955D01*
X009687Y022954D01*
X009687Y022952D01*
X009686Y02295D01*
X009685Y022947D01*
X009684Y022944D01*
X009682Y022936D01*
X009678Y022928D01*
X009673Y022919D01*
X009667Y02291D01*
X009659Y022903D01*
X009659Y022902D01*
X009658Y022902D01*
X009657Y022901D01*
X009655Y0229D01*
X009653Y022898D01*
X00965Y022897D01*
X009648Y022895D01*
X009644Y022893D01*
X009636Y02289D01*
X009627Y022887D01*
X009616Y022885D01*
X00961Y022884D01*
X0096D01*
X009596Y022884D01*
X009591Y022885D01*
X009584Y022886D01*
X009577Y022888D01*
X00957Y022891D01*
X009563Y022894D01*
X009562D01*
X009562Y022894D01*
X009559Y022896D01*
X009556Y022898D01*
X009552Y022901D01*
X009547Y022905D01*
X009542Y022909D01*
X009537Y022914D01*
X009533Y02292D01*
X009533Y022921D01*
X009532Y022923D01*
X00953Y022927D01*
X009528Y022931D01*
X009526Y022936D01*
X009525Y022942D01*
X009523Y022949D01*
X009523Y022956D01*
Y022957D01*
Y022959D01*
X009523Y022963D01*
X009524Y022967D01*
X009525Y022972D01*
X009527Y022978D01*
X00953Y022983D01*
X009533Y022989D01*
X009533Y02299D01*
X009535Y022991D01*
X009537Y022994D01*
X00954Y022997D01*
X009544Y023001D01*
X009549Y023005D01*
X009555Y023009D01*
X009561Y023012D01*
X009561D01*
X00956Y023013D01*
X009559Y023013D01*
X009557Y023013D01*
X009553Y023015D01*
X009547Y023017D01*
X009541Y023021D01*
X009535Y023025D01*
X009529Y02303D01*
X009523Y023036D01*
X009523Y023037D01*
X009521Y023039D01*
X009519Y023043D01*
X009516Y023048D01*
X009514Y023055D01*
X009511Y023062D01*
X00951Y023071D01*
X009509Y023081D01*
Y023081D01*
Y023082D01*
Y023084D01*
X00951Y023087D01*
X00951Y02309D01*
X009511Y023094D01*
X009512Y023098D01*
X009513Y023102D01*
X009516Y023112D01*
X009518Y023117D01*
X009521Y023122D01*
X009524Y023127D01*
X009527Y023132D01*
X009531Y023137D01*
X009536Y023142D01*
X009537Y023143D01*
X009537Y023143D01*
X009539Y023145D01*
X009541Y023146D01*
X009543Y023148D01*
X009547Y02315D01*
X00955Y023153D01*
X009555Y023155D01*
X009559Y023157D01*
X009564Y023159D01*
X009569Y023161D01*
X009575Y023163D01*
X009582Y023165D01*
X009589Y023166D01*
X009596Y023167D01*
X009603Y023167D01*
X009607D01*
X009609Y023167D01*
X009612Y023167D01*
X009616Y023166D01*
X00962Y023165D01*
X009624Y023165D01*
X009634Y023162D01*
X009644Y023158D01*
X009649Y023156D01*
X009654Y023153D01*
X009659Y023149D01*
X009664Y023146D01*
X009664Y023145D01*
X009665Y023145D01*
X009666Y023143D01*
X009667Y023142D01*
X009669Y02314D01*
X009671Y023137D01*
X009674Y023134D01*
X009676Y023131D01*
X009679Y023127D01*
X009681Y023122D01*
X009685Y023113D01*
X009689Y023102D01*
X009689Y023099D01*
X009691Y023101D01*
X009694Y023105D01*
X009696Y02311D01*
X009698Y023116D01*
X009699Y023122D01*
Y023123D01*
Y023125D01*
X009698Y023127D01*
X009697Y023131D01*
X009696Y023135D01*
X009694Y023139D01*
X009692Y023143D01*
X009688Y023147D01*
X009688Y023147D01*
X009686Y023148D01*
X009684Y023149D01*
X009683Y02315D01*
X00968Y023151D01*
X009677Y023153D01*
X009674Y023154D01*
X00967Y023156D01*
X009665Y023157D01*
X00966Y023159D01*
X009654Y023161D01*
X009648Y023163D01*
X009641Y023165D01*
X009633Y023167D01*
X009632D01*
X009631Y023167D01*
X009628Y023168D01*
X009626Y023168D01*
X009622Y023169D01*
X009618Y02317D01*
X009613Y023172D01*
X009608Y023173D01*
X009598Y023176D01*
X009588Y023178D01*
X009583Y02318D01*
X009579Y023182D01*
X009575Y023183D01*
X009571Y023184D01*
X009571D01*
X00957Y023185D01*
X009569Y023186D01*
X009567Y023186D01*
X009563Y023189D01*
X009558Y023192D01*
X009552Y023196D01*
X009546Y023201D01*
X00954Y023207D01*
X009535Y023213D01*
X009535Y023214D01*
X009533Y023216D01*
X009532Y023219D01*
X009529Y023224D01*
X009527Y02323D01*
X009525Y023236D01*
X009524Y023244D01*
X009524Y023252D01*
Y023253D01*
Y023253D01*
Y023254D01*
Y023256D01*
X009525Y02326D01*
X009525Y023266D01*
X009527Y023272D01*
X009529Y023279D01*
X009532Y023286D01*
X009537Y023294D01*
Y023294D01*
X009537Y023295D01*
X009539Y023297D01*
X009542Y023301D01*
X009546Y023305D01*
X009551Y023309D01*
X009557Y023315D01*
X009565Y023319D01*
X009573Y023324D01*
X009573D01*
X009574Y023324D01*
X009575Y023325D01*
X009577Y023326D01*
X009579Y023326D01*
X009582Y023328D01*
X009589Y023329D01*
X009596Y023331D01*
X009606Y023333D01*
X009616Y023334D01*
X009626Y023335D01*
X009633D01*
X009636Y023334D01*
D02*
G37*
G36*
X009134Y023113D02*
X009135Y023113D01*
X009137Y023115D01*
X009139Y023117D01*
X009143Y02312D01*
X009148Y023124D01*
X009153Y023128D01*
X00916Y023132D01*
X009167Y023137D01*
X009167D01*
X009168Y023137D01*
X00917Y023139D01*
X009174Y023141D01*
X009179Y023143D01*
X009185Y023146D01*
X009191Y023149D01*
X009197Y023151D01*
X009203Y023154D01*
Y023121D01*
X009202D01*
X009201Y02312D01*
X0092Y02312D01*
X009198Y023119D01*
X009195Y023117D01*
X009193Y023116D01*
X009186Y023112D01*
X009178Y023107D01*
X00917Y023102D01*
X009161Y023095D01*
X009153Y023089D01*
X009152Y023088D01*
X009152Y023088D01*
X009151Y023087D01*
X009149Y023085D01*
X009146Y023081D01*
X009141Y023076D01*
X009136Y023071D01*
X009131Y023064D01*
X009126Y023058D01*
X009122Y023051D01*
X0091D01*
Y02333D01*
X009134D01*
Y023113D01*
D02*
G37*
G36*
X008713Y023334D02*
X008717Y023334D01*
X008721Y023334D01*
X008725Y023333D01*
X00873Y023332D01*
X008741Y023329D01*
X008746Y023327D01*
X008751Y023325D01*
X008757Y023322D01*
X008763Y023319D01*
X008768Y023315D01*
X008773Y023311D01*
X008773Y02331D01*
X008774Y023309D01*
X008775Y023308D01*
X008777Y023306D01*
X008778Y023304D01*
X008781Y023301D01*
X008783Y023298D01*
X008785Y023294D01*
X008788Y02329D01*
X00879Y023285D01*
X008794Y023275D01*
X008795Y023269D01*
X008796Y023263D01*
X008797Y023257D01*
X008798Y02325D01*
Y02325D01*
Y023249D01*
Y023247D01*
X008797Y023246D01*
Y023243D01*
X008797Y02324D01*
X008796Y023234D01*
X008794Y023227D01*
X008792Y02322D01*
X008788Y023212D01*
X008784Y023205D01*
Y023204D01*
X008783Y023204D01*
X008782Y023202D01*
X008778Y023199D01*
X008774Y023195D01*
X008768Y023191D01*
X008761Y023186D01*
X008754Y023183D01*
X008745Y02318D01*
X008745D01*
X008745Y02318D01*
X008747Y023179D01*
X008748Y023178D01*
X008752Y023177D01*
X008757Y023174D01*
X008762Y023171D01*
X008767Y023167D01*
X008772Y023163D01*
X008776Y023158D01*
X008777Y023157D01*
X008778Y023155D01*
X00878Y023152D01*
X008781Y023148D01*
X008783Y023143D01*
X008785Y023137D01*
X008786Y02313D01*
X008786Y023123D01*
Y023123D01*
Y023122D01*
Y02312D01*
X008786Y023118D01*
X008786Y023115D01*
X008785Y023112D01*
X008784Y023105D01*
X008781Y023097D01*
X008777Y023089D01*
X008775Y023085D01*
X008772Y02308D01*
X008768Y023076D01*
X008765Y023072D01*
X008764Y023072D01*
X008763Y023071D01*
X008762Y02307D01*
X008761Y023069D01*
X008759Y023067D01*
X008756Y023066D01*
X008753Y023064D01*
X008749Y023062D01*
X008745Y02306D01*
X008741Y023058D01*
X008736Y023056D01*
X008731Y023054D01*
X00872Y023052D01*
X008713Y023052D01*
X008707Y023051D01*
X008703D01*
X008701Y023052D01*
X008698Y023052D01*
X008694Y023052D01*
X00869Y023053D01*
X008686Y023054D01*
X008676Y023056D01*
X008667Y02306D01*
X008662Y023062D01*
X008657Y023065D01*
X008653Y023069D01*
X008648Y023072D01*
X008648Y023073D01*
X008648Y023073D01*
X008646Y023074D01*
X008645Y023076D01*
X008643Y023078D01*
X008641Y023081D01*
X008637Y023087D01*
X008633Y023095D01*
X00863Y023103D01*
X008627Y023113D01*
X008626Y023119D01*
X008626Y023124D01*
Y023125D01*
Y023125D01*
Y023127D01*
X008626Y023131D01*
X008627Y023135D01*
X008628Y023141D01*
X00863Y023147D01*
X008633Y023152D01*
X008636Y023158D01*
X008637Y023159D01*
X008638Y02316D01*
X008641Y023163D01*
X008644Y023166D01*
X008648Y02317D01*
X008654Y023173D01*
X00866Y023177D01*
X008667Y02318D01*
X008666D01*
X008666Y02318D01*
X008664Y023181D01*
X008663Y023182D01*
X008658Y023184D01*
X008652Y023186D01*
X008646Y02319D01*
X00864Y023195D01*
X008634Y0232D01*
X008628Y023207D01*
Y023207D01*
X008628Y023208D01*
X008626Y02321D01*
X008624Y023214D01*
X008622Y023219D01*
X008619Y023226D01*
X008617Y023233D01*
X008615Y023242D01*
X008615Y023251D01*
Y023251D01*
Y023253D01*
Y023255D01*
X008615Y023257D01*
X008615Y02326D01*
X008616Y023263D01*
X008617Y023267D01*
X008618Y023272D01*
X008621Y023281D01*
X008623Y023286D01*
X008626Y023291D01*
X008628Y023296D01*
X008632Y023301D01*
X008636Y023306D01*
X00864Y023311D01*
X00864Y023311D01*
X008641Y023312D01*
X008642Y023313D01*
X008644Y023314D01*
X008647Y023316D01*
X00865Y023318D01*
X008654Y02332D01*
X008658Y023323D01*
X008662Y023325D01*
X008667Y023327D01*
X008673Y023329D01*
X008678Y023331D01*
X008685Y023332D01*
X008692Y023334D01*
X008698Y023334D01*
X008706Y023335D01*
X00871D01*
X008713Y023334D01*
D02*
G37*
%LPC*%
G36*
X030503Y053695D02*
X030437D01*
Y053611D01*
X030505D01*
X03051Y053612D01*
X030516Y053612D01*
X030522Y053612D01*
X030527Y053613D01*
X030532Y053614D01*
X030532Y053614D01*
X030534Y053615D01*
X030536Y053616D01*
X03054Y053618D01*
X030543Y053619D01*
X030546Y053622D01*
X03055Y053625D01*
X030553Y053628D01*
X030553Y053628D01*
X030554Y05363D01*
X030555Y053632D01*
X030556Y053635D01*
X030558Y053638D01*
X030559Y053642D01*
X03056Y053647D01*
X03056Y053652D01*
Y053653D01*
Y053655D01*
X03056Y053657D01*
X030559Y05366D01*
X030558Y053664D01*
X030557Y053668D01*
X030556Y053672D01*
X030553Y053676D01*
X030553Y053677D01*
X030552Y053678D01*
X03055Y05368D01*
X030548Y053682D01*
X030546Y053684D01*
X030542Y053687D01*
X030538Y053689D01*
X030534Y053691D01*
X030534D01*
X030532Y053691D01*
X030529Y053692D01*
X030524Y053693D01*
X030518Y053693D01*
X030511Y053694D01*
X030503Y053695D01*
D02*
G37*
G36*
X03051Y053578D02*
X030437D01*
Y053483D01*
X030516D01*
X030524Y053483D01*
X030528Y053484D01*
X030531Y053484D01*
X030532D01*
X030533Y053484D01*
X030536Y053485D01*
X030538Y053486D01*
X030545Y053488D01*
X030552Y053491D01*
X030552Y053492D01*
X030554Y053493D01*
X030555Y053494D01*
X030557Y053495D01*
X030559Y053498D01*
X030562Y0535D01*
X030564Y053503D01*
X030566Y053507D01*
X030567Y053507D01*
X030567Y053509D01*
X030568Y053511D01*
X030569Y053514D01*
X03057Y053517D01*
X030571Y053521D01*
X030572Y053526D01*
X030572Y053531D01*
Y053531D01*
Y053533D01*
X030572Y053536D01*
X030571Y05354D01*
X03057Y053544D01*
X030568Y053548D01*
X030566Y053553D01*
X030564Y053557D01*
X030563Y053557D01*
X030562Y053559D01*
X03056Y053561D01*
X030558Y053563D01*
X030555Y053566D01*
X030551Y053569D01*
X030546Y053572D01*
X030541Y053574D01*
X03054Y053574D01*
X030539Y053574D01*
X030535Y053575D01*
X030531Y053576D01*
X030525Y053577D01*
X030518Y053578D01*
X03051Y053578D01*
D02*
G37*
G36*
X031686Y053701D02*
X031683D01*
X031679Y0537D01*
X031674Y053699D01*
X031669Y053697D01*
X031664Y053695D01*
X031658Y053692D01*
X031653Y053688D01*
X031653Y053687D01*
X031651Y053686D01*
X031649Y053683D01*
X031647Y053679D01*
X031645Y053675D01*
X031643Y05367D01*
X031641Y053664D01*
X031641Y053658D01*
Y053657D01*
Y053657D01*
X031641Y053655D01*
X031641Y053651D01*
X031642Y053646D01*
X031644Y053641D01*
X031646Y053636D01*
X031649Y05363D01*
X031653Y053626D01*
X031654Y053625D01*
X031656Y053624D01*
X031658Y053622D01*
X031662Y05362D01*
X031667Y053617D01*
X031672Y053615D01*
X031679Y053614D01*
X031686Y053613D01*
X031687D01*
X031689Y053614D01*
X031693Y053614D01*
X031698Y053615D01*
X031703Y053616D01*
X031708Y053618D01*
X031714Y053622D01*
X031718Y053626D01*
X031719Y053626D01*
X03172Y053628D01*
X031723Y05363D01*
X031725Y053634D01*
X031727Y053638D01*
X031729Y053644D01*
X031731Y05365D01*
X031731Y053656D01*
Y053657D01*
Y053657D01*
Y053659D01*
X031731Y053663D01*
X03173Y053667D01*
X031728Y053672D01*
X031726Y053677D01*
X031723Y053683D01*
X031718Y053688D01*
X031718Y053688D01*
X031716Y05369D01*
X031713Y053692D01*
X031709Y053694D01*
X031704Y053697D01*
X031699Y053699D01*
X031693Y0537D01*
X031686Y053701D01*
D02*
G37*
G36*
X031685Y053586D02*
X031682D01*
X031681Y053585D01*
X031676Y053585D01*
X031671Y053584D01*
X031664Y053582D01*
X031658Y053579D01*
X031651Y053575D01*
X031645Y053569D01*
X031644Y053569D01*
X031643Y053567D01*
X03164Y053563D01*
X031637Y053559D01*
X031634Y053553D01*
X031632Y053546D01*
X03163Y053538D01*
X031629Y05353D01*
Y053529D01*
Y053527D01*
X03163Y053525D01*
X03163Y053521D01*
X031631Y053517D01*
X031632Y053512D01*
X031634Y053507D01*
X031636Y053502D01*
X031636Y053501D01*
X031637Y053499D01*
X031639Y053497D01*
X031641Y053494D01*
X031644Y053491D01*
X031648Y053487D01*
X031652Y053484D01*
X031656Y05348D01*
X031657Y05348D01*
X031659Y053479D01*
X031662Y053478D01*
X031665Y053477D01*
X03167Y053476D01*
X031675Y053474D01*
X03168Y053474D01*
X031686Y053473D01*
X031688D01*
X03169Y053474D01*
X031695Y053474D01*
X0317Y053475D01*
X031707Y053477D01*
X031714Y05348D01*
X03172Y053484D01*
X031727Y053489D01*
X031727Y05349D01*
X031729Y053492D01*
X031732Y053495D01*
X031735Y0535D01*
X031737Y053505D01*
X03174Y053512D01*
X031742Y05352D01*
X031743Y053529D01*
Y053529D01*
Y05353D01*
Y053531D01*
X031742Y053533D01*
X031742Y053537D01*
X031741Y053543D01*
X031739Y053549D01*
X031736Y053556D01*
X031732Y053563D01*
X031726Y053569D01*
X031725Y05357D01*
X031723Y053572D01*
X03172Y053574D01*
X031715Y053578D01*
X031709Y05358D01*
X031702Y053583D01*
X031694Y053585D01*
X031685Y053586D01*
D02*
G37*
G36*
X02916Y053646D02*
X029156D01*
X029153Y053646D01*
X02915Y053645D01*
X029146Y053644D01*
X029141Y053643D01*
X029137Y053642D01*
X029131Y053641D01*
X029126Y053639D01*
X02912Y053637D01*
X029114Y053634D01*
X029109Y053631D01*
X029103Y053627D01*
X029097Y053623D01*
X029092Y053617D01*
X029092Y053617D01*
X029091Y053616D01*
X02909Y053615D01*
X029088Y053612D01*
X029086Y053609D01*
X029084Y053606D01*
X029081Y053601D01*
X029079Y053597D01*
X029076Y053591D01*
X029074Y053585D01*
X029072Y053578D01*
X02907Y05357D01*
X029068Y053562D01*
X029066Y053553D01*
X029066Y053544D01*
X029065Y053534D01*
Y053533D01*
Y053531D01*
Y053528D01*
X029066Y053525D01*
X029066Y05352D01*
X029067Y053515D01*
X029068Y053509D01*
X029068Y053503D01*
X029072Y05349D01*
X029074Y053483D01*
X029076Y053476D01*
X029079Y053469D01*
X029083Y053463D01*
X029087Y053456D01*
X029092Y053451D01*
X029092Y05345D01*
X029093Y053449D01*
X029095Y053448D01*
X029097Y053446D01*
X029099Y053444D01*
X029103Y053441D01*
X029106Y053439D01*
X029111Y053436D01*
X029115Y053433D01*
X02912Y053431D01*
X029126Y053429D01*
X029132Y053426D01*
X029139Y053425D01*
X029145Y053423D01*
X029153Y053422D01*
X02916Y053422D01*
X029164D01*
X029168Y053422D01*
X029172Y053423D01*
X029178Y053423D01*
X029184Y053425D01*
X029191Y053427D01*
X029198Y053429D01*
X029197Y053429D01*
X029195Y053431D01*
X029191Y053433D01*
X029187Y053435D01*
X029181Y053438D01*
X029175Y053441D01*
X029168Y053443D01*
X029161Y053445D01*
X02917Y053471D01*
X029171D01*
X029172Y053471D01*
X029174Y053471D01*
X029176Y05347D01*
X029178Y053469D01*
X029182Y053468D01*
X029189Y053465D01*
X029197Y053461D01*
X029206Y053457D01*
X029214Y053451D01*
X029223Y053445D01*
X029223Y053445D01*
X029224Y053446D01*
X029226Y053448D01*
X029228Y053451D01*
X02923Y053454D01*
X029233Y053457D01*
X029236Y053462D01*
X029239Y053467D01*
X029242Y053473D01*
X029245Y05348D01*
X029248Y053487D01*
X02925Y053495D01*
X029253Y053504D01*
X029254Y053513D01*
X029255Y053523D01*
X029255Y053534D01*
Y053534D01*
Y053535D01*
Y053537D01*
Y053539D01*
X029255Y053542D01*
Y053546D01*
X029255Y05355D01*
X029254Y053554D01*
X029253Y053563D01*
X029251Y053573D01*
X029248Y053583D01*
X029244Y053593D01*
Y053593D01*
X029243Y053594D01*
X029242Y053595D01*
X029242Y053597D01*
X029239Y053601D01*
X029235Y053607D01*
X02923Y053613D01*
X029224Y05362D01*
X029218Y053626D01*
X02921Y053632D01*
X02921D01*
X029209Y053633D01*
X029208Y053633D01*
X029206Y053634D01*
X029204Y053635D01*
X029202Y053636D01*
X029196Y053639D01*
X029188Y053641D01*
X02918Y053644D01*
X02917Y053646D01*
X02916Y053646D01*
D02*
G37*
G36*
X035334Y039085D02*
X035333D01*
X035331D01*
X035328D01*
X035325Y039084D01*
X03532Y039084D01*
X035315Y039083D01*
X035309Y039082D01*
X035305Y039082D01*
Y038935D01*
X035273D01*
Y039072D01*
X035269Y039071D01*
X035263Y039067D01*
X035256Y039063D01*
X035251Y039058D01*
X03525Y039058D01*
X035249Y039057D01*
X035248Y039055D01*
X035246Y039053D01*
X035244Y039051D01*
X035241Y039047D01*
X035239Y039044D01*
X035236Y039039D01*
X035233Y039035D01*
X035231Y03903D01*
X035229Y039024D01*
X035226Y039018D01*
X035225Y039011D01*
X035223Y039005D01*
X035222Y038997D01*
X035222Y03899D01*
Y038986D01*
X035222Y038982D01*
X035223Y038978D01*
X035223Y038972D01*
X035225Y038966D01*
X035227Y038959D01*
X035229Y038952D01*
X035229Y038953D01*
X035231Y038955D01*
X035233Y038959D01*
X035235Y038963D01*
X035238Y038969D01*
X035241Y038975D01*
X035243Y038982D01*
X035245Y038989D01*
X035271Y03898D01*
Y038979D01*
X035271Y038978D01*
X035271Y038976D01*
X03527Y038974D01*
X035269Y038972D01*
X035268Y038968D01*
X035265Y038961D01*
X035261Y038953D01*
X035257Y038944D01*
X035251Y038936D01*
X035245Y038927D01*
X035245Y038927D01*
X035246Y038926D01*
X035248Y038924D01*
X035251Y038922D01*
X035254Y03892D01*
X035257Y038917D01*
X035262Y038914D01*
X035267Y038911D01*
X035273Y038908D01*
X03528Y038905D01*
X035287Y038902D01*
X035295Y0389D01*
X035304Y038897D01*
X035313Y038896D01*
X035323Y038895D01*
X035334Y038895D01*
X035334D01*
X035335D01*
X035337D01*
X035339D01*
X035342Y038895D01*
X035346D01*
X03535Y038895D01*
X035354Y038896D01*
X035363Y038897D01*
X035373Y038899D01*
X035383Y038902D01*
X035393Y038906D01*
X035393D01*
X035394Y038907D01*
X035395Y038908D01*
X035397Y038908D01*
X035401Y038911D01*
X035407Y038915D01*
X035413Y03892D01*
X03542Y038926D01*
X035426Y038932D01*
X035432Y03894D01*
Y03894D01*
X035433Y038941D01*
X035433Y038942D01*
X035434Y038944D01*
X035435Y038946D01*
X035436Y038948D01*
X035439Y038954D01*
X035441Y038962D01*
X035444Y03897D01*
X035445Y03898D01*
X035446Y03899D01*
Y038994D01*
X035445Y038997D01*
X035445Y039D01*
X035444Y039004D01*
X035443Y039009D01*
X035442Y039013D01*
X035441Y039019D01*
X035439Y039024D01*
X035437Y03903D01*
X035434Y039036D01*
X035431Y039041D01*
X035427Y039047D01*
X035423Y039053D01*
X035417Y039058D01*
X035417Y039058D01*
X035416Y039059D01*
X035415Y03906D01*
X035412Y039062D01*
X035409Y039064D01*
X035406Y039066D01*
X035401Y039069D01*
X035397Y039071D01*
X035391Y039074D01*
X035385Y039076D01*
X035378Y039078D01*
X03537Y03908D01*
X035362Y039082D01*
X035353Y039084D01*
X035344Y039084D01*
X035334Y039085D01*
D02*
G37*
G36*
X035148Y038866D02*
Y038754D01*
X035148D01*
X035149D01*
X03515Y038754D01*
X035152D01*
X035157Y038755D01*
X035162Y038756D01*
X035168Y038758D01*
X035174Y03876D01*
X03518Y038763D01*
X035186Y038767D01*
X035186D01*
X035186Y038768D01*
X035189Y03877D01*
X035192Y038773D01*
X035196Y038778D01*
X035199Y038784D01*
X035202Y038791D01*
X035205Y0388D01*
X035205Y038804D01*
X035206Y038809D01*
Y038811D01*
X035205Y038813D01*
X035205Y038817D01*
X035204Y038822D01*
X035202Y038829D01*
X035199Y038836D01*
X035195Y038842D01*
X03519Y038849D01*
X035189Y038849D01*
X035187Y038851D01*
X035183Y038854D01*
X035178Y038857D01*
X035173Y03886D01*
X035166Y038863D01*
X035157Y038865D01*
X035148Y038866D01*
D02*
G37*
G36*
X035273Y038419D02*
X035174D01*
Y038344D01*
X035174Y038341D01*
Y038338D01*
X035174Y038335D01*
X035175Y038328D01*
X035177Y038319D01*
X035179Y038311D01*
X035182Y038303D01*
X035184Y0383D01*
X035187Y038297D01*
X035188Y038296D01*
X035189Y038294D01*
X035192Y038292D01*
X035196Y038289D01*
X035202Y038286D01*
X035208Y038284D01*
X035215Y038282D01*
X035224Y038282D01*
X035224D01*
X035224D01*
X035226D01*
X03523Y038282D01*
X035234Y038283D01*
X035238Y038284D01*
X035244Y038285D01*
X035248Y038288D01*
X035253Y03829D01*
X035254Y038291D01*
X035255Y038292D01*
X035257Y038294D01*
X03526Y038296D01*
X035263Y0383D01*
X035265Y038304D01*
X035268Y038308D01*
X03527Y038314D01*
Y038314D01*
X03527Y038316D01*
X035271Y038318D01*
X035271Y038321D01*
X035272Y038326D01*
X035272Y038332D01*
X035273Y038339D01*
Y038419D01*
D02*
G37*
G36*
X010756Y023307D02*
X010754D01*
X010752Y023306D01*
X010747Y023306D01*
X010742Y023305D01*
X010735Y023303D01*
X010728Y0233D01*
X010722Y023296D01*
X010716Y023291D01*
X010715Y02329D01*
X010713Y023288D01*
X01071Y023285D01*
X010708Y02328D01*
X010705Y023275D01*
X010702Y023268D01*
X0107Y02326D01*
X0107Y023251D01*
Y023251D01*
Y02325D01*
Y023249D01*
X0107Y023247D01*
X0107Y023243D01*
X010702Y023237D01*
X010704Y023231D01*
X010706Y023224D01*
X01071Y023217D01*
X010716Y023211D01*
X010717Y02321D01*
X010719Y023208D01*
X010722Y023206D01*
X010727Y023202D01*
X010733Y0232D01*
X01074Y023197D01*
X010748Y023195D01*
X010757Y023194D01*
X01076D01*
X010761Y023195D01*
X010766Y023195D01*
X010771Y023196D01*
X010778Y023198D01*
X010784Y023201D01*
X010791Y023205D01*
X010797Y02321D01*
X010798Y023211D01*
X010799Y023213D01*
X010802Y023217D01*
X010805Y023221D01*
X010808Y023227D01*
X01081Y023234D01*
X010812Y023242D01*
X010813Y02325D01*
Y023251D01*
Y023253D01*
X010812Y023255D01*
X010812Y023259D01*
X010811Y023263D01*
X01081Y023268D01*
X010808Y023273D01*
X010806Y023278D01*
X010806Y023279D01*
X010805Y023281D01*
X010803Y023283D01*
X010801Y023286D01*
X010798Y023289D01*
X010795Y023293D01*
X010791Y023296D01*
X010786Y023299D01*
X010785Y0233D01*
X010783Y023301D01*
X010781Y023302D01*
X010777Y023303D01*
X010773Y023304D01*
X010767Y023305D01*
X010762Y023306D01*
X010756Y023307D01*
D02*
G37*
G36*
Y023167D02*
X010755D01*
X010753Y023166D01*
X010749Y023166D01*
X010744Y023165D01*
X010739Y023164D01*
X010734Y023161D01*
X010728Y023158D01*
X010724Y023154D01*
X010723Y023154D01*
X010722Y023152D01*
X01072Y023149D01*
X010717Y023146D01*
X010715Y023141D01*
X010713Y023136D01*
X010711Y02313D01*
X010711Y023124D01*
Y023123D01*
Y023123D01*
Y023121D01*
X010712Y023117D01*
X010712Y023113D01*
X010714Y023108D01*
X010716Y023103D01*
X01072Y023097D01*
X010724Y023092D01*
X010724Y023092D01*
X010726Y02309D01*
X010729Y023088D01*
X010733Y023086D01*
X010738Y023083D01*
X010743Y023081D01*
X010749Y02308D01*
X010756Y023079D01*
X010759D01*
X010763Y02308D01*
X010768Y023081D01*
X010773Y023082D01*
X010779Y023085D01*
X010784Y023088D01*
X010789Y023092D01*
X010789Y023093D01*
X010791Y023094D01*
X010793Y023097D01*
X010795Y023101D01*
X010797Y023105D01*
X010799Y02311D01*
X010801Y023116D01*
X010801Y023122D01*
Y023123D01*
Y023123D01*
X010801Y023125D01*
X010801Y023129D01*
X0108Y023133D01*
X010798Y023139D01*
X010796Y023144D01*
X010793Y023149D01*
X010789Y023154D01*
X010789Y023155D01*
X010787Y023156D01*
X010784Y023158D01*
X01078Y02316D01*
X010775Y023163D01*
X01077Y023165D01*
X010763Y023166D01*
X010756Y023167D01*
D02*
G37*
G36*
X012005Y023297D02*
X011926D01*
X011918Y023297D01*
X011914Y023296D01*
X011911Y023296D01*
X011911D01*
X011909Y023295D01*
X011907Y023295D01*
X011904Y023294D01*
X011897Y023292D01*
X01189Y023289D01*
X01189Y023288D01*
X011889Y023287D01*
X011887Y023286D01*
X011885Y023285D01*
X011883Y023282D01*
X01188Y02328D01*
X011878Y023277D01*
X011876Y023273D01*
X011875Y023273D01*
X011875Y023271D01*
X011874Y023269D01*
X011873Y023266D01*
X011872Y023263D01*
X011871Y023259D01*
X01187Y023254D01*
X01187Y023249D01*
Y023249D01*
Y023247D01*
X01187Y023244D01*
X011871Y02324D01*
X011872Y023236D01*
X011874Y023232D01*
X011876Y023227D01*
X011879Y023223D01*
X011879Y023222D01*
X01188Y023221D01*
X011882Y023219D01*
X011884Y023216D01*
X011887Y023214D01*
X011891Y023211D01*
X011896Y023208D01*
X011901Y023206D01*
X011902Y023206D01*
X011903Y023206D01*
X011907Y023205D01*
X011911Y023204D01*
X011917Y023203D01*
X011924Y023202D01*
X011932Y023202D01*
X012005D01*
Y023297D01*
D02*
G37*
G36*
Y023169D02*
X011937D01*
X011932Y023168D01*
X011926Y023168D01*
X011921Y023168D01*
X011917Y023167D01*
X01192D01*
X011924Y023167D01*
X011928Y023166D01*
X011933Y023165D01*
X011943Y023163D01*
X011955Y02316D01*
X011967Y023155D01*
X011973Y023153D01*
X011979Y023149D01*
X011979Y023149D01*
X01198Y023149D01*
X011982Y023147D01*
X011984Y023146D01*
X011986Y023144D01*
X011989Y023142D01*
X011996Y023136D01*
X012004Y023129D01*
X012005Y023127D01*
Y023169D01*
D02*
G37*
G36*
X011909Y023136D02*
X011906D01*
X011902Y023136D01*
X011897Y023135D01*
X011891Y023135D01*
X011885Y023133D01*
X011882Y023132D01*
X011882Y023128D01*
Y023127D01*
Y023125D01*
X011883Y023123D01*
X011883Y023123D01*
X011883Y023122D01*
X011889Y02312D01*
X011895Y023117D01*
X011901Y023115D01*
X011909Y023113D01*
X011901Y023092D01*
X011904Y023091D01*
X011908Y023089D01*
X011909D01*
X011911Y023089D01*
X011913Y023088D01*
X011918Y023087D01*
X011924Y023087D01*
X011931Y023086D01*
X011939Y023085D01*
X011992D01*
X01199Y023089D01*
X011987Y023095D01*
X011983Y023102D01*
X011978Y023107D01*
X011978Y023108D01*
X011977Y023108D01*
X011975Y02311D01*
X011973Y023112D01*
X01197Y023114D01*
X011967Y023116D01*
X011964Y023119D01*
X011959Y023122D01*
X011955Y023124D01*
X011949Y023127D01*
X011944Y023129D01*
X011938Y023132D01*
X011931Y023133D01*
X011924Y023135D01*
X011917Y023136D01*
X011909Y023136D01*
D02*
G37*
G36*
X011699Y02313D02*
X011618D01*
X011618Y023129D01*
X011619Y023125D01*
X011621Y023119D01*
X011623Y023112D01*
X011627Y023106D01*
X011631Y0231D01*
X011637Y023094D01*
X011638Y023094D01*
X01164Y023092D01*
X011644Y02309D01*
X011649Y023087D01*
X011655Y023085D01*
X011661Y02309D01*
X011668Y023096D01*
X011674Y023102D01*
X01168Y023108D01*
X011682Y02311D01*
X011684Y023112D01*
X011685Y023112D01*
X011686Y023113D01*
X011688Y023115D01*
X01169Y023117D01*
X011692Y02312D01*
X011694Y023123D01*
X011699Y02313D01*
D02*
G37*
G36*
X011743Y023141D02*
X011742Y023139D01*
Y023139D01*
X011742Y023138D01*
X011741Y023136D01*
X011739Y023132D01*
X011737Y023127D01*
X011734Y023122D01*
X01173Y023115D01*
X011725Y023109D01*
X01172Y023102D01*
Y023102D01*
X011719Y023101D01*
X011717Y023099D01*
X011713Y023095D01*
X011708Y02309D01*
X011702Y023084D01*
X0117Y023082D01*
X011704Y023082D01*
X011712Y023084D01*
X01172Y023086D01*
X011727Y023089D01*
X011731Y023091D01*
X011734Y023093D01*
X011735Y023093D01*
X011736Y023095D01*
X011739Y023098D01*
X011741Y023101D01*
X011744Y023105D01*
X011746Y02311D01*
X011748Y023116D01*
X011749Y023122D01*
Y023123D01*
Y023125D01*
X011748Y023127D01*
X011747Y023131D01*
X011746Y023135D01*
X011744Y023139D01*
X011743Y023141D01*
D02*
G37*
G36*
X011847Y023113D02*
X011846Y023112D01*
X011845Y023112D01*
X011844Y02311D01*
X011842Y023107D01*
X011839Y023104D01*
X011836Y0231D01*
X011834Y023096D01*
X01183Y023091D01*
X011828Y023085D01*
X011825Y023078D01*
X011822Y023071D01*
X01182Y023063D01*
X011817Y023054D01*
X011816Y023045D01*
X011815Y023035D01*
X011814Y023024D01*
Y023024D01*
Y023023D01*
Y023021D01*
Y023019D01*
X011815Y023015D01*
Y023012D01*
X011815Y023008D01*
X011816Y023004D01*
X011817Y022995D01*
X011819Y022985D01*
X011822Y022975D01*
X011826Y022965D01*
Y022965D01*
X011826Y022964D01*
X011827Y022963D01*
X011828Y022961D01*
X011831Y022956D01*
X011834Y022951D01*
X011839Y022944D01*
X011845Y022938D01*
X011852Y022932D01*
X01186Y022926D01*
X01186D01*
X01186Y022925D01*
X011862Y022925D01*
X011864Y022924D01*
X011866Y022923D01*
X011868Y022922D01*
X011874Y022919D01*
X011881Y022916D01*
X01189Y022914D01*
X011899Y022912D01*
X011909Y022912D01*
X011913D01*
X011916Y022912D01*
X01192Y022913D01*
X011924Y022914D01*
X011928Y022914D01*
X011933Y022916D01*
X011939Y022917D01*
X011944Y022919D01*
X011949Y022921D01*
X011956Y022924D01*
X011961Y022927D01*
X011967Y022931D01*
X011972Y022935D01*
X011978Y02294D01*
X011978Y022941D01*
X011979Y022942D01*
X01198Y022943D01*
X011982Y022946D01*
X011984Y022948D01*
X011986Y022952D01*
X011988Y022956D01*
X011991Y022961D01*
X011994Y022967D01*
X011996Y022973D01*
X011998Y02298D01*
X012Y022988D01*
X012002Y022996D01*
X012003Y023005D01*
X012004Y023014D01*
X012004Y023024D01*
Y023025D01*
Y023027D01*
Y023029D01*
X012004Y023033D01*
X012004Y023037D01*
X012003Y023043D01*
X012002Y023049D01*
X012002Y023052D01*
X011933D01*
X01193Y023053D01*
X011927D01*
X01192Y023054D01*
X011912Y023054D01*
X011903Y023056D01*
X011895Y023058D01*
X011887Y023061D01*
X011887D01*
X011887Y023061D01*
X011884Y023062D01*
X011881Y023064D01*
X011877Y023067D01*
X011872Y023071D01*
X011866Y023075D01*
X011862Y023081D01*
X011857Y023087D01*
X011857Y023088D01*
X011856Y02309D01*
X011854Y023093D01*
X011852Y023098D01*
X01185Y023104D01*
X011848Y02311D01*
X011847Y023113D01*
X011847Y023113D01*
D02*
G37*
G36*
X007955Y023297D02*
X007876D01*
X007868Y023297D01*
X007864Y023296D01*
X007861Y023296D01*
X007861D01*
X007859Y023295D01*
X007857Y023295D01*
X007854Y023294D01*
X007847Y023292D01*
X00784Y023289D01*
X00784Y023288D01*
X007839Y023287D01*
X007837Y023286D01*
X007835Y023285D01*
X007833Y023282D01*
X00783Y02328D01*
X007828Y023277D01*
X007826Y023273D01*
X007825Y023273D01*
X007825Y023271D01*
X007824Y023269D01*
X007823Y023266D01*
X007822Y023263D01*
X007821Y023259D01*
X007821Y023254D01*
X00782Y023249D01*
Y023249D01*
Y023247D01*
X007821Y023244D01*
X007821Y02324D01*
X007822Y023236D01*
X007824Y023232D01*
X007826Y023227D01*
X007829Y023223D01*
X007829Y023222D01*
X00783Y023221D01*
X007832Y023219D01*
X007834Y023216D01*
X007837Y023214D01*
X007841Y023211D01*
X007846Y023208D01*
X007851Y023206D01*
X007852Y023206D01*
X007853Y023206D01*
X007857Y023205D01*
X007861Y023204D01*
X007867Y023203D01*
X007874Y023202D01*
X007882Y023202D01*
X007955D01*
Y023297D01*
D02*
G37*
G36*
Y023169D02*
X007887D01*
X007882Y023168D01*
X007876Y023168D01*
X007871Y023168D01*
X007867Y023167D01*
X00787D01*
X007874Y023167D01*
X007878Y023166D01*
X007883Y023165D01*
X007893Y023163D01*
X007905Y02316D01*
X007917Y023155D01*
X007923Y023153D01*
X007929Y023149D01*
X007929Y023149D01*
X00793Y023149D01*
X007932Y023147D01*
X007934Y023146D01*
X007936Y023144D01*
X007939Y023142D01*
X007946Y023136D01*
X007954Y023129D01*
X007955Y023127D01*
Y023169D01*
D02*
G37*
G36*
X007859Y023136D02*
X007856D01*
X007852Y023136D01*
X007847Y023135D01*
X007841Y023135D01*
X007835Y023133D01*
X007832Y023132D01*
X007832Y023128D01*
Y023127D01*
Y023125D01*
X007833Y023123D01*
X007833Y023123D01*
X007833Y023122D01*
X007839Y02312D01*
X007845Y023117D01*
X007851Y023115D01*
X007859Y023113D01*
X007851Y023092D01*
X007854Y023091D01*
X007858Y023089D01*
X007859D01*
X007861Y023089D01*
X007863Y023088D01*
X007868Y023087D01*
X007874Y023087D01*
X007881Y023086D01*
X007889Y023085D01*
X007942D01*
X00794Y023089D01*
X007937Y023095D01*
X007933Y023102D01*
X007928Y023107D01*
X007928Y023108D01*
X007927Y023108D01*
X007925Y02311D01*
X007923Y023112D01*
X00792Y023114D01*
X007917Y023116D01*
X007914Y023119D01*
X007909Y023122D01*
X007905Y023124D01*
X007899Y023127D01*
X007894Y023129D01*
X007888Y023132D01*
X007881Y023133D01*
X007874Y023135D01*
X007867Y023136D01*
X007859Y023136D01*
D02*
G37*
G36*
X007582Y023058D02*
D01*
Y02294D01*
X007659Y02305D01*
X007656Y023049D01*
X007647Y023048D01*
X007636Y023048D01*
X007631D01*
X007628Y023048D01*
X007626D01*
X007618Y023049D01*
X00761Y02305D01*
X007601Y023052D01*
X007591Y023054D01*
X007582Y023058D01*
D02*
G37*
G36*
X007797Y023113D02*
X007796Y023112D01*
X007795Y023112D01*
X007794Y02311D01*
X007792Y023107D01*
X007789Y023104D01*
X007786Y0231D01*
X007784Y023096D01*
X00778Y023091D01*
X007778Y023085D01*
X007775Y023078D01*
X007772Y023071D01*
X00777Y023063D01*
X007767Y023054D01*
X007766Y023045D01*
X007765Y023035D01*
X007764Y023024D01*
Y023024D01*
Y023023D01*
Y023021D01*
Y023019D01*
X007765Y023015D01*
Y023012D01*
X007765Y023008D01*
X007766Y023004D01*
X007767Y022995D01*
X007769Y022985D01*
X007772Y022975D01*
X007776Y022965D01*
Y022965D01*
X007776Y022964D01*
X007777Y022963D01*
X007778Y022961D01*
X007781Y022956D01*
X007784Y022951D01*
X007789Y022944D01*
X007795Y022938D01*
X007802Y022932D01*
X00781Y022926D01*
X00781D01*
X00781Y022925D01*
X007812Y022925D01*
X007814Y022924D01*
X007816Y022923D01*
X007818Y022922D01*
X007824Y022919D01*
X007831Y022916D01*
X00784Y022914D01*
X007849Y022912D01*
X007859Y022912D01*
X007863D01*
X007866Y022912D01*
X00787Y022913D01*
X007874Y022914D01*
X007878Y022914D01*
X007883Y022916D01*
X007889Y022917D01*
X007894Y022919D01*
X007899Y022921D01*
X007906Y022924D01*
X007911Y022927D01*
X007917Y022931D01*
X007922Y022935D01*
X007928Y02294D01*
X007928Y022941D01*
X007929Y022942D01*
X00793Y022943D01*
X007932Y022946D01*
X007934Y022948D01*
X007936Y022952D01*
X007938Y022956D01*
X007941Y022961D01*
X007944Y022967D01*
X007946Y022973D01*
X007948Y02298D01*
X00795Y022988D01*
X007952Y022996D01*
X007953Y023005D01*
X007954Y023014D01*
X007954Y023024D01*
Y023025D01*
Y023027D01*
Y023029D01*
X007954Y023033D01*
X007954Y023037D01*
X007953Y023043D01*
X007952Y023049D01*
X007952Y023052D01*
X007883D01*
X00788Y023053D01*
X007877D01*
X00787Y023054D01*
X007862Y023054D01*
X007853Y023056D01*
X007845Y023058D01*
X007837Y023061D01*
X007837D01*
X007837Y023061D01*
X007834Y023062D01*
X007831Y023064D01*
X007827Y023067D01*
X007822Y023071D01*
X007816Y023075D01*
X007812Y023081D01*
X007807Y023087D01*
X007807Y023088D01*
X007806Y02309D01*
X007804Y023093D01*
X007802Y023098D01*
X0078Y023104D01*
X007798Y02311D01*
X007797Y023113D01*
X007797Y023113D01*
D02*
G37*
G36*
X006706Y023307D02*
X006704D01*
X006702Y023306D01*
X006697Y023306D01*
X006692Y023305D01*
X006685Y023303D01*
X006678Y0233D01*
X006672Y023296D01*
X006666Y023291D01*
X006665Y02329D01*
X006663Y023288D01*
X00666Y023285D01*
X006658Y02328D01*
X006655Y023275D01*
X006652Y023268D01*
X00665Y02326D01*
X00665Y023251D01*
Y023251D01*
Y02325D01*
Y023249D01*
X00665Y023247D01*
X00665Y023243D01*
X006652Y023237D01*
X006654Y023231D01*
X006656Y023224D01*
X00666Y023217D01*
X006666Y023211D01*
X006667Y02321D01*
X006669Y023208D01*
X006672Y023206D01*
X006677Y023202D01*
X006683Y0232D01*
X00669Y023197D01*
X006698Y023195D01*
X006707Y023194D01*
X00671D01*
X006711Y023195D01*
X006716Y023195D01*
X006721Y023196D01*
X006728Y023198D01*
X006734Y023201D01*
X006741Y023205D01*
X006747Y02321D01*
X006748Y023211D01*
X006749Y023213D01*
X006752Y023217D01*
X006755Y023221D01*
X006758Y023227D01*
X00676Y023234D01*
X006762Y023242D01*
X006763Y02325D01*
Y023251D01*
Y023253D01*
X006762Y023255D01*
X006762Y023259D01*
X006761Y023263D01*
X00676Y023268D01*
X006758Y023273D01*
X006756Y023278D01*
X006756Y023279D01*
X006755Y023281D01*
X006753Y023283D01*
X006751Y023286D01*
X006748Y023289D01*
X006745Y023293D01*
X006741Y023296D01*
X006736Y023299D01*
X006735Y0233D01*
X006733Y023301D01*
X006731Y023302D01*
X006727Y023303D01*
X006723Y023304D01*
X006717Y023305D01*
X006712Y023306D01*
X006706Y023307D01*
D02*
G37*
G36*
Y023167D02*
X006705D01*
X006703Y023166D01*
X006699Y023166D01*
X006694Y023165D01*
X006689Y023164D01*
X006684Y023161D01*
X006678Y023158D01*
X006674Y023154D01*
X006673Y023154D01*
X006672Y023152D01*
X00667Y023149D01*
X006667Y023146D01*
X006665Y023141D01*
X006663Y023136D01*
X006661Y02313D01*
X006661Y023124D01*
Y023123D01*
Y023123D01*
Y023121D01*
X006662Y023117D01*
X006662Y023113D01*
X006664Y023108D01*
X006666Y023103D01*
X00667Y023097D01*
X006674Y023092D01*
X006674Y023092D01*
X006676Y02309D01*
X006679Y023088D01*
X006683Y023086D01*
X006688Y023083D01*
X006693Y023081D01*
X006699Y02308D01*
X006706Y023079D01*
X006709D01*
X006713Y02308D01*
X006718Y023081D01*
X006723Y023082D01*
X006729Y023085D01*
X006734Y023088D01*
X006739Y023092D01*
X006739Y023093D01*
X006741Y023094D01*
X006743Y023097D01*
X006745Y023101D01*
X006747Y023105D01*
X006749Y02311D01*
X006751Y023116D01*
X006751Y023122D01*
Y023123D01*
Y023123D01*
X006751Y023125D01*
X006751Y023129D01*
X00675Y023133D01*
X006748Y023139D01*
X006746Y023144D01*
X006743Y023149D01*
X006739Y023154D01*
X006739Y023155D01*
X006737Y023156D01*
X006734Y023158D01*
X00673Y02316D01*
X006725Y023163D01*
X00672Y023165D01*
X006713Y023166D01*
X006706Y023167D01*
D02*
G37*
G36*
X009955Y023297D02*
X009876D01*
X009868Y023297D01*
X009864Y023296D01*
X009861Y023296D01*
X009861D01*
X009859Y023295D01*
X009857Y023295D01*
X009854Y023294D01*
X009847Y023292D01*
X00984Y023289D01*
X00984Y023288D01*
X009839Y023287D01*
X009837Y023286D01*
X009835Y023285D01*
X009833Y023282D01*
X00983Y02328D01*
X009828Y023277D01*
X009826Y023273D01*
X009825Y023273D01*
X009825Y023271D01*
X009824Y023269D01*
X009823Y023266D01*
X009822Y023263D01*
X009821Y023259D01*
X009821Y023254D01*
X00982Y023249D01*
Y023249D01*
Y023247D01*
X009821Y023244D01*
X009821Y02324D01*
X009822Y023236D01*
X009824Y023232D01*
X009826Y023227D01*
X009829Y023223D01*
X009829Y023222D01*
X00983Y023221D01*
X009832Y023219D01*
X009834Y023216D01*
X009837Y023214D01*
X009841Y023211D01*
X009846Y023208D01*
X009851Y023206D01*
X009852Y023206D01*
X009853Y023206D01*
X009857Y023205D01*
X009861Y023204D01*
X009867Y023203D01*
X009874Y023202D01*
X009882Y023202D01*
X009955D01*
Y023297D01*
D02*
G37*
G36*
Y023169D02*
X009887D01*
X009882Y023168D01*
X009876Y023168D01*
X009871Y023168D01*
X009867Y023167D01*
X00987D01*
X009874Y023167D01*
X009878Y023166D01*
X009883Y023165D01*
X009893Y023163D01*
X009905Y02316D01*
X009917Y023155D01*
X009923Y023153D01*
X009929Y023149D01*
X009929Y023149D01*
X00993Y023149D01*
X009932Y023147D01*
X009934Y023146D01*
X009936Y023144D01*
X009939Y023142D01*
X009946Y023136D01*
X009954Y023129D01*
X009955Y023127D01*
Y023169D01*
D02*
G37*
G36*
X009859Y023136D02*
X009856D01*
X009852Y023136D01*
X009847Y023135D01*
X009841Y023135D01*
X009835Y023133D01*
X009832Y023132D01*
X009832Y023128D01*
Y023127D01*
Y023125D01*
X009833Y023123D01*
X009833Y023123D01*
X009833Y023122D01*
X009839Y02312D01*
X009845Y023117D01*
X009851Y023115D01*
X009859Y023113D01*
X009851Y023092D01*
X009854Y023091D01*
X009858Y023089D01*
X009859D01*
X009861Y023089D01*
X009863Y023088D01*
X009868Y023087D01*
X009874Y023087D01*
X009881Y023086D01*
X009889Y023085D01*
X009942D01*
X00994Y023089D01*
X009937Y023095D01*
X009933Y023102D01*
X009928Y023107D01*
X009928Y023108D01*
X009927Y023108D01*
X009925Y02311D01*
X009923Y023112D01*
X00992Y023114D01*
X009917Y023116D01*
X009914Y023119D01*
X009909Y023122D01*
X009905Y023124D01*
X009899Y023127D01*
X009894Y023129D01*
X009888Y023132D01*
X009881Y023133D01*
X009874Y023135D01*
X009867Y023136D01*
X009859Y023136D01*
D02*
G37*
G36*
X009603Y023139D02*
X0096D01*
X009599Y023139D01*
X009594Y023139D01*
X009589Y023137D01*
X009582Y023135D01*
X009575Y023133D01*
X009569Y023129D01*
X009568Y023128D01*
X009569Y023125D01*
X009571Y023119D01*
X009573Y023112D01*
X009577Y023106D01*
X009582Y0231D01*
X009587Y023094D01*
X009588Y023094D01*
X00959Y023092D01*
X009594Y02309D01*
X009599Y023087D01*
X009606Y023085D01*
X009614Y023082D01*
X009624Y023081D01*
X009635Y02308D01*
X009641D01*
X009643Y023081D01*
X009646Y023081D01*
X009654Y023082D01*
X009662Y023084D01*
X00967Y023086D01*
X009672Y023087D01*
X009657Y023085D01*
Y023085D01*
X009656Y023086D01*
X009656Y023088D01*
X009656Y02309D01*
X009655Y023092D01*
X009654Y023095D01*
X009652Y023101D01*
X00965Y023108D01*
X009646Y023115D01*
X009642Y023121D01*
X009637Y023127D01*
X009636Y023127D01*
X009635Y023129D01*
X009632Y023131D01*
X009628Y023133D01*
X009623Y023135D01*
X009617Y023137D01*
X00961Y023139D01*
X009603Y023139D01*
D02*
G37*
G36*
X009797Y023113D02*
X009796Y023112D01*
X009795Y023112D01*
X009794Y02311D01*
X009792Y023107D01*
X009789Y023104D01*
X009786Y0231D01*
X009784Y023096D01*
X00978Y023091D01*
X009778Y023085D01*
X009775Y023078D01*
X009772Y023071D01*
X00977Y023063D01*
X009767Y023054D01*
X009766Y023045D01*
X009765Y023035D01*
X009764Y023024D01*
Y023024D01*
Y023023D01*
Y023021D01*
Y023019D01*
X009765Y023015D01*
Y023012D01*
X009765Y023008D01*
X009766Y023004D01*
X009767Y022995D01*
X009769Y022985D01*
X009772Y022975D01*
X009776Y022965D01*
Y022965D01*
X009776Y022964D01*
X009777Y022963D01*
X009778Y022961D01*
X009781Y022956D01*
X009784Y022951D01*
X009789Y022944D01*
X009795Y022938D01*
X009802Y022932D01*
X00981Y022926D01*
X00981D01*
X00981Y022925D01*
X009812Y022925D01*
X009814Y022924D01*
X009816Y022923D01*
X009818Y022922D01*
X009824Y022919D01*
X009831Y022916D01*
X00984Y022914D01*
X009849Y022912D01*
X009859Y022912D01*
X009863D01*
X009866Y022912D01*
X00987Y022913D01*
X009874Y022914D01*
X009878Y022914D01*
X009883Y022916D01*
X009889Y022917D01*
X009894Y022919D01*
X009899Y022921D01*
X009906Y022924D01*
X009911Y022927D01*
X009917Y022931D01*
X009922Y022935D01*
X009928Y02294D01*
X009928Y022941D01*
X009929Y022942D01*
X00993Y022943D01*
X009932Y022946D01*
X009934Y022948D01*
X009936Y022952D01*
X009938Y022956D01*
X009941Y022961D01*
X009944Y022967D01*
X009946Y022973D01*
X009948Y02298D01*
X00995Y022988D01*
X009952Y022996D01*
X009953Y023005D01*
X009954Y023014D01*
X009954Y023024D01*
Y023025D01*
Y023027D01*
Y023029D01*
X009954Y023033D01*
X009954Y023037D01*
X009953Y023043D01*
X009952Y023049D01*
X009952Y023052D01*
X009883D01*
X00988Y023053D01*
X009877D01*
X00987Y023054D01*
X009862Y023054D01*
X009853Y023056D01*
X009845Y023058D01*
X009837Y023061D01*
X009837D01*
X009837Y023061D01*
X009834Y023062D01*
X009831Y023064D01*
X009827Y023067D01*
X009822Y023071D01*
X009816Y023075D01*
X009812Y023081D01*
X009807Y023087D01*
X009807Y023088D01*
X009806Y02309D01*
X009804Y023093D01*
X009802Y023098D01*
X0098Y023104D01*
X009798Y02311D01*
X009797Y023113D01*
X009797Y023113D01*
D02*
G37*
G36*
X008706Y023307D02*
X008704D01*
X008702Y023306D01*
X008697Y023306D01*
X008692Y023305D01*
X008685Y023303D01*
X008678Y0233D01*
X008672Y023296D01*
X008666Y023291D01*
X008665Y02329D01*
X008663Y023288D01*
X00866Y023285D01*
X008658Y02328D01*
X008655Y023275D01*
X008652Y023268D01*
X00865Y02326D01*
X00865Y023251D01*
Y023251D01*
Y02325D01*
Y023249D01*
X00865Y023247D01*
X00865Y023243D01*
X008652Y023237D01*
X008654Y023231D01*
X008656Y023224D01*
X00866Y023217D01*
X008666Y023211D01*
X008667Y02321D01*
X008669Y023208D01*
X008672Y023206D01*
X008677Y023202D01*
X008683Y0232D01*
X00869Y023197D01*
X008698Y023195D01*
X008707Y023194D01*
X00871D01*
X008711Y023195D01*
X008716Y023195D01*
X008721Y023196D01*
X008728Y023198D01*
X008734Y023201D01*
X008741Y023205D01*
X008747Y02321D01*
X008748Y023211D01*
X008749Y023213D01*
X008752Y023217D01*
X008755Y023221D01*
X008758Y023227D01*
X00876Y023234D01*
X008762Y023242D01*
X008763Y02325D01*
Y023251D01*
Y023253D01*
X008762Y023255D01*
X008762Y023259D01*
X008761Y023263D01*
X00876Y023268D01*
X008758Y023273D01*
X008756Y023278D01*
X008756Y023279D01*
X008755Y023281D01*
X008753Y023283D01*
X008751Y023286D01*
X008748Y023289D01*
X008745Y023293D01*
X008741Y023296D01*
X008736Y023299D01*
X008735Y0233D01*
X008733Y023301D01*
X008731Y023302D01*
X008727Y023303D01*
X008723Y023304D01*
X008717Y023305D01*
X008712Y023306D01*
X008706Y023307D01*
D02*
G37*
G36*
Y023167D02*
X008705D01*
X008703Y023166D01*
X008699Y023166D01*
X008694Y023165D01*
X008689Y023164D01*
X008684Y023161D01*
X008678Y023158D01*
X008674Y023154D01*
X008673Y023154D01*
X008672Y023152D01*
X00867Y023149D01*
X008667Y023146D01*
X008665Y023141D01*
X008663Y023136D01*
X008661Y02313D01*
X008661Y023124D01*
Y023123D01*
Y023123D01*
Y023121D01*
X008662Y023117D01*
X008662Y023113D01*
X008664Y023108D01*
X008666Y023103D01*
X00867Y023097D01*
X008674Y023092D01*
X008674Y023092D01*
X008676Y02309D01*
X008679Y023088D01*
X008683Y023086D01*
X008688Y023083D01*
X008693Y023081D01*
X008699Y02308D01*
X008706Y023079D01*
X008709D01*
X008713Y02308D01*
X008718Y023081D01*
X008723Y023082D01*
X008729Y023085D01*
X008734Y023088D01*
X008739Y023092D01*
X008739Y023093D01*
X008741Y023094D01*
X008743Y023097D01*
X008745Y023101D01*
X008747Y023105D01*
X008749Y02311D01*
X008751Y023116D01*
X008751Y023122D01*
Y023123D01*
Y023123D01*
X008751Y023125D01*
X008751Y023129D01*
X00875Y023133D01*
X008748Y023139D01*
X008746Y023144D01*
X008743Y023149D01*
X008739Y023154D01*
X008739Y023155D01*
X008737Y023156D01*
X008734Y023158D01*
X00873Y02316D01*
X008725Y023163D01*
X00872Y023165D01*
X008713Y023166D01*
X008706Y023167D01*
D02*
G37*
%LPD*%
D18*
X030012Y052588D02*
Y053592D01*
X028988Y052588D02*
Y053592D01*
X030012D01*
X028988Y052588D02*
X030012D01*
X034388Y038138D02*
X035392D01*
X034388Y039162D02*
X035392D01*
Y038138D02*
Y039162D01*
X034388Y038138D02*
Y039162D01*
X011058Y022966D02*
Y02397D01*
X012082Y022966D02*
Y02397D01*
X011058Y022966D02*
X012082D01*
X011058Y02397D02*
X012082D01*
X007008Y022966D02*
Y02397D01*
X008031Y022966D02*
Y02397D01*
X007008Y022966D02*
X008031D01*
X007008Y02397D02*
X008031D01*
X009008D02*
X010031D01*
X009008Y022966D02*
X010031D01*
Y02397D01*
X009008Y022966D02*
Y02397D01*
D148*
X0295Y053641D02*
D03*
X029136Y052549D02*
D03*
X029864D02*
D03*
X01157Y022917D02*
D03*
X011934Y024009D02*
D03*
X011206D02*
D03*
X00752Y022917D02*
D03*
X007884Y024009D02*
D03*
X007156D02*
D03*
X009156D02*
D03*
X009884D02*
D03*
X00952Y022917D02*
D03*
D149*
X035441Y03865D02*
D03*
X034349Y039014D02*
D03*
X034349Y038286D02*
D03*
M02*
