G04*
G04 #@! TF.GenerationSoftware,Altium Limited,Altium Designer,20.0.13 (296)*
G04*
G04 Layer_Color=255*
%FSTAX24Y24*%
%MOIN*%
G70*
G01*
G75*
%ADD27R,0.0315X0.0433*%
%ADD28R,0.0500X0.0550*%
%ADD29R,0.0354X0.0374*%
%ADD30R,0.0787X0.0105*%
%ADD31R,0.0105X0.0787*%
%ADD32R,0.0472X0.0433*%
%ADD33R,0.0374X0.0354*%
%ADD34R,0.0433X0.0315*%
%ADD35R,0.0591X0.0512*%
%ADD36R,0.0236X0.0394*%
%ADD37O,0.0276X0.1181*%
%ADD38R,0.0276X0.1181*%
%ADD39R,0.0630X0.1378*%
%ADD40R,0.0433X0.0551*%
%ADD41R,0.0433X0.0551*%
%ADD42R,0.1772X0.0709*%
%ADD43R,0.0472X0.0315*%
%ADD44R,0.0394X0.0945*%
%ADD45R,0.1299X0.0945*%
%ADD46R,0.0472X0.0236*%
%ADD47R,0.0433X0.0472*%
G04:AMPARAMS|DCode=48|XSize=31.5mil|YSize=43.3mil|CornerRadius=0mil|HoleSize=0mil|Usage=FLASHONLY|Rotation=135.000|XOffset=0mil|YOffset=0mil|HoleType=Round|Shape=Rectangle|*
%AMROTATEDRECTD48*
4,1,4,0.0264,0.0042,-0.0042,-0.0264,-0.0264,-0.0042,0.0042,0.0264,0.0264,0.0042,0.0*
%
%ADD48ROTATEDRECTD48*%

%ADD49R,0.0551X0.0433*%
%ADD50R,0.0551X0.0433*%
%ADD51R,0.1378X0.0630*%
%ADD110R,0.0630X0.0630*%
%ADD111O,0.1100X0.1200*%
%ADD112C,0.0709*%
G04:AMPARAMS|DCode=113|XSize=354.3mil|YSize=196.9mil|CornerRadius=49.2mil|HoleSize=0mil|Usage=FLASHONLY|Rotation=135.000|XOffset=0mil|YOffset=0mil|HoleType=Round|Shape=RoundedRectangle|*
%AMROUNDEDRECTD113*
21,1,0.3543,0.0984,0,0,135.0*
21,1,0.2559,0.1969,0,0,135.0*
1,1,0.0984,-0.0557,0.1253*
1,1,0.0984,0.1253,-0.0557*
1,1,0.0984,0.0557,-0.1253*
1,1,0.0984,-0.1253,0.0557*
%
%ADD113ROUNDEDRECTD113*%
G04:AMPARAMS|DCode=114|XSize=393.7mil|YSize=236.2mil|CornerRadius=59.1mil|HoleSize=0mil|Usage=FLASHONLY|Rotation=225.000|XOffset=0mil|YOffset=0mil|HoleType=Round|Shape=RoundedRectangle|*
%AMROUNDEDRECTD114*
21,1,0.3937,0.1181,0,0,225.0*
21,1,0.2756,0.2362,0,0,225.0*
1,1,0.1181,-0.1392,-0.0557*
1,1,0.1181,0.0557,0.1392*
1,1,0.1181,0.1392,0.0557*
1,1,0.1181,-0.0557,-0.1392*
%
%ADD114ROUNDEDRECTD114*%
%ADD115C,0.3819*%
%ADD116C,0.1850*%
%ADD117R,0.0709X0.0709*%
%ADD118R,0.0630X0.0630*%
%ADD119C,0.0700*%
G04:AMPARAMS|DCode=120|XSize=433.1mil|YSize=236.2mil|CornerRadius=59.1mil|HoleSize=0mil|Usage=FLASHONLY|Rotation=225.000|XOffset=0mil|YOffset=0mil|HoleType=Round|Shape=RoundedRectangle|*
%AMROUNDEDRECTD120*
21,1,0.4331,0.1181,0,0,225.0*
21,1,0.3150,0.2362,0,0,225.0*
1,1,0.1181,-0.1531,-0.0696*
1,1,0.1181,0.0696,0.1531*
1,1,0.1181,0.1531,0.0696*
1,1,0.1181,-0.0696,-0.1531*
%
%ADD120ROUNDEDRECTD120*%
%ADD121C,0.0630*%
%ADD122R,0.0598X0.0598*%
%ADD123C,0.0598*%
%ADD124C,0.0669*%
%ADD125C,0.0787*%
%ADD126C,0.1500*%
%ADD127R,0.0720X0.0720*%
%ADD128C,0.0720*%
G04:AMPARAMS|DCode=129|XSize=354.3mil|YSize=196.9mil|CornerRadius=49.2mil|HoleSize=0mil|Usage=FLASHONLY|Rotation=90.000|XOffset=0mil|YOffset=0mil|HoleType=Round|Shape=RoundedRectangle|*
%AMROUNDEDRECTD129*
21,1,0.3543,0.0984,0,0,90.0*
21,1,0.2559,0.1969,0,0,90.0*
1,1,0.0984,0.0492,0.1280*
1,1,0.0984,0.0492,-0.1280*
1,1,0.0984,-0.0492,-0.1280*
1,1,0.0984,-0.0492,0.1280*
%
%ADD129ROUNDEDRECTD129*%
%ADD130C,0.0600*%
%ADD131O,0.1000X0.1500*%
%ADD132R,0.0598X0.0598*%
D27*
X02905Y0517D02*
D03*
X02985D02*
D03*
X0299Y05445D02*
D03*
X0291D02*
D03*
X01125Y046D02*
D03*
X01045D02*
D03*
Y04665D02*
D03*
X01125D02*
D03*
X02185Y03265D02*
D03*
X02265D02*
D03*
X02185Y03195D02*
D03*
X02265D02*
D03*
X02585Y05425D02*
D03*
X02665D02*
D03*
X01045Y0453D02*
D03*
X01125D02*
D03*
X026961Y01879D02*
D03*
X026161D02*
D03*
X01195Y0223D02*
D03*
X01115D02*
D03*
X0071D02*
D03*
X0079D02*
D03*
X0099D02*
D03*
X0091D02*
D03*
X0099Y02465D02*
D03*
X0091D02*
D03*
X0079D02*
D03*
X0071D02*
D03*
X01195D02*
D03*
X01115D02*
D03*
X03705Y0318D02*
D03*
X03625D02*
D03*
X0357D02*
D03*
X0349D02*
D03*
D28*
X029Y0552D02*
D03*
X0299D02*
D03*
X02585D02*
D03*
X02675D02*
D03*
D29*
X029876Y052608D02*
D03*
X0295Y053592D02*
D03*
X029126Y052608D02*
D03*
X011194Y02395D02*
D03*
X01157Y022966D02*
D03*
X011944Y02395D02*
D03*
X007144D02*
D03*
X00752Y022966D02*
D03*
X007894Y02395D02*
D03*
X009894D02*
D03*
X00952Y022966D02*
D03*
X009144Y02395D02*
D03*
D30*
X012119Y040579D02*
D03*
Y040382D02*
D03*
Y040185D02*
D03*
Y039989D02*
D03*
Y039792D02*
D03*
Y039595D02*
D03*
Y039398D02*
D03*
Y039201D02*
D03*
Y039004D02*
D03*
Y038611D02*
D03*
Y038414D02*
D03*
Y038807D02*
D03*
X015572Y038414D02*
D03*
X015584Y038611D02*
D03*
Y038807D02*
D03*
Y039004D02*
D03*
Y039201D02*
D03*
Y039398D02*
D03*
Y039595D02*
D03*
Y039792D02*
D03*
Y039989D02*
D03*
Y040382D02*
D03*
Y040579D02*
D03*
Y040185D02*
D03*
D31*
X012769Y037764D02*
D03*
X012966D02*
D03*
X013163D02*
D03*
X013359D02*
D03*
X013556D02*
D03*
X013753D02*
D03*
X013952Y037768D02*
D03*
X014152D02*
D03*
X014352D02*
D03*
X014552D02*
D03*
X014752D02*
D03*
X014952D02*
D03*
X014934Y041229D02*
D03*
X014737D02*
D03*
X014541D02*
D03*
X014344D02*
D03*
X014147D02*
D03*
X01395D02*
D03*
X013753Y041221D02*
D03*
X013556D02*
D03*
X013359D02*
D03*
X013163D02*
D03*
X012966D02*
D03*
X012769D02*
D03*
D32*
X02445Y0434D02*
D03*
X02375D02*
D03*
X0168Y04195D02*
D03*
X0161D02*
D03*
X01415Y04345D02*
D03*
X01345D02*
D03*
X01415Y04275D02*
D03*
X01345D02*
D03*
X0099Y04065D02*
D03*
X0092D02*
D03*
X0099Y04D02*
D03*
X0092D02*
D03*
X0092Y03925D02*
D03*
X0099D02*
D03*
X0092Y0386D02*
D03*
X0099D02*
D03*
X03395Y04085D02*
D03*
X03325D02*
D03*
X03665Y0265D02*
D03*
X03735D02*
D03*
X0326Y02505D02*
D03*
X0333D02*
D03*
X0355Y02295D02*
D03*
X0362D02*
D03*
X0269Y0207D02*
D03*
X0262D02*
D03*
D33*
X034408Y038274D02*
D03*
X035392Y03865D02*
D03*
X034408Y039024D02*
D03*
D34*
X01305Y02555D02*
D03*
Y02475D02*
D03*
X02265Y03465D02*
D03*
Y03545D02*
D03*
X0237Y03465D02*
D03*
Y03545D02*
D03*
X0246Y0346D02*
D03*
Y0354D02*
D03*
X0217Y0491D02*
D03*
Y0483D02*
D03*
X03175Y02395D02*
D03*
Y02475D02*
D03*
Y0233D02*
D03*
Y0225D02*
D03*
D35*
X00975Y037052D02*
D03*
Y0378D02*
D03*
D36*
X018185Y048845D02*
D03*
X018559D02*
D03*
X018933D02*
D03*
X018185Y047822D02*
D03*
X018559D02*
D03*
X018933D02*
D03*
D37*
X029678Y042673D02*
D03*
D38*
Y044873D02*
D03*
D39*
X01815Y030502D02*
D03*
Y028298D02*
D03*
D40*
X0352Y0239D02*
D03*
X0321Y0264D02*
D03*
D41*
X0364Y0239D02*
D03*
X0333Y0264D02*
D03*
D42*
X0352Y02505D02*
D03*
X0352Y02645D02*
D03*
D43*
X025978Y03325D02*
D03*
X023222D02*
D03*
X012328Y048D02*
D03*
X009572D02*
D03*
X023222Y0315D02*
D03*
X025978D02*
D03*
D44*
X032894Y042508D02*
D03*
X0338Y042508D02*
D03*
X034706Y042508D02*
D03*
D45*
X0338Y044792D02*
D03*
D46*
X033476Y023026D02*
D03*
Y0234D02*
D03*
Y023774D02*
D03*
X0345Y023026D02*
D03*
Y0234D02*
D03*
X0345Y023774D02*
D03*
D47*
X01735Y0479D02*
D03*
Y0486D02*
D03*
X01335Y03535D02*
D03*
Y03605D02*
D03*
X031602Y044139D02*
D03*
Y043439D02*
D03*
X01105Y04155D02*
D03*
Y04225D02*
D03*
X0085Y04155D02*
D03*
Y04225D02*
D03*
D48*
X013417Y034033D02*
D03*
X013983Y033467D02*
D03*
X014367Y033133D02*
D03*
X014933Y032567D02*
D03*
D49*
X02065Y0494D02*
D03*
D50*
Y0482D02*
D03*
D51*
X033498Y0205D02*
D03*
X035702D02*
D03*
X033195Y029D02*
D03*
X0354D02*
D03*
D110*
X02965Y0471D02*
D03*
X0083Y02635D02*
D03*
X0195Y032D02*
D03*
X02915Y03615D02*
D03*
X01105Y03485D02*
D03*
X0122D02*
D03*
D111*
X0298Y01705D02*
D03*
X0318D02*
D03*
X01705Y01735D02*
D03*
X01905D02*
D03*
X025227Y017196D02*
D03*
X023227D02*
D03*
D112*
X0103Y04155D02*
D03*
X0093D02*
D03*
X0196Y03635D02*
D03*
X0206D02*
D03*
X0216D02*
D03*
X0226D02*
D03*
X0236D02*
D03*
X0246D02*
D03*
X0246Y04235D02*
D03*
X0236D02*
D03*
X0226D02*
D03*
X0216D02*
D03*
X0206D02*
D03*
X0196D02*
D03*
D113*
X0136Y05415D02*
D03*
X03Y03225D02*
D03*
D114*
X0368Y0484D02*
D03*
D115*
X0226Y03935D02*
D03*
D116*
X0196D02*
D03*
X0256D02*
D03*
D117*
Y03635D02*
D03*
Y04235D02*
D03*
D118*
X01125Y02635D02*
D03*
X00975D02*
D03*
X02915Y03985D02*
D03*
Y04105D02*
D03*
Y0386D02*
D03*
Y03735D02*
D03*
X0168Y03305D02*
D03*
X0069Y0469D02*
D03*
X030766Y028549D02*
D03*
X0369Y0387D02*
D03*
D119*
X0131Y0234D02*
D03*
X0131Y0224D02*
D03*
X03325Y03775D02*
D03*
X03325Y03675D02*
D03*
D120*
X0081Y0303D02*
D03*
D121*
X0069Y0439D02*
D03*
X0069Y0449D02*
D03*
Y0459D02*
D03*
D122*
X0151Y03125D02*
D03*
X01785Y03935D02*
D03*
X00705Y0344D02*
D03*
D123*
X0151Y03025D02*
D03*
Y02925D02*
D03*
Y02825D02*
D03*
X01495Y0459D02*
D03*
X01395D02*
D03*
X01295D02*
D03*
X01785Y03835D02*
D03*
Y03735D02*
D03*
Y03635D02*
D03*
X00705Y0354D02*
D03*
Y0364D02*
D03*
Y0374D02*
D03*
D124*
X01145Y02075D02*
D03*
X01045D02*
D03*
X00945D02*
D03*
X00845D02*
D03*
X01095Y01975D02*
D03*
X00995D02*
D03*
X00895D02*
D03*
X00795D02*
D03*
D125*
X0128Y016049D02*
D03*
X0066D02*
D03*
D126*
X00745Y01725D02*
D03*
X01195Y01725D02*
D03*
D127*
X02436Y01876D02*
D03*
D128*
X02435Y02075D02*
D03*
D129*
X034213Y01573D02*
D03*
X014528D02*
D03*
D130*
X01961Y053D02*
D03*
X0206Y053D02*
D03*
X01961Y05174D02*
D03*
X0206Y05173D02*
D03*
D131*
X01777Y051915D02*
D03*
X02257Y051915D02*
D03*
D132*
X01595Y0459D02*
D03*
M02*
