G04*
G04 #@! TF.GenerationSoftware,Altium Limited,Altium Designer,20.0.13 (296)*
G04*
G04 Layer_Color=16711935*
%FSTAX24Y24*%
%MOIN*%
G70*
G01*
G75*
%ADD13C,0.0050*%
%ADD18C,0.0039*%
%ADD20C,0.0079*%
D13*
X01939Y0294D02*
G03*
X01939Y0294I-00124J0D01*
G01*
X03584Y0205D02*
G03*
X03584Y0205I-00124J0D01*
G01*
X035538Y029D02*
G03*
X035538Y029I-00124J0D01*
G01*
X019449Y028101D02*
Y030699D01*
X016851D02*
X019449D01*
X016851Y028101D02*
Y030699D01*
Y028101D02*
X019449D01*
X033301Y019201D02*
Y021799D01*
X035899D01*
Y019201D02*
Y021799D01*
X033301Y019201D02*
X035899D01*
X032998Y027701D02*
Y030299D01*
X035597D01*
Y027701D02*
Y030299D01*
X032998Y027701D02*
X035597D01*
D18*
X023756Y043213D02*
X024444D01*
X023756Y043587D02*
X024444D01*
Y043213D02*
Y043587D01*
X023756D02*
X023756Y043213D01*
X021356Y029637D02*
X021356Y029263D01*
X022044Y029263D02*
Y029637D01*
X021356Y029263D02*
X022044Y029263D01*
X021356Y029637D02*
X022044D01*
X032481Y042922D02*
X035119Y042922D01*
X032481Y044378D02*
X035119D01*
X032481Y042922D02*
Y044378D01*
X035119Y042922D02*
Y044378D01*
X017163Y047906D02*
Y048594D01*
X017537Y048594D02*
X017537Y047906D01*
X017163Y047906D02*
X017537Y047906D01*
X017163Y048594D02*
X017537Y048594D01*
X016106Y041763D02*
X016794D01*
X016106Y042137D02*
X016794D01*
Y041763D02*
Y042137D01*
X016106D02*
X016106Y041763D01*
X013163Y035356D02*
Y036044D01*
X013537Y035356D02*
X013537Y036044D01*
X013163Y035356D02*
X013537D01*
X013163Y036044D02*
X013537D01*
X031789Y043444D02*
Y044133D01*
X031415Y043444D02*
Y044133D01*
X031789D01*
X031415Y043444D02*
X031789D01*
X013456Y043263D02*
X014144D01*
X013456Y043637D02*
X014144D01*
X014144Y043263D01*
X013456D02*
Y043637D01*
X013456Y042563D02*
X014144D01*
X013456Y042937D02*
X014144Y042937D01*
Y042563D02*
Y042937D01*
X013456Y042563D02*
Y042937D01*
X010863Y041556D02*
Y042244D01*
X011237Y042244D02*
X011237Y041556D01*
X010863Y041556D02*
X011237Y041556D01*
X010863Y042244D02*
X011237Y042244D01*
X008313Y041556D02*
Y042244D01*
X008687Y041556D02*
X008687Y042244D01*
X008313Y041556D02*
X008687D01*
X008313Y042244D02*
X008687D01*
X009206Y040463D02*
X009894D01*
X009206Y040837D02*
X009894D01*
Y040463D02*
Y040837D01*
X009206Y040463D02*
Y040837D01*
Y039813D02*
X009894D01*
X009206Y040187D02*
X009894D01*
Y039813D02*
Y040187D01*
X009206Y039813D02*
Y040187D01*
X009206Y039437D02*
X009894D01*
X009206Y039063D02*
X009894Y039063D01*
X009206Y039437D02*
X009206Y039063D01*
X009894Y039437D02*
X009894Y039063D01*
X009206Y038787D02*
X009894Y038787D01*
X009206Y038413D02*
X009894Y038413D01*
X009206Y038787D02*
X009206Y038413D01*
X009894Y038787D02*
X009894Y038413D01*
X033256Y040663D02*
X033944D01*
X033256Y041037D02*
X033944Y041037D01*
Y040663D02*
Y041037D01*
X033256Y040663D02*
Y041037D01*
X036656Y026687D02*
X037344D01*
X036656Y026313D02*
X037344D01*
X036656Y026687D02*
X036656Y026313D01*
X037344D02*
X037344Y026687D01*
X032606Y025237D02*
X033294D01*
X032606Y024863D02*
X033294D01*
X032606D02*
Y025237D01*
X033294Y024863D02*
Y025237D01*
X035506Y023137D02*
X036194D01*
X035506Y022763D02*
X036194Y022763D01*
X035506Y022763D02*
Y023137D01*
X036194Y022763D02*
Y023137D01*
X024963Y030344D02*
X024963Y029656D01*
X025337Y029656D02*
X025337Y030344D01*
X024963Y030344D02*
X025337Y030344D01*
X024963Y029656D02*
X025337Y029656D01*
X026937Y029856D02*
Y030544D01*
X026563Y029856D02*
X026563Y030544D01*
X026563Y029856D02*
X026937Y029856D01*
X026563Y030544D02*
X026937D01*
X027587Y029856D02*
Y030544D01*
X027213D02*
X027213Y029856D01*
X027587D01*
X027213Y030544D02*
X027587D01*
X019813Y022656D02*
Y023344D01*
X020187Y022656D02*
X020187Y023344D01*
X019813Y023344D02*
X020187Y023344D01*
X019813Y022656D02*
X020187D01*
X026206Y020513D02*
X026894D01*
X026206Y020887D02*
X026894Y020887D01*
Y020513D02*
Y020887D01*
X026206Y020513D02*
X026206Y020887D01*
X029063Y022302D02*
Y022991D01*
X029437D02*
X029437Y022302D01*
X029063Y022991D02*
X029437D01*
X029063Y022302D02*
X029437D01*
X022844Y021513D02*
Y021887D01*
X022156Y021513D02*
Y021887D01*
X022844D01*
X022156Y021513D02*
X022844D01*
X026256Y021887D02*
X026944D01*
X026256Y021513D02*
X026944Y021513D01*
Y021887D01*
X026256Y021513D02*
Y021887D01*
X024856Y021513D02*
X025544D01*
X024856Y021887D02*
X025544Y021887D01*
X024856Y021513D02*
X024856Y021887D01*
X025544Y021513D02*
X025544Y021887D01*
X023506Y021887D02*
X024194D01*
X023506Y021513D02*
X024194Y021513D01*
Y021887D01*
X023506Y021513D02*
Y021887D01*
X020987Y026706D02*
Y027394D01*
X020613D02*
X020613Y026706D01*
X020987D01*
X020613Y027394D02*
X020987D01*
X028587Y026606D02*
Y027294D01*
X028213D02*
X028213Y026606D01*
X028587D01*
X028213Y027294D02*
X028587D01*
D20*
X015092Y038256D02*
Y040737D01*
X012611Y038256D02*
X015092D01*
X012611D02*
Y040737D01*
X015092D01*
M02*
