G04*
G04 #@! TF.GenerationSoftware,Altium Limited,Altium Designer,20.0.13 (296)*
G04*
G04 Layer_Color=128*
%FSTAX24Y24*%
%MOIN*%
G70*
G01*
G75*
%ADD151C,0.0020*%
D151*
X029433Y0471D02*
X029867D01*
X02965Y046883D02*
Y047317D01*
X0295Y01705D02*
X0301D01*
X0298Y01675D02*
Y01735D01*
X0315Y01705D02*
X0321D01*
X0318Y01675D02*
Y01735D01*
X01014Y04155D02*
X01046D01*
X0103Y04139D02*
Y04171D01*
X00914Y04155D02*
X00946D01*
X0093Y04139D02*
Y04171D01*
X012911Y05415D02*
X014289D01*
X0136Y053461D02*
Y054839D01*
X036013Y0484D02*
X037587D01*
X0368Y047613D02*
Y049187D01*
X020828Y03935D02*
X024372D01*
X0226Y037578D02*
Y041122D01*
X018813Y03935D02*
X020387D01*
X0196Y038563D02*
Y040137D01*
X024813Y03935D02*
X026387D01*
X0256Y038563D02*
Y040137D01*
X019383Y03635D02*
X019817D01*
X0196Y036133D02*
Y036567D01*
X020383Y03635D02*
X020817D01*
X0206Y036133D02*
Y036567D01*
X021383Y03635D02*
X021817D01*
X0216Y036133D02*
Y036567D01*
X022383Y03635D02*
X022817D01*
X0226Y036133D02*
Y036567D01*
X023383Y03635D02*
X023817D01*
X0236Y036133D02*
Y036567D01*
X024383Y03635D02*
X024817D01*
X0246Y036133D02*
Y036567D01*
X025383Y03635D02*
X025817D01*
X0256Y036133D02*
Y036567D01*
X025383Y04235D02*
X025817D01*
X0256Y042133D02*
Y042567D01*
X024383Y04235D02*
X024817D01*
X0246Y042133D02*
Y042567D01*
X023383Y04235D02*
X023817D01*
X0236Y042133D02*
Y042567D01*
X022383Y04235D02*
X022817D01*
X0226Y042133D02*
Y042567D01*
X021383Y04235D02*
X021817D01*
X0216Y042133D02*
Y042567D01*
X020383Y04235D02*
X020817D01*
X0206Y042133D02*
Y042567D01*
X019383Y04235D02*
X019817D01*
X0196Y042133D02*
Y042567D01*
X011033Y02635D02*
X011467D01*
X01125Y026133D02*
Y026567D01*
X009533Y02635D02*
X009967D01*
X00975Y026133D02*
Y026567D01*
X008083Y02635D02*
X008517D01*
X0083Y026133D02*
Y026567D01*
X0129Y0234D02*
X0133D01*
X0131Y0232D02*
Y0236D01*
X0129Y0224D02*
X0133D01*
X0131Y0222D02*
Y0226D01*
X007313Y0303D02*
X008887D01*
X0081Y029513D02*
Y031087D01*
X028933Y03985D02*
X029367D01*
X02915Y039633D02*
Y040067D01*
X028933Y04105D02*
X029367D01*
X02915Y040833D02*
Y041267D01*
X028933Y0386D02*
X029367D01*
X02915Y038383D02*
Y038817D01*
X019283Y032D02*
X019717D01*
X0195Y031783D02*
Y032217D01*
X029311Y03225D02*
X030689D01*
X03Y031561D02*
Y032939D01*
X028933Y03735D02*
X029367D01*
X02915Y037133D02*
Y037567D01*
X028933Y03615D02*
X029367D01*
X02915Y035933D02*
Y036367D01*
X016583Y03305D02*
X017017D01*
X0168Y032833D02*
Y033267D01*
X006683Y0439D02*
X007117D01*
X0069Y043683D02*
Y044117D01*
X006683Y0449D02*
X007117D01*
X0069Y044683D02*
Y045117D01*
X006683Y0459D02*
X007117D01*
X0069Y045683D02*
Y046117D01*
X006683Y0469D02*
X007117D01*
X0069Y046683D02*
Y047117D01*
X014899Y03125D02*
X015301D01*
X0151Y031049D02*
Y031451D01*
X014899Y03025D02*
X015301D01*
X0151Y030049D02*
Y030451D01*
X014899Y02925D02*
X015301D01*
X0151Y029049D02*
Y029451D01*
X014899Y02825D02*
X015301D01*
X0151Y028049D02*
Y028451D01*
X011233Y02075D02*
X011667D01*
X01145Y020533D02*
Y020967D01*
X010233Y02075D02*
X010667D01*
X01045Y020533D02*
Y020967D01*
X009233Y02075D02*
X009667D01*
X00945Y020533D02*
Y020967D01*
X008233Y02075D02*
X008667D01*
X00845Y020533D02*
Y020967D01*
X010733Y01975D02*
X011167D01*
X01095Y019533D02*
Y019967D01*
X009733Y01975D02*
X010167D01*
X00995Y019533D02*
Y019967D01*
X008733Y01975D02*
X009167D01*
X00895Y019533D02*
Y019967D01*
X012485Y016049D02*
X013115D01*
X0128Y015734D02*
Y016364D01*
X0068Y01725D02*
X0081D01*
X00745Y0166D02*
Y0179D01*
X006285Y016049D02*
X006915D01*
X0066Y015734D02*
Y016364D01*
X007733Y01975D02*
X008167D01*
X00795Y019533D02*
Y019967D01*
X0113Y01725D02*
X0126D01*
X01195Y0166D02*
Y0179D01*
X02416Y01876D02*
X02456D01*
X02436Y01856D02*
Y01896D01*
X02415Y02075D02*
X02455D01*
X02435Y02055D02*
Y02095D01*
X03055Y028549D02*
X030983D01*
X030766Y028333D02*
Y028766D01*
X033524Y01573D02*
X034902D01*
X034213Y015041D02*
Y016418D01*
X019453Y053D02*
X019767D01*
X01961Y052843D02*
Y053157D01*
X020443Y053D02*
X020757D01*
X0206Y052843D02*
Y053157D01*
X019453Y05174D02*
X019767D01*
X01961Y051583D02*
Y051897D01*
X020443Y05173D02*
X020757D01*
X0206Y051573D02*
Y051887D01*
X017475Y051915D02*
X018065D01*
X01777Y05162D02*
Y05221D01*
X022275Y051915D02*
X022865D01*
X02257Y05162D02*
Y05221D01*
X03305Y03775D02*
X03345D01*
X03325Y03755D02*
Y03795D01*
X03305Y03675D02*
X03345D01*
X03325Y03655D02*
Y03695D01*
X015749Y0459D02*
X016151D01*
X01595Y045699D02*
Y046101D01*
X014749Y0459D02*
X015151D01*
X01495Y045699D02*
Y046101D01*
X013749Y0459D02*
X014151D01*
X01395Y045699D02*
Y046101D01*
X012749Y0459D02*
X013151D01*
X01295Y045699D02*
Y046101D01*
X010833Y03485D02*
X011267D01*
X01105Y034633D02*
Y035067D01*
X017649Y03935D02*
X018051D01*
X01785Y039149D02*
Y039551D01*
X017649Y03835D02*
X018051D01*
X01785Y038149D02*
Y038551D01*
X017649Y03735D02*
X018051D01*
X01785Y037149D02*
Y037551D01*
X017649Y03635D02*
X018051D01*
X01785Y036149D02*
Y036551D01*
X006849Y0344D02*
X007251D01*
X00705Y034199D02*
Y034601D01*
X006849Y0354D02*
X007251D01*
X00705Y035199D02*
Y035601D01*
X006849Y0364D02*
X007251D01*
X00705Y036199D02*
Y036601D01*
X006849Y0374D02*
X007251D01*
X00705Y037199D02*
Y037601D01*
X011983Y03485D02*
X012417D01*
X0122Y034633D02*
Y035067D01*
X013839Y01573D02*
X015217D01*
X014528Y015041D02*
Y016418D01*
X036683Y0387D02*
X037117D01*
X0369Y038483D02*
Y038917D01*
X01675Y01735D02*
X01735D01*
X01705Y01705D02*
Y01765D01*
X01875Y01735D02*
X01935D01*
X01905Y01705D02*
Y01765D01*
X024927Y017196D02*
X025527D01*
X025227Y016896D02*
Y017496D01*
X022927Y017196D02*
X023527D01*
X023227Y016896D02*
Y017496D01*
X027442Y025481D02*
X0276D01*
X027521Y025403D02*
Y02556D01*
X022842Y025531D02*
X023D01*
X022921Y025453D02*
Y02561D01*
X022842Y020531D02*
X023D01*
X022921Y020453D02*
Y02061D01*
X022842Y020031D02*
X023D01*
X022921Y019953D02*
Y02011D01*
X026092Y020131D02*
X02625D01*
X026171Y020053D02*
Y02021D01*
X026042Y021231D02*
X0262D01*
X026121Y021153D02*
Y02131D01*
X023373Y022287D02*
X023531D01*
X023452Y022208D02*
Y022366D01*
X025579Y022275D02*
X025737D01*
X025658Y022196D02*
Y022354D01*
X025923Y025387D02*
X026081D01*
X026002Y025308D02*
Y025466D01*
X026773Y025537D02*
X026931D01*
X026852Y025458D02*
Y025616D01*
X028123Y025487D02*
X028281D01*
X028202Y025408D02*
Y025566D01*
X021323Y025587D02*
X021481D01*
X021402Y025508D02*
Y025666D01*
X022223Y025537D02*
X022381D01*
X022302Y025458D02*
Y025616D01*
X019423Y025587D02*
X019581D01*
X019502Y025508D02*
Y025666D01*
X020423Y025637D02*
X020581D01*
X020502Y025558D02*
Y025716D01*
X037421Y042D02*
X037579D01*
X0375Y041921D02*
Y042079D01*
X037421Y04D02*
X037579D01*
X0375Y039921D02*
Y040079D01*
X037421Y038D02*
X037579D01*
X0375Y037921D02*
Y038079D01*
X036921Y037D02*
X037079D01*
X037Y036921D02*
Y037079D01*
X037421Y036D02*
X037579D01*
X0375Y035921D02*
Y036079D01*
X036921Y035D02*
X037079D01*
X037Y034921D02*
Y035079D01*
X037421Y034D02*
X037579D01*
X0375Y033921D02*
Y034079D01*
X036921Y033D02*
X037079D01*
X037Y032921D02*
Y033079D01*
X036921Y029D02*
X037079D01*
X037Y028921D02*
Y029079D01*
X036921Y025D02*
X037079D01*
X037Y024921D02*
Y025079D01*
X036921Y023D02*
X037079D01*
X037Y022921D02*
Y023079D01*
X036921Y021D02*
X037079D01*
X037Y020921D02*
Y021079D01*
X035921Y043D02*
X036079D01*
X036Y042921D02*
Y043079D01*
X035921Y041D02*
X036079D01*
X036Y040921D02*
Y041079D01*
X036421Y038D02*
X036579D01*
X0365Y037921D02*
Y038079D01*
X035921Y037D02*
X036079D01*
X036Y036921D02*
Y037079D01*
X036421Y036D02*
X036579D01*
X0365Y035921D02*
Y036079D01*
X035921Y035D02*
X036079D01*
X036Y034921D02*
Y035079D01*
X036421Y034D02*
X036579D01*
X0365Y033921D02*
Y034079D01*
X035921Y031D02*
X036079D01*
X036Y030921D02*
Y031079D01*
X036421Y03D02*
X036579D01*
X0365Y029921D02*
Y030079D01*
X036421Y028D02*
X036579D01*
X0365Y027921D02*
Y028079D01*
X036421Y022D02*
X036579D01*
X0365Y021921D02*
Y022079D01*
X035921Y019D02*
X036079D01*
X036Y018921D02*
Y019079D01*
X035421Y044D02*
X035579D01*
X0355Y043921D02*
Y044079D01*
X035421Y042D02*
X035579D01*
X0355Y041921D02*
Y042079D01*
X035421Y04D02*
X035579D01*
X0355Y039921D02*
Y040079D01*
X035421Y038D02*
X035579D01*
X0355Y037921D02*
Y038079D01*
X035421Y036D02*
X035579D01*
X0355Y035921D02*
Y036079D01*
X035421Y034D02*
X035579D01*
X0355Y033921D02*
Y034079D01*
X035421Y03D02*
X035579D01*
X0355Y029921D02*
Y030079D01*
X035421Y028D02*
X035579D01*
X0355Y027921D02*
Y028079D01*
X034921Y019D02*
X035079D01*
X035Y018921D02*
Y019079D01*
X033921Y019D02*
X034079D01*
X034Y018921D02*
Y019079D01*
X033421Y05D02*
X033579D01*
X0335Y049921D02*
Y050079D01*
X032921Y049D02*
X033079D01*
X033Y048921D02*
Y049079D01*
X033421Y046D02*
X033579D01*
X0335Y045921D02*
Y046079D01*
X032921Y035D02*
X033079D01*
X033Y034921D02*
Y035079D01*
X032921Y033D02*
X033079D01*
X033Y032921D02*
Y033079D01*
X032921Y031D02*
X033079D01*
X033Y030921D02*
Y031079D01*
X032921Y019D02*
X033079D01*
X033Y018921D02*
Y019079D01*
X031921Y051D02*
X032079D01*
X032Y050921D02*
Y051079D01*
X032421Y05D02*
X032579D01*
X0325Y049921D02*
Y050079D01*
X031921Y043D02*
X032079D01*
X032Y042921D02*
Y043079D01*
X032421Y042D02*
X032579D01*
X0325Y041921D02*
Y042079D01*
X031921Y041D02*
X032079D01*
X032Y040921D02*
Y041079D01*
X032421Y04D02*
X032579D01*
X0325Y039921D02*
Y040079D01*
X031921Y039D02*
X032079D01*
X032Y038921D02*
Y039079D01*
X031921Y037D02*
X032079D01*
X032Y036921D02*
Y037079D01*
X032421Y036D02*
X032579D01*
X0325Y035921D02*
Y036079D01*
X031921Y035D02*
X032079D01*
X032Y034921D02*
Y035079D01*
X032421Y034D02*
X032579D01*
X0325Y033921D02*
Y034079D01*
X031921Y033D02*
X032079D01*
X032Y032921D02*
Y033079D01*
X032421Y032D02*
X032579D01*
X0325Y031921D02*
Y032079D01*
X031921Y031D02*
X032079D01*
X032Y030921D02*
Y031079D01*
X032421Y03D02*
X032579D01*
X0325Y029921D02*
Y030079D01*
X031921Y015D02*
X032079D01*
X032Y014921D02*
Y015079D01*
X031421Y052D02*
X031579D01*
X0315Y051921D02*
Y052079D01*
X030921Y051D02*
X031079D01*
X031Y050921D02*
Y051079D01*
X031421Y05D02*
X031579D01*
X0315Y049921D02*
Y050079D01*
X031421Y048D02*
X031579D01*
X0315Y047921D02*
Y048079D01*
X030921Y043D02*
X031079D01*
X031Y042921D02*
Y043079D01*
X031421Y042D02*
X031579D01*
X0315Y041921D02*
Y042079D01*
X030921Y041D02*
X031079D01*
X031Y040921D02*
Y041079D01*
X031421Y04D02*
X031579D01*
X0315Y039921D02*
Y040079D01*
X030921Y039D02*
X031079D01*
X031Y038921D02*
Y039079D01*
X031421Y038D02*
X031579D01*
X0315Y037921D02*
Y038079D01*
X030921Y037D02*
X031079D01*
X031Y036921D02*
Y037079D01*
X031421Y036D02*
X031579D01*
X0315Y035921D02*
Y036079D01*
X030921Y035D02*
X031079D01*
X031Y034921D02*
Y035079D01*
X031421Y034D02*
X031579D01*
X0315Y033921D02*
Y034079D01*
X031421Y03D02*
X031579D01*
X0315Y029921D02*
Y030079D01*
X030921Y019D02*
X031079D01*
X031Y018921D02*
Y019079D01*
X031421Y016D02*
X031579D01*
X0315Y015921D02*
Y016079D01*
X030921Y015D02*
X031079D01*
X031Y014921D02*
Y015079D01*
X030421Y052D02*
X030579D01*
X0305Y051921D02*
Y052079D01*
X029921Y051D02*
X030079D01*
X03Y050921D02*
Y051079D01*
X030421Y05D02*
X030579D01*
X0305Y049921D02*
Y050079D01*
X030421Y048D02*
X030579D01*
X0305Y047921D02*
Y048079D01*
X030421Y042D02*
X030579D01*
X0305Y041921D02*
Y042079D01*
X029921Y041D02*
X030079D01*
X03Y040921D02*
Y041079D01*
X030421Y04D02*
X030579D01*
X0305Y039921D02*
Y040079D01*
X029921Y039D02*
X030079D01*
X03Y038921D02*
Y039079D01*
X030421Y038D02*
X030579D01*
X0305Y037921D02*
Y038079D01*
X029921Y037D02*
X030079D01*
X03Y036921D02*
Y037079D01*
X030421Y036D02*
X030579D01*
X0305Y035921D02*
Y036079D01*
X029921Y035D02*
X030079D01*
X03Y034921D02*
Y035079D01*
X030421Y034D02*
X030579D01*
X0305Y033921D02*
Y034079D01*
X030421Y03D02*
X030579D01*
X0305Y029921D02*
Y030079D01*
X029921Y025D02*
X030079D01*
X03Y024921D02*
Y025079D01*
X030421Y016D02*
X030579D01*
X0305Y015921D02*
Y016079D01*
X029921Y015D02*
X030079D01*
X03Y014921D02*
Y015079D01*
X028921Y051D02*
X029079D01*
X029Y050921D02*
Y051079D01*
X029421Y05D02*
X029579D01*
X0295Y049921D02*
Y050079D01*
X029421Y048D02*
X029579D01*
X0295Y047921D02*
Y048079D01*
X028921Y043D02*
X029079D01*
X029Y042921D02*
Y043079D01*
X028921Y031D02*
X029079D01*
X029Y030921D02*
Y031079D01*
X029421Y03D02*
X029579D01*
X0295Y029921D02*
Y030079D01*
X028921Y021D02*
X029079D01*
X029Y020921D02*
Y021079D01*
X029421Y016D02*
X029579D01*
X0295Y015921D02*
Y016079D01*
X028921Y015D02*
X029079D01*
X029Y014921D02*
Y015079D01*
X028421Y054D02*
X028579D01*
X0285Y053921D02*
Y054079D01*
X027921Y051D02*
X028079D01*
X028Y050921D02*
Y051079D01*
X028421Y05D02*
X028579D01*
X0285Y049921D02*
Y050079D01*
X028421Y048D02*
X028579D01*
X0285Y047921D02*
Y048079D01*
X027921Y043D02*
X028079D01*
X028Y042921D02*
Y043079D01*
X028421Y042D02*
X028579D01*
X0285Y041921D02*
Y042079D01*
X027921Y031D02*
X028079D01*
X028Y030921D02*
Y031079D01*
X028421Y03D02*
X028579D01*
X0285Y029921D02*
Y030079D01*
X028421Y022D02*
X028579D01*
X0285Y021921D02*
Y022079D01*
X027921Y021D02*
X028079D01*
X028Y020921D02*
Y021079D01*
X028421Y02D02*
X028579D01*
X0285Y019921D02*
Y020079D01*
X027921Y019D02*
X028079D01*
X028Y018921D02*
Y019079D01*
X028421Y016D02*
X028579D01*
X0285Y015921D02*
Y016079D01*
X027921Y015D02*
X028079D01*
X028Y014921D02*
Y015079D01*
X027421Y05D02*
X027579D01*
X0275Y049921D02*
Y050079D01*
X026921Y047D02*
X027079D01*
X027Y046921D02*
Y047079D01*
X026921Y043D02*
X027079D01*
X027Y042921D02*
Y043079D01*
X026921Y041D02*
X027079D01*
X027Y040921D02*
Y041079D01*
X026921Y035D02*
X027079D01*
X027Y034921D02*
Y035079D01*
X026921Y033D02*
X027079D01*
X027Y032921D02*
Y033079D01*
X027421Y032D02*
X027579D01*
X0275Y031921D02*
Y032079D01*
X027421Y016D02*
X027579D01*
X0275Y015921D02*
Y016079D01*
X026921Y015D02*
X027079D01*
X027Y014921D02*
Y015079D01*
X025921Y051D02*
X026079D01*
X026Y050921D02*
Y051079D01*
X026421Y05D02*
X026579D01*
X0265Y049921D02*
Y050079D01*
X026421Y048D02*
X026579D01*
X0265Y047921D02*
Y048079D01*
X026421Y044D02*
X026579D01*
X0265Y043921D02*
Y044079D01*
X026421Y042D02*
X026579D01*
X0265Y041921D02*
Y042079D01*
X025921Y041D02*
X026079D01*
X026Y040921D02*
Y041079D01*
X026421Y036D02*
X026579D01*
X0265Y035921D02*
Y036079D01*
X025921Y035D02*
X026079D01*
X026Y034921D02*
Y035079D01*
X025921Y015D02*
X026079D01*
X026Y014921D02*
Y015079D01*
X025421Y05D02*
X025579D01*
X0255Y049921D02*
Y050079D01*
X025421Y048D02*
X025579D01*
X0255Y047921D02*
Y048079D01*
X024921Y047D02*
X025079D01*
X025Y046921D02*
Y047079D01*
X025421Y044D02*
X025579D01*
X0255Y043921D02*
Y044079D01*
X024921Y041D02*
X025079D01*
X025Y040921D02*
Y041079D01*
X024921Y015D02*
X025079D01*
X025Y014921D02*
Y015079D01*
X024421Y054D02*
X024579D01*
X0245Y053921D02*
Y054079D01*
X023921Y053D02*
X024079D01*
X024Y052921D02*
Y053079D01*
X024421Y052D02*
X024579D01*
X0245Y051921D02*
Y052079D01*
X023921Y047D02*
X024079D01*
X024Y046921D02*
Y047079D01*
X024421Y044D02*
X024579D01*
X0245Y043921D02*
Y044079D01*
X024421Y02D02*
X024579D01*
X0245Y019921D02*
Y020079D01*
X023921Y015D02*
X024079D01*
X024Y014921D02*
Y015079D01*
X023421Y054D02*
X023579D01*
X0235Y053921D02*
Y054079D01*
X022921Y053D02*
X023079D01*
X023Y052921D02*
Y053079D01*
X023421Y052D02*
X023579D01*
X0235Y051921D02*
Y052079D01*
X022921Y051D02*
X023079D01*
X023Y050921D02*
Y051079D01*
X023421Y048D02*
X023579D01*
X0235Y047921D02*
Y048079D01*
X022921Y047D02*
X023079D01*
X023Y046921D02*
Y047079D01*
X022921Y043D02*
X023079D01*
X023Y042921D02*
Y043079D01*
X022921Y021D02*
X023079D01*
X023Y020921D02*
Y021079D01*
X023421Y018D02*
X023579D01*
X0235Y017921D02*
Y018079D01*
X022921Y015D02*
X023079D01*
X023Y014921D02*
Y015079D01*
X022421Y054D02*
X022579D01*
X0225Y053921D02*
Y054079D01*
X021921Y053D02*
X022079D01*
X022Y052921D02*
Y053079D01*
X021921Y051D02*
X022079D01*
X022Y050921D02*
Y051079D01*
X022421Y048D02*
X022579D01*
X0225Y047921D02*
Y048079D01*
X021921Y047D02*
X022079D01*
X022Y046921D02*
Y047079D01*
X021921Y043D02*
X022079D01*
X022Y042921D02*
Y043079D01*
X021921Y023D02*
X022079D01*
X022Y022921D02*
Y023079D01*
X022421Y018D02*
X022579D01*
X0225Y017921D02*
Y018079D01*
X021921Y017D02*
X022079D01*
X022Y016921D02*
Y017079D01*
X022421Y016D02*
X022579D01*
X0225Y015921D02*
Y016079D01*
X021921Y015D02*
X022079D01*
X022Y014921D02*
Y015079D01*
X021421Y054D02*
X021579D01*
X0215Y053921D02*
Y054079D01*
X020921Y051D02*
X021079D01*
X021Y050921D02*
Y051079D01*
X020921Y047D02*
X021079D01*
X021Y046921D02*
Y047079D01*
X021421Y044D02*
X021579D01*
X0215Y043921D02*
Y044079D01*
X020921Y043D02*
X021079D01*
X021Y042921D02*
Y043079D01*
X020921Y041D02*
X021079D01*
X021Y040921D02*
Y041079D01*
X020921Y021D02*
X021079D01*
X021Y020921D02*
Y021079D01*
X020921Y019D02*
X021079D01*
X021Y018921D02*
Y019079D01*
X021421Y018D02*
X021579D01*
X0215Y017921D02*
Y018079D01*
X020921Y017D02*
X021079D01*
X021Y016921D02*
Y017079D01*
X021421Y016D02*
X021579D01*
X0215Y015921D02*
Y016079D01*
X020921Y015D02*
X021079D01*
X021Y014921D02*
Y015079D01*
X020421Y054D02*
X020579D01*
X0205Y053921D02*
Y054079D01*
X019921Y047D02*
X020079D01*
X02Y046921D02*
Y047079D01*
X020421Y044D02*
X020579D01*
X0205Y043921D02*
Y044079D01*
X019921Y043D02*
X020079D01*
X02Y042921D02*
Y043079D01*
X019921Y041D02*
X020079D01*
X02Y040921D02*
Y041079D01*
X020421Y038D02*
X020579D01*
X0205Y037921D02*
Y038079D01*
X020421Y03D02*
X020579D01*
X0205Y029921D02*
Y030079D01*
X020421Y022D02*
X020579D01*
X0205Y021921D02*
Y022079D01*
X019921Y021D02*
X020079D01*
X02Y020921D02*
Y021079D01*
X020421Y02D02*
X020579D01*
X0205Y019921D02*
Y020079D01*
X019921Y019D02*
X020079D01*
X02Y018921D02*
Y019079D01*
X020421Y018D02*
X020579D01*
X0205Y017921D02*
Y018079D01*
X019921Y017D02*
X020079D01*
X02Y016921D02*
Y017079D01*
X020421Y016D02*
X020579D01*
X0205Y015921D02*
Y016079D01*
X019921Y015D02*
X020079D01*
X02Y014921D02*
Y015079D01*
X019421Y054D02*
X019579D01*
X0195Y053921D02*
Y054079D01*
X019421Y048D02*
X019579D01*
X0195Y047921D02*
Y048079D01*
X019421Y044D02*
X019579D01*
X0195Y043921D02*
Y044079D01*
X019421Y038D02*
X019579D01*
X0195Y037921D02*
Y038079D01*
X019421Y03D02*
X019579D01*
X0195Y029921D02*
Y030079D01*
X019421Y016D02*
X019579D01*
X0195Y015921D02*
Y016079D01*
X018921Y015D02*
X019079D01*
X019Y014921D02*
Y015079D01*
X018421Y054D02*
X018579D01*
X0185Y053921D02*
Y054079D01*
X017921Y053D02*
X018079D01*
X018Y052921D02*
Y053079D01*
X018421Y038D02*
X018579D01*
X0185Y037921D02*
Y038079D01*
X018421Y036D02*
X018579D01*
X0185Y035921D02*
Y036079D01*
X017921Y023D02*
X018079D01*
X018Y022921D02*
Y023079D01*
X017921Y021D02*
X018079D01*
X018Y020921D02*
Y021079D01*
X017921Y019D02*
X018079D01*
X018Y018921D02*
Y019079D01*
X017921Y017D02*
X018079D01*
X018Y016921D02*
Y017079D01*
X018421Y016D02*
X018579D01*
X0185Y015921D02*
Y016079D01*
X017921Y015D02*
X018079D01*
X018Y014921D02*
Y015079D01*
X016921Y051D02*
X017079D01*
X017Y050921D02*
Y051079D01*
X017421Y03D02*
X017579D01*
X0175Y029921D02*
Y030079D01*
X016921Y027D02*
X017079D01*
X017Y026921D02*
Y027079D01*
X017421Y016D02*
X017579D01*
X0175Y015921D02*
Y016079D01*
X016921Y015D02*
X017079D01*
X017Y014921D02*
Y015079D01*
X016421Y052D02*
X016579D01*
X0165Y051921D02*
Y052079D01*
X015921Y051D02*
X016079D01*
X016Y050921D02*
Y051079D01*
X016421Y05D02*
X016579D01*
X0165Y049921D02*
Y050079D01*
X015921Y049D02*
X016079D01*
X016Y048921D02*
Y049079D01*
X015921Y027D02*
X016079D01*
X016Y026921D02*
Y027079D01*
X016421Y026D02*
X016579D01*
X0165Y025921D02*
Y026079D01*
X015921Y025D02*
X016079D01*
X016Y024921D02*
Y025079D01*
X015921Y023D02*
X016079D01*
X016Y022921D02*
Y023079D01*
X015921Y021D02*
X016079D01*
X016Y020921D02*
Y021079D01*
X015921Y019D02*
X016079D01*
X016Y018921D02*
Y019079D01*
X015921Y017D02*
X016079D01*
X016Y016921D02*
Y017079D01*
X016421Y016D02*
X016579D01*
X0165Y015921D02*
Y016079D01*
X015921Y015D02*
X016079D01*
X016Y014921D02*
Y015079D01*
X014921Y051D02*
X015079D01*
X015Y050921D02*
Y051079D01*
X015421Y05D02*
X015579D01*
X0155Y049921D02*
Y050079D01*
X014921Y049D02*
X015079D01*
X015Y048921D02*
Y049079D01*
X015421Y018D02*
X015579D01*
X0155Y017921D02*
Y018079D01*
X013921Y051D02*
X014079D01*
X014Y050921D02*
Y051079D01*
X014421Y05D02*
X014579D01*
X0145Y049921D02*
Y050079D01*
X013921Y049D02*
X014079D01*
X014Y048921D02*
Y049079D01*
X014421Y048D02*
X014579D01*
X0145Y047921D02*
Y048079D01*
X014421Y044D02*
X014579D01*
X0145Y043921D02*
Y044079D01*
X013921Y039D02*
X014079D01*
X014Y038921D02*
Y039079D01*
X014421Y03D02*
X014579D01*
X0145Y029921D02*
Y030079D01*
X013921Y029D02*
X014079D01*
X014Y028921D02*
Y029079D01*
X014421Y028D02*
X014579D01*
X0145Y027921D02*
Y028079D01*
X013921Y027D02*
X014079D01*
X014Y026921D02*
Y027079D01*
X014421Y026D02*
X014579D01*
X0145Y025921D02*
Y026079D01*
X013921Y025D02*
X014079D01*
X014Y024921D02*
Y025079D01*
X014421Y024D02*
X014579D01*
X0145Y023921D02*
Y024079D01*
X013921Y023D02*
X014079D01*
X014Y022921D02*
Y023079D01*
X014421Y022D02*
X014579D01*
X0145Y021921D02*
Y022079D01*
X013921Y021D02*
X014079D01*
X014Y020921D02*
Y021079D01*
X014421Y02D02*
X014579D01*
X0145Y019921D02*
Y020079D01*
X013921Y019D02*
X014079D01*
X014Y018921D02*
Y019079D01*
X014421Y018D02*
X014579D01*
X0145Y017921D02*
Y018079D01*
X012921Y051D02*
X013079D01*
X013Y050921D02*
Y051079D01*
X013421Y05D02*
X013579D01*
X0135Y049921D02*
Y050079D01*
X012921Y049D02*
X013079D01*
X013Y048921D02*
Y049079D01*
X013421Y048D02*
X013579D01*
X0135Y047921D02*
Y048079D01*
X013421Y032D02*
X013579D01*
X0135Y031921D02*
Y032079D01*
X013421Y028D02*
X013579D01*
X0135Y027921D02*
Y028079D01*
X012921Y027D02*
X013079D01*
X013Y026921D02*
Y027079D01*
X012921Y021D02*
X013079D01*
X013Y020921D02*
Y021079D01*
X013421Y02D02*
X013579D01*
X0135Y019921D02*
Y020079D01*
X012921Y019D02*
X013079D01*
X013Y018921D02*
Y019079D01*
X013421Y018D02*
X013579D01*
X0135Y017921D02*
Y018079D01*
X012921Y015D02*
X013079D01*
X013Y014921D02*
Y015079D01*
X012421Y05D02*
X012579D01*
X0125Y049921D02*
Y050079D01*
X011921Y049D02*
X012079D01*
X012Y048921D02*
Y049079D01*
X011921Y041D02*
X012079D01*
X012Y040921D02*
Y041079D01*
X011921Y033D02*
X012079D01*
X012Y032921D02*
Y033079D01*
X012421Y028D02*
X012579D01*
X0125Y027921D02*
Y028079D01*
X012421Y02D02*
X012579D01*
X0125Y019921D02*
Y020079D01*
X011921Y019D02*
X012079D01*
X012Y018921D02*
Y019079D01*
X011921Y015D02*
X012079D01*
X012Y014921D02*
Y015079D01*
X011421Y05D02*
X011579D01*
X0115Y049921D02*
Y050079D01*
X010921Y049D02*
X011079D01*
X011Y048921D02*
Y049079D01*
X011421Y034D02*
X011579D01*
X0115Y033921D02*
Y034079D01*
X011421Y028D02*
X011579D01*
X0115Y027921D02*
Y028079D01*
X010921Y023D02*
X011079D01*
X011Y022921D02*
Y023079D01*
X011421Y016D02*
X011579D01*
X0115Y015921D02*
Y016079D01*
X010921Y015D02*
X011079D01*
X011Y014921D02*
Y015079D01*
X010421Y048D02*
X010579D01*
X0105Y047921D02*
Y048079D01*
X010421Y034D02*
X010579D01*
X0105Y033921D02*
Y034079D01*
X010421Y026D02*
X010579D01*
X0105Y025921D02*
Y026079D01*
X010421Y018D02*
X010579D01*
X0105Y017921D02*
Y018079D01*
X009921Y017D02*
X010079D01*
X01Y016921D02*
Y017079D01*
X010421Y016D02*
X010579D01*
X0105Y015921D02*
Y016079D01*
X009921Y015D02*
X010079D01*
X01Y014921D02*
Y015079D01*
X008921Y047D02*
X009079D01*
X009Y046921D02*
Y047079D01*
X008921Y035D02*
X009079D01*
X009Y034921D02*
Y035079D01*
X008921Y023D02*
X009079D01*
X009Y022921D02*
Y023079D01*
X009421Y018D02*
X009579D01*
X0095Y017921D02*
Y018079D01*
X008921Y017D02*
X009079D01*
X009Y016921D02*
Y017079D01*
X009421Y016D02*
X009579D01*
X0095Y015921D02*
Y016079D01*
X008921Y015D02*
X009079D01*
X009Y014921D02*
Y015079D01*
X007921Y041D02*
X008079D01*
X008Y040921D02*
Y041079D01*
X007921Y039D02*
X008079D01*
X008Y038921D02*
Y039079D01*
X008421Y036D02*
X008579D01*
X0085Y035921D02*
Y036079D01*
X007921Y035D02*
X008079D01*
X008Y034921D02*
Y035079D01*
X008421Y034D02*
X008579D01*
X0085Y033921D02*
Y034079D01*
X008421Y022D02*
X008579D01*
X0085Y021921D02*
Y022079D01*
X008421Y018D02*
X008579D01*
X0085Y017921D02*
Y018079D01*
X008421Y016D02*
X008579D01*
X0085Y015921D02*
Y016079D01*
X007921Y015D02*
X008079D01*
X008Y014921D02*
Y015079D01*
X007421Y026D02*
X007579D01*
X0075Y025921D02*
Y026079D01*
X006921Y023D02*
X007079D01*
X007Y022921D02*
Y023079D01*
X007421Y016D02*
X007579D01*
X0075Y015921D02*
Y016079D01*
X006921Y015D02*
X007079D01*
X007Y014921D02*
Y015079D01*
X02681Y05085D02*
X02709D01*
X02695Y05071D02*
Y05099D01*
X028002Y05165D02*
X028198D01*
X0281Y051552D02*
Y051748D01*
X011802Y046D02*
X011998D01*
X0119Y045902D02*
Y046098D01*
X014952Y04475D02*
X015148D01*
X01505Y044652D02*
Y044848D01*
X016652Y03835D02*
X016848D01*
X01675Y038252D02*
Y038448D01*
X012302Y0372D02*
X012498D01*
X0124Y037102D02*
Y037298D01*
X015564Y033027D02*
X015761D01*
X015663Y032929D02*
Y033126D01*
X016452Y03605D02*
X016648D01*
X01655Y035952D02*
Y036148D01*
X015451Y0365D02*
X015648D01*
X015549Y036402D02*
Y036598D01*
X016065Y038013D02*
X016262D01*
X016163Y037915D02*
Y038112D01*
X018402Y04015D02*
X018598D01*
X0185Y040052D02*
Y040248D01*
X02066Y0374D02*
X02094D01*
X0208Y03726D02*
Y03754D01*
X012399Y043327D02*
X012596D01*
X012498Y043229D02*
Y043426D01*
X01311Y03135D02*
X01339D01*
X01325Y03121D02*
Y03149D01*
X016002Y0357D02*
X016198D01*
X0161Y035602D02*
Y035798D01*
X023346Y031506D02*
X023542D01*
X023444Y031408D02*
Y031604D01*
X012198Y043996D02*
X012395D01*
X012296Y043898D02*
Y044095D01*
X026702Y0306D02*
X026898D01*
X0268Y030502D02*
Y030698D01*
X01043Y038371D02*
X010627D01*
X010529Y038273D02*
Y03847D01*
X015852Y0362D02*
X016048D01*
X01595Y036102D02*
Y036298D01*
X01326Y039D02*
X01354D01*
X0134Y03886D02*
Y03914D01*
X01436Y039D02*
X01464D01*
X0145Y03886D02*
Y03914D01*
X01431Y0402D02*
X01459D01*
X01445Y04006D02*
Y04034D01*
X01321Y04015D02*
X01349D01*
X01335Y04001D02*
Y04029D01*
X010152Y03545D02*
X010348D01*
X01025Y035352D02*
Y035548D01*
X02271Y044D02*
X02299D01*
X02285Y04386D02*
Y04414D01*
X01016Y0224D02*
X01044D01*
X0103Y02226D02*
Y02254D01*
X010927Y036875D02*
X011123D01*
X011025Y036777D02*
Y036973D01*
X018852Y04955D02*
X019048D01*
X01895Y049452D02*
Y049648D01*
X024402Y0336D02*
X024598D01*
X0245Y033502D02*
Y033698D01*
X02741Y03575D02*
X02769D01*
X02755Y03561D02*
Y03589D01*
X02471Y0497D02*
X02499D01*
X02485Y04956D02*
Y04984D01*
X014652Y0338D02*
X014848D01*
X01475Y033702D02*
Y033898D01*
X013158Y036093D02*
X013438D01*
X013298Y035953D02*
Y036233D01*
X00961Y0361D02*
X00989D01*
X00975Y03596D02*
Y03624D01*
X02911Y0231D02*
X02939D01*
X02925Y02296D02*
Y02324D01*
X02766Y0287D02*
X02794D01*
X0278Y02856D02*
Y02884D01*
X01986Y0235D02*
X02014D01*
X02Y02336D02*
Y02364D01*
X02156Y0302D02*
X02184D01*
X0217Y03006D02*
Y03034D01*
X036952Y0308D02*
X037148D01*
X03705Y030702D02*
Y030898D01*
X024802Y05495D02*
X024998D01*
X0249Y054852D02*
Y055048D01*
X025452Y0326D02*
X025648D01*
X02555Y032502D02*
Y032698D01*
X011802Y03115D02*
X011998D01*
X0119Y031052D02*
Y031248D01*
X014652Y0361D02*
X014848D01*
X01475Y036002D02*
Y036198D01*
X011402Y03795D02*
X011598D01*
X0115Y037852D02*
Y038048D01*
X015452Y0378D02*
X015648D01*
X01555Y037702D02*
Y037898D01*
X01748Y040321D02*
X017677D01*
X017579Y040223D02*
Y04042D01*
X017402Y0409D02*
X017598D01*
X0175Y040802D02*
Y040998D01*
X017838Y048822D02*
X018035D01*
X017936Y048723D02*
Y04892D01*
X010552Y03895D02*
X010748D01*
X01065Y038852D02*
Y039048D01*
X010552Y0403D02*
X010748D01*
X01065Y040202D02*
Y040398D01*
X011702Y04295D02*
X011898D01*
X0118Y042852D02*
Y043048D01*
X024152Y0276D02*
X024348D01*
X02425Y027502D02*
Y027698D01*
X033252Y02055D02*
X033448D01*
X03335Y020452D02*
Y020648D01*
X035302Y02055D02*
X035498D01*
X0354Y020452D02*
Y020648D01*
X033902Y0234D02*
X034098D01*
X034Y023302D02*
Y023498D01*
M02*
