G04*
G04 #@! TF.GenerationSoftware,Altium Limited,Altium Designer,20.0.13 (296)*
G04*
G04 Layer_Color=16711935*
%FSTAX24Y24*%
%MOIN*%
G70*
G01*
G75*
%ADD14C,0.0100*%
%ADD104C,0.0197*%
%ADD140C,0.0118*%
D14*
X02555Y01975D02*
G03*
X02555Y01975I-0012J0D01*
G01*
D104*
X007209Y050809D02*
G03*
X005634Y049234I0J-001575D01*
G01*
X009768Y050809D02*
G03*
X011343Y052384I0J001575D01*
G01*
X012524Y056321D02*
G03*
X011343Y05514I0J-001181D01*
G01*
X033784D02*
G03*
X032603Y056321I-001181J0D01*
G01*
X033784Y052384D02*
G03*
X035359Y050809I001575J0D01*
G01*
X039492Y049234D02*
G03*
X037918Y050809I-001575J0D01*
G01*
Y013014D02*
G03*
X039492Y014589I0J001575D01*
G01*
X005634D02*
G03*
X007209Y013014I001575J0D01*
G01*
Y050809D02*
X009768D01*
X011343Y052384D02*
Y05514D01*
X012524Y056321D02*
X032603D01*
X033784Y052384D02*
Y05514D01*
X035359Y050809D02*
X037918D01*
X039492Y014589D02*
Y049234D01*
X007209Y013014D02*
X037918D01*
X005634Y014589D02*
Y049234D01*
D140*
X037918Y013014D02*
G03*
X039492Y014589I0J001575D01*
G01*
Y049234D02*
G03*
X037918Y050809I-001575J0D01*
G01*
X033784Y052384D02*
G03*
X035359Y050809I001575J0D01*
G01*
X033784Y05514D02*
G03*
X032603Y056321I-001181J0D01*
G01*
X012524D02*
G03*
X011343Y05514I0J-001181D01*
G01*
X009768Y050809D02*
G03*
X011343Y052384I0J001575D01*
G01*
X007209Y050809D02*
G03*
X005634Y049234I0J-001575D01*
G01*
Y014589D02*
G03*
X007209Y013014I001575J0D01*
G01*
X01495Y0268D02*
X01525D01*
Y01845D02*
Y0268D01*
X01495Y01845D02*
X01525D01*
X01495D02*
Y0268D01*
X007209Y013014D02*
X037918D01*
X039492Y014589D02*
Y049234D01*
X035359Y050809D02*
X037918D01*
X033784Y052384D02*
Y05514D01*
X012524Y056321D02*
X032603D01*
X011343Y05514D02*
X011343D01*
X011343Y052384D02*
Y05514D01*
X007209Y050809D02*
X009768D01*
X005634Y014589D02*
Y049234D01*
M02*
