G04*
G04 #@! TF.GenerationSoftware,Altium Limited,Altium Designer,20.0.13 (296)*
G04*
G04 Layer_Color=8388736*
%FSTAX24Y24*%
%MOIN*%
G70*
G01*
G75*
%ADD52R,0.0395X0.0513*%
%ADD53R,0.0580X0.0630*%
%ADD54R,0.0434X0.0454*%
%ADD55R,0.0867X0.0185*%
%ADD56R,0.0185X0.0867*%
%ADD57R,0.0552X0.0513*%
%ADD58R,0.0454X0.0434*%
%ADD59R,0.0513X0.0395*%
%ADD60R,0.0671X0.0592*%
%ADD61R,0.0316X0.0474*%
%ADD62O,0.0356X0.1261*%
%ADD63R,0.0356X0.1261*%
%ADD64R,0.0710X0.1458*%
%ADD65R,0.0513X0.0631*%
%ADD66R,0.0513X0.0631*%
%ADD67R,0.1852X0.0789*%
%ADD68R,0.0552X0.0395*%
%ADD69R,0.0474X0.1025*%
%ADD70R,0.1379X0.1025*%
%ADD71R,0.0552X0.0316*%
%ADD72R,0.0513X0.0552*%
G04:AMPARAMS|DCode=73|XSize=39.5mil|YSize=51.3mil|CornerRadius=0mil|HoleSize=0mil|Usage=FLASHONLY|Rotation=135.000|XOffset=0mil|YOffset=0mil|HoleType=Round|Shape=Rectangle|*
%AMROTATEDRECTD73*
4,1,4,0.0321,0.0042,-0.0042,-0.0321,-0.0321,-0.0042,0.0042,0.0321,0.0321,0.0042,0.0*
%
%ADD73ROTATEDRECTD73*%

%ADD74R,0.0631X0.0513*%
%ADD75R,0.0631X0.0513*%
%ADD76R,0.1458X0.0710*%
%ADD77R,0.0710X0.0710*%
%ADD78O,0.1180X0.1280*%
%ADD79C,0.0789*%
G04:AMPARAMS|DCode=80|XSize=362.3mil|YSize=204.9mil|CornerRadius=53.2mil|HoleSize=0mil|Usage=FLASHONLY|Rotation=135.000|XOffset=0mil|YOffset=0mil|HoleType=Round|Shape=RoundedRectangle|*
%AMROUNDEDRECTD80*
21,1,0.3623,0.0984,0,0,135.0*
21,1,0.2559,0.2049,0,0,135.0*
1,1,0.1064,-0.0557,0.1253*
1,1,0.1064,0.1253,-0.0557*
1,1,0.1064,0.0557,-0.1253*
1,1,0.1064,-0.1253,0.0557*
%
%ADD80ROUNDEDRECTD80*%
G04:AMPARAMS|DCode=81|XSize=401.7mil|YSize=244.2mil|CornerRadius=63.1mil|HoleSize=0mil|Usage=FLASHONLY|Rotation=225.000|XOffset=0mil|YOffset=0mil|HoleType=Round|Shape=RoundedRectangle|*
%AMROUNDEDRECTD81*
21,1,0.4017,0.1181,0,0,225.0*
21,1,0.2756,0.2442,0,0,225.0*
1,1,0.1261,-0.1392,-0.0557*
1,1,0.1261,0.0557,0.1392*
1,1,0.1261,0.1392,0.0557*
1,1,0.1261,-0.0557,-0.1392*
%
%ADD81ROUNDEDRECTD81*%
%ADD82C,0.3899*%
%ADD83C,0.1930*%
%ADD84R,0.0789X0.0789*%
%ADD85R,0.0710X0.0710*%
%ADD86C,0.0780*%
G04:AMPARAMS|DCode=87|XSize=441.1mil|YSize=244.2mil|CornerRadius=63.1mil|HoleSize=0mil|Usage=FLASHONLY|Rotation=225.000|XOffset=0mil|YOffset=0mil|HoleType=Round|Shape=RoundedRectangle|*
%AMROUNDEDRECTD87*
21,1,0.4411,0.1181,0,0,225.0*
21,1,0.3150,0.2442,0,0,225.0*
1,1,0.1261,-0.1531,-0.0696*
1,1,0.1261,0.0696,0.1531*
1,1,0.1261,0.1531,0.0696*
1,1,0.1261,-0.0696,-0.1531*
%
%ADD87ROUNDEDRECTD87*%
%ADD88C,0.0710*%
%ADD89R,0.0678X0.0678*%
%ADD90C,0.0678*%
%ADD91C,0.0749*%
%ADD92C,0.0867*%
%ADD93C,0.1580*%
%ADD94R,0.0800X0.0800*%
%ADD95C,0.0800*%
G04:AMPARAMS|DCode=96|XSize=362.3mil|YSize=204.9mil|CornerRadius=53.2mil|HoleSize=0mil|Usage=FLASHONLY|Rotation=90.000|XOffset=0mil|YOffset=0mil|HoleType=Round|Shape=RoundedRectangle|*
%AMROUNDEDRECTD96*
21,1,0.3623,0.0984,0,0,90.0*
21,1,0.2559,0.2049,0,0,90.0*
1,1,0.1064,0.0492,0.1280*
1,1,0.1064,0.0492,-0.1280*
1,1,0.1064,-0.0492,-0.1280*
1,1,0.1064,-0.0492,0.1280*
%
%ADD96ROUNDEDRECTD96*%
%ADD97C,0.0640*%
%ADD98O,0.1040X0.1540*%
%ADD99R,0.0678X0.0678*%
%ADD100C,0.0356*%
D52*
X02905Y0517D02*
D03*
X02985D02*
D03*
X0299Y05445D02*
D03*
X0291D02*
D03*
X01125Y046D02*
D03*
X01045D02*
D03*
Y04665D02*
D03*
X01125D02*
D03*
X02185Y03265D02*
D03*
X02265D02*
D03*
X02185Y03195D02*
D03*
X02265D02*
D03*
X02585Y05425D02*
D03*
X02665D02*
D03*
X01045Y0453D02*
D03*
X01125D02*
D03*
X026961Y01879D02*
D03*
X026161D02*
D03*
X01195Y0223D02*
D03*
X01115D02*
D03*
X0071D02*
D03*
X0079D02*
D03*
X0099D02*
D03*
X0091D02*
D03*
X0099Y02465D02*
D03*
X0091D02*
D03*
X0079D02*
D03*
X0071D02*
D03*
X01195D02*
D03*
X01115D02*
D03*
X03705Y0318D02*
D03*
X03625D02*
D03*
X0357D02*
D03*
X0349D02*
D03*
D53*
X029Y0552D02*
D03*
X0299D02*
D03*
X02585D02*
D03*
X02675D02*
D03*
D54*
X029876Y052608D02*
D03*
X0295Y053592D02*
D03*
X029126Y052608D02*
D03*
X011194Y02395D02*
D03*
X01157Y022966D02*
D03*
X011944Y02395D02*
D03*
X007144D02*
D03*
X00752Y022966D02*
D03*
X007894Y02395D02*
D03*
X009894D02*
D03*
X00952Y022966D02*
D03*
X009144Y02395D02*
D03*
D55*
X012119Y040579D02*
D03*
Y040382D02*
D03*
Y040185D02*
D03*
Y039989D02*
D03*
Y039792D02*
D03*
Y039595D02*
D03*
Y039398D02*
D03*
Y039201D02*
D03*
Y039004D02*
D03*
Y038611D02*
D03*
Y038414D02*
D03*
Y038807D02*
D03*
X015572Y038414D02*
D03*
X015584Y038611D02*
D03*
Y038807D02*
D03*
Y039004D02*
D03*
Y039201D02*
D03*
Y039398D02*
D03*
Y039595D02*
D03*
Y039792D02*
D03*
Y039989D02*
D03*
Y040382D02*
D03*
Y040579D02*
D03*
Y040185D02*
D03*
D56*
X012769Y037764D02*
D03*
X012966D02*
D03*
X013163D02*
D03*
X013359D02*
D03*
X013556D02*
D03*
X013753D02*
D03*
X013952Y037768D02*
D03*
X014152D02*
D03*
X014352D02*
D03*
X014552D02*
D03*
X014752D02*
D03*
X014952D02*
D03*
X014934Y041229D02*
D03*
X014737D02*
D03*
X014541D02*
D03*
X014344D02*
D03*
X014147D02*
D03*
X01395D02*
D03*
X013753Y041221D02*
D03*
X013556D02*
D03*
X013359D02*
D03*
X013163D02*
D03*
X012966D02*
D03*
X012769D02*
D03*
D57*
X02445Y0434D02*
D03*
X02375D02*
D03*
X0168Y04195D02*
D03*
X0161D02*
D03*
X01415Y04345D02*
D03*
X01345D02*
D03*
X01415Y04275D02*
D03*
X01345D02*
D03*
X0099Y04065D02*
D03*
X0092D02*
D03*
X0099Y04D02*
D03*
X0092D02*
D03*
X0092Y03925D02*
D03*
X0099D02*
D03*
X0092Y0386D02*
D03*
X0099D02*
D03*
X03395Y04085D02*
D03*
X03325D02*
D03*
X03665Y0265D02*
D03*
X03735D02*
D03*
X0326Y02505D02*
D03*
X0333D02*
D03*
X0355Y02295D02*
D03*
X0362D02*
D03*
X0269Y0207D02*
D03*
X0262D02*
D03*
D58*
X034408Y038274D02*
D03*
X035392Y03865D02*
D03*
X034408Y039024D02*
D03*
D59*
X01305Y02555D02*
D03*
Y02475D02*
D03*
X02265Y03465D02*
D03*
Y03545D02*
D03*
X0237Y03465D02*
D03*
Y03545D02*
D03*
X0246Y0346D02*
D03*
Y0354D02*
D03*
X0217Y0491D02*
D03*
Y0483D02*
D03*
X03175Y02395D02*
D03*
Y02475D02*
D03*
Y0233D02*
D03*
Y0225D02*
D03*
D60*
X00975Y037052D02*
D03*
Y0378D02*
D03*
D61*
X018185Y048845D02*
D03*
X018559D02*
D03*
X018933D02*
D03*
X018185Y047822D02*
D03*
X018559D02*
D03*
X018933D02*
D03*
D62*
X029678Y042673D02*
D03*
D63*
Y044873D02*
D03*
D64*
X01815Y030502D02*
D03*
Y028298D02*
D03*
D65*
X0352Y0239D02*
D03*
X0321Y0264D02*
D03*
D66*
X0364Y0239D02*
D03*
X0333Y0264D02*
D03*
D67*
X0352Y02505D02*
D03*
X0352Y02645D02*
D03*
D68*
X025978Y03325D02*
D03*
X023222D02*
D03*
X012328Y048D02*
D03*
X009572D02*
D03*
X023222Y0315D02*
D03*
X025978D02*
D03*
D69*
X032894Y042508D02*
D03*
X0338Y042508D02*
D03*
X034706Y042508D02*
D03*
D70*
X0338Y044792D02*
D03*
D71*
X033476Y023026D02*
D03*
Y0234D02*
D03*
Y023774D02*
D03*
X0345Y023026D02*
D03*
Y0234D02*
D03*
X0345Y023774D02*
D03*
D72*
X01735Y0479D02*
D03*
Y0486D02*
D03*
X01335Y03535D02*
D03*
Y03605D02*
D03*
X031602Y044139D02*
D03*
Y043439D02*
D03*
X01105Y04155D02*
D03*
Y04225D02*
D03*
X0085Y04155D02*
D03*
Y04225D02*
D03*
D73*
X013417Y034033D02*
D03*
X013983Y033467D02*
D03*
X014367Y033133D02*
D03*
X014933Y032567D02*
D03*
D74*
X02065Y0494D02*
D03*
D75*
Y0482D02*
D03*
D76*
X033498Y0205D02*
D03*
X035702D02*
D03*
X033195Y029D02*
D03*
X0354D02*
D03*
D77*
X02965Y0471D02*
D03*
X0083Y02635D02*
D03*
X0195Y032D02*
D03*
X02915Y03615D02*
D03*
X01105Y03485D02*
D03*
X0122D02*
D03*
D78*
X0298Y01705D02*
D03*
X0318D02*
D03*
X01705Y01735D02*
D03*
X01905D02*
D03*
X025227Y017196D02*
D03*
X023227D02*
D03*
D79*
X0103Y04155D02*
D03*
X0093D02*
D03*
X0196Y03635D02*
D03*
X0206D02*
D03*
X0216D02*
D03*
X0226D02*
D03*
X0236D02*
D03*
X0246D02*
D03*
X0246Y04235D02*
D03*
X0236D02*
D03*
X0226D02*
D03*
X0216D02*
D03*
X0206D02*
D03*
X0196D02*
D03*
D80*
X0136Y05415D02*
D03*
X03Y03225D02*
D03*
D81*
X0368Y0484D02*
D03*
D82*
X0226Y03935D02*
D03*
D83*
X0196D02*
D03*
X0256D02*
D03*
D84*
Y03635D02*
D03*
Y04235D02*
D03*
D85*
X01125Y02635D02*
D03*
X00975D02*
D03*
X02915Y03985D02*
D03*
Y04105D02*
D03*
Y0386D02*
D03*
Y03735D02*
D03*
X0168Y03305D02*
D03*
X0069Y0469D02*
D03*
X030766Y028549D02*
D03*
X0369Y0387D02*
D03*
D86*
X0131Y0234D02*
D03*
X0131Y0224D02*
D03*
X03325Y03775D02*
D03*
X03325Y03675D02*
D03*
D87*
X0081Y0303D02*
D03*
D88*
X0069Y0439D02*
D03*
X0069Y0449D02*
D03*
Y0459D02*
D03*
D89*
X0151Y03125D02*
D03*
X01785Y03935D02*
D03*
X00705Y0344D02*
D03*
D90*
X0151Y03025D02*
D03*
Y02925D02*
D03*
Y02825D02*
D03*
X01495Y0459D02*
D03*
X01395D02*
D03*
X01295D02*
D03*
X01785Y03835D02*
D03*
Y03735D02*
D03*
Y03635D02*
D03*
X00705Y0354D02*
D03*
Y0364D02*
D03*
Y0374D02*
D03*
D91*
X01145Y02075D02*
D03*
X01045D02*
D03*
X00945D02*
D03*
X00845D02*
D03*
X01095Y01975D02*
D03*
X00995D02*
D03*
X00895D02*
D03*
X00795D02*
D03*
D92*
X0128Y016049D02*
D03*
X0066D02*
D03*
D93*
X00745Y01725D02*
D03*
X01195Y01725D02*
D03*
D94*
X02436Y01876D02*
D03*
D95*
X02435Y02075D02*
D03*
D96*
X034213Y01573D02*
D03*
X014528D02*
D03*
D97*
X01961Y053D02*
D03*
X0206Y053D02*
D03*
X01961Y05174D02*
D03*
X0206Y05173D02*
D03*
D98*
X01777Y051915D02*
D03*
X02257Y051915D02*
D03*
D99*
X01595Y0459D02*
D03*
D100*
X0119Y046D02*
D03*
X01505Y04475D02*
D03*
M02*
