G04*
G04 #@! TF.GenerationSoftware,Altium Limited,Altium Designer,20.0.13 (296)*
G04*
G04 Layer_Color=32768*
%FSTAX24Y24*%
%MOIN*%
G70*
G01*
G75*
%ADD13C,0.0050*%
%ADD18C,0.0039*%
%ADD150C,0.0020*%
D13*
X01945Y02755D02*
Y03125D01*
X01685D02*
X01945D01*
X01685Y02755D02*
Y03125D01*
Y02755D02*
X01945D01*
X018032Y0294D02*
X018268D01*
X01815Y029282D02*
Y029518D01*
X034482Y0205D02*
X034718D01*
X0346Y020382D02*
Y020618D01*
X03275Y0192D02*
Y0218D01*
X03645D01*
Y0192D02*
Y0218D01*
X03275Y0192D02*
X03645D01*
X03418Y029D02*
X034416D01*
X034298Y028882D02*
Y029118D01*
X032448Y0277D02*
Y0303D01*
X036148D01*
Y0277D02*
Y0303D01*
X032448Y0277D02*
X036148D01*
D18*
X002849Y043302D02*
Y047498D01*
X007278Y043302D02*
Y047498D01*
X002849Y047498D02*
X007278Y047498D01*
X002849Y043302D02*
X007278D01*
X032383Y041937D02*
X035217D01*
X032383Y045363D02*
X035217D01*
X032383Y041937D02*
Y045363D01*
X035217Y041937D02*
Y045363D01*
X0338Y043453D02*
Y043847D01*
X033603Y04365D02*
X033997D01*
D150*
X015899Y037449D02*
Y041544D01*
X011804Y037449D02*
X015899D01*
X011804D02*
Y041544D01*
X015899D01*
X02475Y043695D02*
X02475Y043105D01*
X023495Y043695D02*
X02475D01*
X02345Y043105D02*
Y04365D01*
X023495Y043695D01*
X0241Y043213D02*
X0241Y043587D01*
X023913Y0434D02*
X024287D01*
X02345Y043105D02*
X02475D01*
X02105Y029745D02*
X02235D01*
X021513Y02945D02*
X021887D01*
X0217Y029263D02*
X0217Y029637D01*
X02105Y0292D02*
X021095Y029155D01*
X02105Y0292D02*
Y029745D01*
X021095Y029155D02*
X02235Y029155D01*
X02235Y029745D01*
X017055Y0476D02*
X017645D01*
Y048855D01*
X017055Y0489D02*
X0176D01*
X017645Y048855D01*
X017163Y04825D02*
X017537D01*
X01735Y048063D02*
Y048437D01*
X017055Y0476D02*
Y0489D01*
X0171Y042245D02*
X0171Y041655D01*
X015845Y042245D02*
X0171D01*
X0158Y041655D02*
Y0422D01*
X015845Y042245D01*
X01645Y041763D02*
X01645Y042137D01*
X016263Y04195D02*
X016637D01*
X0158Y041655D02*
X0171D01*
X013055Y03505D02*
X013645Y03505D01*
Y036305D01*
X013055Y03635D02*
X0136D01*
X013645Y036305D01*
X013163Y0357D02*
X013537D01*
X01335Y035513D02*
Y035887D01*
X013055Y03505D02*
Y03635D01*
X031307Y044439D02*
X031898D01*
X031307Y043184D02*
Y044439D01*
X031352Y043139D02*
X031898D01*
X031307Y043184D02*
X031352Y043139D01*
X031415Y043789D02*
X031789D01*
X031602Y043602D02*
Y043976D01*
X031898Y043139D02*
Y044439D01*
X01445Y043155D02*
X01445Y043745D01*
X013195Y043745D02*
X01445Y043745D01*
X01315Y043155D02*
Y0437D01*
X013195Y043745D01*
X0138Y043263D02*
Y043637D01*
X013613Y04345D02*
X013987D01*
X01315Y043155D02*
X01445D01*
X01445Y043045D02*
X01445Y042455D01*
X013195Y043045D02*
X01445D01*
X01315Y042455D02*
Y043D01*
X013195Y043045D01*
X0138Y042563D02*
Y042937D01*
X013613Y04275D02*
X013987D01*
X01315Y042455D02*
X01445D01*
X010755Y04125D02*
X011345D01*
Y042505D01*
X010755Y04255D02*
X0113D01*
X011345Y042505D01*
X010863Y0419D02*
X011237D01*
X01105Y041713D02*
Y042087D01*
X010755Y04125D02*
Y04255D01*
X008205Y04125D02*
X008795Y04125D01*
Y042505D01*
X008205Y04255D02*
X00875D01*
X008795Y042505D01*
X008313Y0419D02*
X008687D01*
X0085Y041713D02*
Y042087D01*
X008205Y04125D02*
Y04255D01*
X0102Y040355D02*
Y040945D01*
X008945D02*
X0102D01*
X0089Y040355D02*
Y0409D01*
X008945Y040945D01*
X00955Y040463D02*
Y040837D01*
X009363Y04065D02*
X009737D01*
X0089Y040355D02*
X0102D01*
Y039705D02*
Y040295D01*
X008945D02*
X0102D01*
X0089Y039705D02*
Y04025D01*
X008945Y040295D01*
X00955Y039813D02*
Y040187D01*
X009363Y04D02*
X009737D01*
X0089Y039705D02*
X0102D01*
X0089Y038955D02*
Y039545D01*
Y038955D02*
X010155D01*
X0102Y039D02*
Y039545D01*
X010155Y038955D02*
X0102Y039D01*
X00955Y039063D02*
Y039437D01*
X009363Y03925D02*
X009737D01*
X0089Y039545D02*
X0102D01*
X0089Y038305D02*
Y038895D01*
Y038305D02*
X010155D01*
X0102Y03835D02*
Y038895D01*
X010155Y038305D02*
X0102Y03835D01*
X00955Y038413D02*
X00955Y038787D01*
X009363Y0386D02*
X009737D01*
X0089Y038895D02*
X0102D01*
X03425Y041145D02*
X03425Y040555D01*
X032995Y041145D02*
X03425D01*
X03295Y040555D02*
Y0411D01*
X032995Y041145D01*
X0336Y040663D02*
Y041037D01*
X033413Y04085D02*
X033787D01*
X03295Y040555D02*
X03425D01*
X03635Y026205D02*
Y026795D01*
Y026205D02*
X037605Y026205D01*
X03765Y02625D02*
Y026795D01*
X037605Y026205D02*
X03765Y02625D01*
X037Y026687D02*
X037Y026313D01*
X036813Y0265D02*
X037187D01*
X03635Y026795D02*
X03765D01*
X0323Y025345D02*
X0323Y024755D01*
X033555D01*
X0336Y0248D02*
Y025345D01*
X033555Y024755D02*
X0336Y0248D01*
X03295Y024863D02*
Y025237D01*
X032763Y02505D02*
X033137D01*
X0323Y025345D02*
X0336D01*
X0352Y023245D02*
X0352Y022655D01*
X036455D01*
X0365Y0227D02*
X0365Y023245D01*
X036455Y022655D02*
X0365Y0227D01*
X03585Y022763D02*
Y023137D01*
X035663Y02295D02*
X036037D01*
X0352Y023245D02*
X0365D01*
X024855Y03065D02*
X025445D01*
Y029395D02*
Y03065D01*
X024855Y02935D02*
X0254D01*
X025445Y029395D01*
X024963Y03D02*
X025337Y03D01*
X02515Y029813D02*
Y030187D01*
X024855Y02935D02*
Y03065D01*
X026455Y02955D02*
X027045Y02955D01*
X026455Y02955D02*
X026455Y030805D01*
X0265Y03085D02*
X027045D01*
X026455Y030805D02*
X0265Y03085D01*
X026563Y0302D02*
X026937D01*
X02675Y030013D02*
Y030387D01*
X027045Y02955D02*
Y03085D01*
X027105Y02955D02*
X027695Y02955D01*
X027105Y02955D02*
Y030805D01*
X02715Y03085D02*
X027695D01*
X027105Y030805D02*
X02715Y03085D01*
X027213Y0302D02*
X027587D01*
X0274Y030013D02*
Y030387D01*
X027695Y02955D02*
Y03085D01*
X019705Y02365D02*
X020295Y02365D01*
X020295Y022395D02*
X020295Y02365D01*
X019705Y02235D02*
X02025D01*
X020295Y022395D01*
X019813Y023D02*
X020187D01*
X02Y022813D02*
Y023187D01*
X019705Y02235D02*
Y02365D01*
X0272Y020995D02*
X0272Y020405D01*
X025945Y020995D02*
X0272Y020995D01*
X0259Y020405D02*
Y02095D01*
X025945Y020995D01*
X02655Y020887D02*
X02655Y020513D01*
X026363Y0207D02*
X026737D01*
X0259Y020405D02*
X0272D01*
X028955Y023296D02*
X029545Y023296D01*
Y022041D02*
Y023296D01*
X028955Y021996D02*
X0295D01*
X029545Y022041D01*
X029063Y022646D02*
X029437D01*
X02925Y022459D02*
Y022833D01*
X028955Y021996D02*
Y023296D01*
X02185Y021405D02*
X02315D01*
X022313Y0217D02*
X022687D01*
X0225Y021513D02*
Y021887D01*
X023105Y021995D02*
X02315Y02195D01*
Y021405D02*
Y02195D01*
X02185Y021995D02*
X023105D01*
X02185Y021405D02*
Y021995D01*
X02725Y021405D02*
X02725Y021995D01*
X025995Y021405D02*
X02725D01*
X02595Y02145D02*
Y021995D01*
Y02145D02*
X025995Y021405D01*
X0266Y021513D02*
Y021887D01*
X026413Y0217D02*
X026787D01*
X02595Y021995D02*
X02725D01*
X02455Y021405D02*
Y021995D01*
X025805D01*
X02585Y021405D02*
Y02195D01*
X025805Y021995D02*
X02585Y02195D01*
X0252Y021513D02*
Y021887D01*
X025013Y0217D02*
X025387D01*
X02455Y021405D02*
X02585D01*
X0245Y021405D02*
X0245Y021995D01*
X023245Y021405D02*
X0245D01*
X0232Y02145D02*
Y021995D01*
Y02145D02*
X023245Y021405D01*
X02385Y021513D02*
Y021887D01*
X023663Y0217D02*
X024037D01*
X0232Y021995D02*
X0245D01*
X020505Y0264D02*
X021095Y0264D01*
X020505Y0264D02*
Y027655D01*
X02055Y0277D02*
X021095D01*
X020505Y027655D02*
X02055Y0277D01*
X020613Y02705D02*
X020987D01*
X0208Y026863D02*
Y027237D01*
X021095Y0264D02*
Y0277D01*
X028105Y0263D02*
X028695Y0263D01*
X028105Y0263D02*
Y027555D01*
X02815Y0276D02*
X028695D01*
X028105Y027555D02*
X02815Y0276D01*
X028213Y02695D02*
X028587D01*
X0284Y026763D02*
Y027137D01*
X028695Y0263D02*
Y0276D01*
M02*
