G04*
G04 #@! TF.GenerationSoftware,Altium Limited,Altium Designer,20.0.13 (296)*
G04*
G04 Layer_Color=16711935*
%FSTAX24Y24*%
%MOIN*%
G70*
G01*
G75*
%ADD52R,0.0395X0.0513*%
%ADD57R,0.0552X0.0513*%
%ADD59R,0.0513X0.0395*%
%ADD72R,0.0513X0.0552*%
%ADD77R,0.0710X0.0710*%
%ADD78O,0.1180X0.1280*%
%ADD79C,0.0789*%
G04:AMPARAMS|DCode=80|XSize=362.3mil|YSize=204.9mil|CornerRadius=53.2mil|HoleSize=0mil|Usage=FLASHONLY|Rotation=135.000|XOffset=0mil|YOffset=0mil|HoleType=Round|Shape=RoundedRectangle|*
%AMROUNDEDRECTD80*
21,1,0.3623,0.0984,0,0,135.0*
21,1,0.2559,0.2049,0,0,135.0*
1,1,0.1064,-0.0557,0.1253*
1,1,0.1064,0.1253,-0.0557*
1,1,0.1064,0.0557,-0.1253*
1,1,0.1064,-0.1253,0.0557*
%
%ADD80ROUNDEDRECTD80*%
G04:AMPARAMS|DCode=81|XSize=401.7mil|YSize=244.2mil|CornerRadius=63.1mil|HoleSize=0mil|Usage=FLASHONLY|Rotation=225.000|XOffset=0mil|YOffset=0mil|HoleType=Round|Shape=RoundedRectangle|*
%AMROUNDEDRECTD81*
21,1,0.4017,0.1181,0,0,225.0*
21,1,0.2756,0.2442,0,0,225.0*
1,1,0.1261,-0.1392,-0.0557*
1,1,0.1261,0.0557,0.1392*
1,1,0.1261,0.1392,0.0557*
1,1,0.1261,-0.0557,-0.1392*
%
%ADD81ROUNDEDRECTD81*%
%ADD82C,0.3899*%
%ADD83C,0.1930*%
%ADD84R,0.0789X0.0789*%
%ADD85R,0.0710X0.0710*%
%ADD86C,0.0780*%
G04:AMPARAMS|DCode=87|XSize=441.1mil|YSize=244.2mil|CornerRadius=63.1mil|HoleSize=0mil|Usage=FLASHONLY|Rotation=225.000|XOffset=0mil|YOffset=0mil|HoleType=Round|Shape=RoundedRectangle|*
%AMROUNDEDRECTD87*
21,1,0.4411,0.1181,0,0,225.0*
21,1,0.3150,0.2442,0,0,225.0*
1,1,0.1261,-0.1531,-0.0696*
1,1,0.1261,0.0696,0.1531*
1,1,0.1261,0.1531,0.0696*
1,1,0.1261,-0.0696,-0.1531*
%
%ADD87ROUNDEDRECTD87*%
%ADD88C,0.0710*%
%ADD89R,0.0678X0.0678*%
%ADD90C,0.0678*%
%ADD91C,0.0749*%
%ADD92C,0.0867*%
%ADD93C,0.1580*%
%ADD94R,0.0800X0.0800*%
%ADD95C,0.0800*%
G04:AMPARAMS|DCode=96|XSize=362.3mil|YSize=204.9mil|CornerRadius=53.2mil|HoleSize=0mil|Usage=FLASHONLY|Rotation=90.000|XOffset=0mil|YOffset=0mil|HoleType=Round|Shape=RoundedRectangle|*
%AMROUNDEDRECTD96*
21,1,0.3623,0.0984,0,0,90.0*
21,1,0.2559,0.2049,0,0,90.0*
1,1,0.1064,0.0492,0.1280*
1,1,0.1064,0.0492,-0.1280*
1,1,0.1064,-0.0492,-0.1280*
1,1,0.1064,-0.0492,0.1280*
%
%ADD96ROUNDEDRECTD96*%
%ADD97C,0.0640*%
%ADD98O,0.1040X0.1540*%
%ADD99R,0.0678X0.0678*%
%ADD100C,0.0356*%
%ADD102C,0.0400*%
%ADD105C,0.0200*%
%ADD141C,0.0150*%
%ADD142R,0.0592X0.0671*%
%ADD143R,0.0592X0.0671*%
%ADD144R,0.0630X0.0513*%
%ADD145R,0.0249X0.0946*%
D52*
X02425Y0317D02*
D03*
X02505D02*
D03*
X02505Y0311D02*
D03*
X02425D02*
D03*
D57*
X02135Y02945D02*
D03*
X02205D02*
D03*
X02285Y0217D02*
D03*
X02215D02*
D03*
X02695D02*
D03*
X02625D02*
D03*
X02485D02*
D03*
X02555D02*
D03*
X0242D02*
D03*
X0235D02*
D03*
D59*
X02435Y0296D02*
D03*
Y0304D02*
D03*
D72*
X02515Y03035D02*
D03*
Y02965D02*
D03*
X02675Y02985D02*
D03*
Y03055D02*
D03*
X0274Y02985D02*
D03*
Y03055D02*
D03*
X02Y02335D02*
D03*
Y02265D02*
D03*
X02925Y022996D02*
D03*
Y022296D02*
D03*
X0208Y0267D02*
D03*
Y0274D02*
D03*
X0284Y0266D02*
D03*
Y0273D02*
D03*
D77*
X02965Y0471D02*
D03*
X0083Y02635D02*
D03*
X0195Y032D02*
D03*
X02915Y03615D02*
D03*
X01105Y03485D02*
D03*
X0122D02*
D03*
D78*
X0298Y01705D02*
D03*
X0318D02*
D03*
X01705Y01735D02*
D03*
X01905D02*
D03*
X025227Y017196D02*
D03*
X023227D02*
D03*
D79*
X0103Y04155D02*
D03*
X0093D02*
D03*
X0196Y03635D02*
D03*
X0206D02*
D03*
X0216D02*
D03*
X0226D02*
D03*
X0236D02*
D03*
X0246D02*
D03*
X0246Y04235D02*
D03*
X0236D02*
D03*
X0226D02*
D03*
X0216D02*
D03*
X0206D02*
D03*
X0196D02*
D03*
D80*
X0136Y05415D02*
D03*
X03Y03225D02*
D03*
D81*
X0368Y0484D02*
D03*
D82*
X0226Y03935D02*
D03*
D83*
X0196D02*
D03*
X0256D02*
D03*
D84*
Y03635D02*
D03*
Y04235D02*
D03*
D85*
X01125Y02635D02*
D03*
X00975D02*
D03*
X02915Y03985D02*
D03*
Y04105D02*
D03*
Y0386D02*
D03*
Y03735D02*
D03*
X0168Y03305D02*
D03*
X0069Y0469D02*
D03*
X030766Y028549D02*
D03*
X0369Y0387D02*
D03*
D86*
X0131Y0234D02*
D03*
X0131Y0224D02*
D03*
X03325Y03775D02*
D03*
X03325Y03675D02*
D03*
D87*
X0081Y0303D02*
D03*
D88*
X0069Y0439D02*
D03*
X0069Y0449D02*
D03*
Y0459D02*
D03*
D89*
X0151Y03125D02*
D03*
X01785Y03935D02*
D03*
X00705Y0344D02*
D03*
D90*
X0151Y03025D02*
D03*
Y02925D02*
D03*
Y02825D02*
D03*
X01495Y0459D02*
D03*
X01395D02*
D03*
X01295D02*
D03*
X01785Y03835D02*
D03*
Y03735D02*
D03*
Y03635D02*
D03*
X00705Y0354D02*
D03*
Y0364D02*
D03*
Y0374D02*
D03*
D91*
X01145Y02075D02*
D03*
X01045D02*
D03*
X00945D02*
D03*
X00845D02*
D03*
X01095Y01975D02*
D03*
X00995D02*
D03*
X00895D02*
D03*
X00795D02*
D03*
D92*
X0128Y016049D02*
D03*
X0066D02*
D03*
D93*
X00745Y01725D02*
D03*
X01195Y01725D02*
D03*
D94*
X02436Y01876D02*
D03*
D95*
X02435Y02075D02*
D03*
D96*
X034213Y01573D02*
D03*
X014528D02*
D03*
D97*
X01961Y053D02*
D03*
X0206Y053D02*
D03*
X01961Y05174D02*
D03*
X0206Y05173D02*
D03*
D98*
X01777Y051915D02*
D03*
X02257Y051915D02*
D03*
D99*
X01595Y0459D02*
D03*
D100*
X0119Y046D02*
D03*
X01505Y04475D02*
D03*
D102*
X02125Y01685D02*
X0222Y0159D01*
X02125Y01685D02*
Y0186D01*
X02025Y0196D02*
X02125Y0186D01*
X02025Y0196D02*
Y0222D01*
X02825Y0264D02*
X03065D01*
X0321Y02495D01*
Y01755D02*
Y02495D01*
X02835Y02425D02*
X0293D01*
X0301Y02345D01*
Y0175D02*
Y02345D01*
X01965Y02445D02*
X02075D01*
X01895Y02395D02*
X01955Y02455D01*
X01895Y0177D02*
Y02395D01*
X01865Y02635D02*
X02095D01*
X017Y0247D02*
X01865Y02635D01*
X017Y0218D02*
Y0247D01*
Y01755D02*
Y0218D01*
D105*
X023561Y022211D02*
Y022656D01*
X02745Y0152D02*
X02775Y0155D01*
Y0181D01*
X0292Y01955D01*
Y02205D01*
X02325Y0154D02*
X02385Y0148D01*
X03055D01*
X03095Y0152D01*
Y02425D01*
X0296Y0256D02*
X03095Y02425D01*
X0279Y0256D02*
X0296D01*
X0184Y01525D02*
X022D01*
X01795Y0157D02*
X0184Y01525D01*
X01795Y0157D02*
Y02445D01*
X01915Y02565D01*
X0212D01*
D141*
X0261Y02035D02*
Y0211D01*
X02495Y01865D02*
X02615D01*
X0272Y0197D01*
Y0215D01*
X02285Y0187D02*
X02415D01*
X022Y01955D02*
X02285Y0187D01*
X022Y01955D02*
Y0215D01*
X0247Y0189D02*
X02535Y01955D01*
Y0209D01*
X0248Y02145D02*
X02535Y0209D01*
X0248Y02145D02*
Y02155D01*
X02385Y01905D02*
X024D01*
X0236Y0193D02*
X02385Y01905D01*
X0236Y0193D02*
Y01935D01*
Y02085D01*
X0241Y02135D01*
X02415D01*
X02625Y0225D02*
X0267Y02205D01*
X02625Y0225D02*
Y02285D01*
X02235Y0222D02*
X0226D01*
X0229Y0225D01*
X0256Y0221D02*
Y02265D01*
X025Y02205D02*
Y0227D01*
X02425Y02205D02*
Y02265D01*
D142*
X02495Y0161D02*
D03*
D143*
X0236D02*
D03*
D144*
X0284Y023594D02*
D03*
Y022806D02*
D03*
X0209Y023844D02*
D03*
Y023056D02*
D03*
D145*
X026785Y0232D02*
D03*
X02653D02*
D03*
X026274D02*
D03*
X026018D02*
D03*
X025762D02*
D03*
X025506D02*
D03*
X02525D02*
D03*
X024994D02*
D03*
X024738D02*
D03*
X024482D02*
D03*
X024226D02*
D03*
X02397D02*
D03*
X023715D02*
D03*
X023459D02*
D03*
X022435D02*
D03*
X022947D02*
D03*
X022691D02*
D03*
X023203D02*
D03*
Y0284D02*
D03*
X022691D02*
D03*
X022947D02*
D03*
X022435D02*
D03*
X023459D02*
D03*
X023715D02*
D03*
X02397D02*
D03*
X024226D02*
D03*
X024482D02*
D03*
X024738D02*
D03*
X024994D02*
D03*
X02525D02*
D03*
X025506D02*
D03*
X025762D02*
D03*
X026018D02*
D03*
X026274D02*
D03*
X02653D02*
D03*
X026785D02*
D03*
M02*
